<svg width="1088" height="688" viewBox="0 0 1088 688" fill="none" xmlns="http://www.w3.org/2000/svg">
<g clip-path="url(#clip0_788_365)">
<path d="M961.81 454.442C956.54 499.592 945.59 535.842 930.56 564.752C910.56 603.272 876.35 618.792 845.79 635.032C836.959 639.716 827.778 643.708 818.33 646.972C762.72 666.272 700.48 661.152 651.59 650.962C617.299 643.809 582.492 639.408 547.5 637.802C537.52 637.352 527.53 637.129 517.53 637.132C502.11 637.152 224.46 642.422 156.86 505.562C140.17 471.802 128.73 430.562 124.62 380.292C112.99 238.172 176.91 144.832 259.36 83.8223C415.33 -31.5877 629.12 -26.7477 782.79 91.7023C885.15 170.602 980.99 290.012 961.81 454.442Z" fill="#3F3D56"/>
<path d="M930.56 564.752C910.56 603.272 883.35 628.792 852.79 645.032C843.959 649.717 834.778 653.709 825.33 656.972C769.72 676.272 707.48 671.152 658.59 660.962C624.299 653.809 589.492 649.408 554.5 647.802C544.52 647.352 534.53 647.129 524.53 647.132C509.11 647.152 493.693 647.726 478.28 648.852C378.11 656.212 224.46 642.422 156.86 505.562L326 177.962L388.95 339.582L409.04 391.172L464.41 315.192L493 275.962L623.2 425.232L660 343.962L914.78 551.882L928.99 563.472L930.56 564.752Z" fill="#F2F2F2"/>
<path opacity="0.1" d="M302 282.962L328 225.962L364 308.962L333 248.962L302 282.962Z" fill="black"/>
<path opacity="0.1" d="M554.5 647.802C544.52 647.352 534.53 647.129 524.53 647.132L409.04 391.172L554.5 647.802Z" fill="black"/>
<path opacity="0.1" d="M464.411 315.191L493 292.962L623 442.962L491 314.962L464.411 315.191Z" fill="black"/>
<path opacity="0.1" d="M852.79 645.032C843.959 649.717 834.778 653.709 825.33 656.972L623.2 425.232L852.79 645.032Z" fill="black"/>
<path d="M482 104.962C483.657 104.962 485 103.619 485 101.962C485 100.306 483.657 98.9624 482 98.9624C480.343 98.9624 479 100.306 479 101.962C479 103.619 480.343 104.962 482 104.962Z" fill="#F2F2F2"/>
<path d="M399 207.962C400.657 207.962 402 206.619 402 204.962C402 203.306 400.657 201.962 399 201.962C397.343 201.962 396 203.306 396 204.962C396 206.619 397.343 207.962 399 207.962Z" fill="#F2F2F2"/>
<path d="M602 224.962C603.105 224.962 604 224.067 604 222.962C604 221.858 603.105 220.962 602 220.962C600.895 220.962 600 221.858 600 222.962C600 224.067 600.895 224.962 602 224.962Z" fill="#F2F2F2"/>
<path d="M182 269.962C183.105 269.962 184 269.067 184 267.962C184 266.858 183.105 265.962 182 265.962C180.895 265.962 180 266.858 180 267.962C180 269.067 180.895 269.962 182 269.962Z" fill="#F2F2F2"/>
<path d="M614 100.962C615.105 100.962 616 100.067 616 98.9624C616 97.8578 615.105 96.9624 614 96.9624C612.895 96.9624 612 97.8578 612 98.9624C612 100.067 612.895 100.962 614 100.962Z" fill="#F2F2F2"/>
<path d="M738 196.962C739.105 196.962 740 196.067 740 194.962C740 193.858 739.105 192.962 738 192.962C736.895 192.962 736 193.858 736 194.962C736 196.067 736.895 196.962 738 196.962Z" fill="#F2F2F2"/>
<path d="M860 348.962C861.105 348.962 862 348.067 862 346.962C862 345.858 861.105 344.962 860 344.962C858.895 344.962 858 345.858 858 346.962C858 348.067 858.895 348.962 860 348.962Z" fill="#F2F2F2"/>
<path d="M306 121.222H303.24V118.462H301.76V121.222H299V122.703H301.76V125.462H303.24V122.703H306V121.222Z" fill="#F2F2F2"/>
<path d="M848 424.222H845.24V421.462H843.76V424.222H841V425.703H843.76V428.462H845.24V425.703H848V424.222Z" fill="#F2F2F2"/>
<path d="M1088 613.962C1088 630.531 844.443 687.962 544 687.962C243.557 687.962 0 630.531 0 613.962C0 597.394 243.557 627.962 544 627.962C844.443 627.962 1088 597.394 1088 613.962Z" fill="#3F3D56"/>
<path opacity="0.1" d="M1088 613.962C1088 630.531 844.443 687.962 544 687.962C243.557 687.962 0 630.531 0 613.962C0 597.394 243.557 627.962 544 627.962C844.443 627.962 1088 597.394 1088 613.962Z" fill="black"/>
<path d="M544 643.962C844.443 643.962 1088 630.531 1088 613.962C1088 597.394 844.443 583.962 544 583.962C243.557 583.962 0 597.394 0 613.962C0 630.531 243.557 643.962 544 643.962Z" fill="#3F3D56"/>
<path d="M568 571.962C568 605.099 553.225 595.962 535 595.962C516.775 595.962 502 605.099 502 571.962C502 538.825 535 475.962 535 475.962C535 475.962 568 538.825 568 571.962Z" fill="#FF6584"/>
<path opacity="0.1" d="M550 584.641C550 599.703 543.284 595.55 535 595.55C526.716 595.55 520 599.703 520 584.641C520 569.578 535 541.004 535 541.004C535 541.004 550 569.578 550 584.641Z" fill="black"/>
<path d="M572 604.962H498C493.029 604.962 489 608.992 489 613.962C489 618.933 493.029 622.962 498 622.962H572C576.971 622.962 581 618.933 581 613.962C581 608.992 576.971 604.962 572 604.962Z" fill="#2F2E41"/>
<path d="M572 586.962H498C493.029 586.962 489 590.992 489 595.962C489 600.933 493.029 604.962 498 604.962H572C576.971 604.962 581 600.933 581 595.962C581 590.992 576.971 586.962 572 586.962Z" fill="#2F2E41"/>
<path d="M137 490.528C137 545.871 171.719 590.654 214.626 590.654Z" fill="#3F3D56"/>
<path d="M214.626 590.654C214.626 534.689 253.371 489.403 301.252 489.403Z" fill="#00BFA6"/>
<path d="M165.125 495.545C165.125 548.115 187.265 590.654 214.626 590.654Z" fill="#00BFA6"/>
<path d="M214.626 590.654C214.626 519.143 259.409 461.278 314.752 461.278Z" fill="#3F3D56"/>
<path d="M198.296 591.36C198.296 591.36 209.304 591.021 212.622 588.659C215.94 586.296 229.556 583.475 230.379 587.264C231.202 591.053 246.923 606.109 234.494 606.209C222.066 606.309 205.615 604.273 202.304 602.256C198.993 600.239 198.296 591.36 198.296 591.36Z" fill="#A8A8A8"/>
<path opacity="0.2" d="M234.716 604.89C222.287 604.99 205.837 602.954 202.526 600.937C200.004 599.401 198.999 593.889 198.663 591.346C198.43 591.356 198.295 591.36 198.295 591.36C198.295 591.36 198.993 600.239 202.304 602.256C205.615 604.273 222.065 606.309 234.494 606.209C238.082 606.18 239.321 604.904 239.253 603.013C238.755 604.155 237.386 604.868 234.716 604.89Z" fill="black"/>
<path d="M721.429 527.062C721.429 565.091 745.286 595.863 774.769 595.863Z" fill="#3F3D56"/>
<path d="M774.769 595.863C774.769 557.407 801.393 526.289 834.294 526.289Z" fill="#00BFA6"/>
<path d="M740.755 530.509C740.755 566.633 755.969 595.864 774.769 595.864Z" fill="#00BFA6"/>
<path d="M774.769 595.863C774.769 546.725 805.542 506.962 843.571 506.962Z" fill="#3F3D56"/>
<path d="M763.548 596.349C763.548 596.349 771.113 596.116 773.392 594.492C775.672 592.869 785.029 590.93 785.594 593.534C786.16 596.137 796.962 606.483 788.422 606.552C779.882 606.621 768.578 605.221 766.302 603.835C764.027 602.449 763.548 596.349 763.548 596.349Z" fill="#A8A8A8"/>
<path opacity="0.2" d="M788.574 605.645C780.034 605.714 768.73 604.315 766.455 602.929C764.722 601.874 764.032 598.086 763.801 596.339C763.641 596.346 763.548 596.348 763.548 596.348C763.548 596.348 764.027 602.449 766.302 603.835C768.578 605.221 779.881 606.621 788.422 606.552C790.887 606.532 791.739 605.655 791.692 604.356C791.349 605.141 790.409 605.631 788.574 605.645Z" fill="black"/>
<path d="M893.813 618.699C893.813 618.699 905.172 616.97 908.313 614.108C911.454 611.246 925.203 606.62 926.53 610.442C927.857 614.263 946.024 627.889 933.163 629.548C920.303 631.207 903.011 631.157 899.328 629.483C895.646 627.808 893.813 618.699 893.813 618.699Z" fill="#A8A8A8"/>
<path opacity="0.2" d="M933.228 628.154C920.368 629.814 903.075 629.764 899.393 628.089C896.589 626.814 894.858 621.23 894.192 618.639C893.952 618.678 893.813 618.7 893.813 618.7C893.813 618.7 895.646 627.808 899.328 629.483C903.011 631.157 920.303 631.208 933.163 629.548C936.876 629.069 937.999 627.592 937.692 625.642C937.319 626.888 935.991 627.798 933.228 628.154Z" fill="black"/>
<path d="M614.26 617.877C614.26 617.877 623.847 616.418 626.497 614.002C629.148 611.587 640.752 607.683 641.872 610.908C642.991 614.133 658.323 625.633 647.47 627.033C636.616 628.433 622.022 628.391 618.915 626.978C615.807 625.564 614.26 617.877 614.26 617.877Z" fill="#A8A8A8"/>
<path opacity="0.2" d="M647.524 625.857C636.671 627.257 622.077 627.215 618.969 625.802C616.603 624.725 615.142 620.013 614.579 617.826C614.377 617.859 614.26 617.877 614.26 617.877C614.26 617.877 615.807 625.564 618.915 626.978C622.022 628.391 636.616 628.434 647.47 627.033C650.603 626.629 651.551 625.382 651.292 623.737C650.977 624.788 649.856 625.556 647.524 625.857Z" fill="black"/>
<path d="M122.389 613.09C122.389 613.09 129.852 611.954 131.916 610.074C133.979 608.194 143.013 605.154 143.885 607.665C144.756 610.175 156.692 619.128 148.243 620.218C139.794 621.308 128.432 621.275 126.013 620.175C123.594 619.075 122.389 613.09 122.389 613.09Z" fill="#A8A8A8"/>
<path opacity="0.2" d="M148.285 619.302C139.836 620.393 128.474 620.36 126.055 619.259C124.213 618.421 123.076 614.753 122.638 613.05C122.48 613.076 122.389 613.09 122.389 613.09C122.389 613.09 123.594 619.075 126.013 620.175C128.432 621.275 139.794 621.308 148.243 620.218C150.682 619.903 151.42 618.933 151.219 617.652C150.973 618.47 150.101 619.068 148.285 619.302Z" fill="black"/>
<path opacity="0.1" d="M383.696 601.319C383.696 631.539 341.572 622.192 289.996 622.192C238.42 622.192 196.922 631.539 196.922 601.319C196.922 571.098 239.04 564.526 290.616 564.526C342.193 564.526 383.696 571.098 383.696 601.319Z" fill="black"/>
<path d="M383.696 593.878C383.696 624.098 341.572 614.751 289.996 614.751C238.42 614.751 196.922 624.098 196.922 593.878C196.922 563.657 239.04 557.085 290.616 557.085C342.193 557.085 383.696 563.657 383.696 593.878Z" fill="#3F3D56"/>
<path d="M391.726 455.421C389.241 456.691 386.879 458.188 384.67 459.893C382.451 461.611 380.753 463.911 379.763 466.537C378.52 463.626 377.504 460.624 376.725 457.556C374.973 452.051 372.9 446.654 370.517 441.391C374.429 439.901 377.82 437.3 380.274 433.909C385.073 438.687 390.008 443.671 392.396 450.008C392.807 451.1 394.004 452.264 394.282 453.241C394.675 454.625 392.775 454.844 391.726 455.421Z" fill="#FFBFC5"/>
<path d="M436.892 571.907C442.134 573.563 447.023 576.18 451.31 579.622C451.633 579.824 451.867 580.141 451.965 580.509C452.074 581.34 450.965 581.679 450.16 581.91C447.794 582.592 446.281 584.815 444.538 586.555C442.796 588.295 439.995 589.661 437.962 588.271C437.428 587.862 436.961 587.371 436.581 586.816L427.991 575.604C430.903 573.976 433.966 572.632 437.135 571.59" fill="#F1F1F1"/>
<path d="M452.333 574.24C453.47 575.401 453.964 577.069 455.08 578.25C455.831 578.966 456.688 579.561 457.621 580.014L464.193 583.631C465.203 584.228 466.266 584.731 467.369 585.132C468.607 585.477 469.867 585.74 471.14 585.919C472.962 586.26 474.744 586.786 476.459 587.488C477.747 588.016 479.184 588.926 479.178 590.319C479.125 590.999 478.848 591.642 478.39 592.148C475.798 595.412 471.212 596.135 467.067 596.573C458.096 597.522 448.915 598.233 440.145 596.118C438.433 595.803 436.815 595.103 435.413 594.07C432.767 591.878 432.24 587.883 433.228 584.591C433.507 583.329 434.254 582.219 435.318 581.484C436.707 580.687 438.438 581.057 440.034 580.934C441.732 580.702 443.377 580.178 444.896 579.385C445.899 578.933 447.054 578.35 447.268 577.157C447.468 576.05 446.168 574.942 446.441 573.954C447.048 571.763 451.285 573.171 452.333 574.24Z" fill="#575A89"/>
<path opacity="0.1" d="M452.333 574.24C453.47 575.401 453.964 577.069 455.08 578.25C455.831 578.966 456.688 579.561 457.621 580.014L464.193 583.631C465.203 584.228 466.266 584.731 467.369 585.132C468.607 585.477 469.867 585.74 471.14 585.919C472.962 586.26 474.744 586.786 476.459 587.488C477.747 588.016 479.184 588.926 479.178 590.319C479.125 590.999 478.848 591.642 478.39 592.148C475.798 595.412 471.212 596.135 467.067 596.573C458.096 597.522 448.915 598.233 440.145 596.118C438.433 595.803 436.815 595.103 435.413 594.07C432.767 591.878 432.24 587.883 433.228 584.591C433.507 583.329 434.254 582.219 435.318 581.484C436.707 580.687 438.438 581.057 440.034 580.934C441.732 580.702 443.377 580.178 444.896 579.385C445.899 578.933 447.054 578.35 447.268 577.157C447.468 576.05 446.168 574.942 446.441 573.954C447.048 571.763 451.285 573.171 452.333 574.24Z" fill="black"/>
<path d="M467.581 610.138C468.502 610.744 469.422 611.351 470.341 611.96C471.188 612.411 471.885 613.098 472.348 613.939C472.946 615.346 472.136 616.937 471.236 618.173C468.535 621.867 464.847 624.725 460.596 626.419C459.122 627.032 457.564 627.421 455.974 627.572C455.611 627.628 455.238 627.581 454.9 627.436C454.059 626.992 454.179 625.789 454.169 624.837C454.14 622.076 452.055 619.833 450.18 617.805C448.306 615.777 446.395 613.28 446.825 610.551C447.214 608.945 448.037 607.477 449.204 606.307C450.242 605.004 451.46 603.855 452.821 602.894C454.771 601.618 455.459 602.305 457.294 603.474C460.739 605.67 464.168 607.891 467.581 610.138Z" fill="#F1F1F1"/>
<path d="M458.609 623.591C459.36 623.78 460.145 623.79 460.901 623.62C461.656 623.449 462.361 623.103 462.958 622.61C464.143 621.611 465.105 620.374 465.782 618.98C466.453 617.739 467.037 616.452 467.53 615.13C468.107 613.582 468.642 611.87 470.002 610.931C471.651 609.793 473.973 610.238 475.649 611.337C477.229 612.569 478.679 613.959 479.979 615.484C483.46 618.731 487.68 621.079 492.274 622.326C496.848 623.561 501.485 624.552 506.165 625.295C507.1 625.42 508.005 625.711 508.838 626.156C510.719 627.303 511.346 629.864 510.823 632.005C510.159 634.116 508.968 636.024 507.361 637.548C506.097 639.047 504.529 640.261 502.761 641.11C501.266 641.656 499.692 641.954 498.1 641.992C490.394 642.516 482.652 641.91 475.121 640.193C472.354 639.441 469.539 638.879 466.696 638.511C464.963 638.358 463.218 638.407 461.482 638.289C458.031 638.052 454.657 637.162 451.538 635.666C450.779 635.387 450.138 634.856 449.725 634.161C449.5 633.521 449.454 632.833 449.59 632.169L450.742 622.088C450.842 621.211 451.134 620.12 452.006 619.983C452.837 619.853 453.44 620.703 453.963 621.362C454.976 622.575 456.364 623.417 457.908 623.755C459.452 624.093 461.065 623.907 462.492 623.227" fill="#575A89"/>
<path d="M391.866 496.486C396.924 495.916 402.79 495.82 406.21 499.59C408.307 501.902 408.944 505.14 409.67 508.176C410.805 513.273 412.649 518.186 415.15 522.771C416.759 525.612 418.709 528.278 419.943 531.3C421.208 534.396 421.674 537.749 422.413 541.011C425.378 553.904 432.616 565.416 442.949 573.676C441.125 578.639 435.848 581.474 430.715 582.741C429.627 583.203 428.415 583.285 427.275 582.975C426.134 582.664 425.132 581.978 424.428 581.028C422.026 578.436 419.789 575.696 417.731 572.824C410.331 562.943 402.82 552.855 398.789 541.187C397.375 537.093 395.961 532.314 391.982 530.603C389.712 529.627 387.117 529.932 384.682 530.345C379.239 531.268 373.883 532.643 368.669 534.456C363.109 536.39 356.744 538.77 351.656 535.811C348.611 534.04 346.799 530.64 346.131 527.182C345.628 523.691 345.623 520.146 346.117 516.654C346.151 515.074 346.53 513.52 347.228 512.102C347.932 511.041 348.835 510.127 349.887 509.41C354.431 505.959 359.484 503.237 364.866 501.341C370.007 499.529 375.532 498.914 380.896 498.019C384.538 497.411 388.195 496.9 391.866 496.486Z" fill="#575A89"/>
<path opacity="0.1" d="M391.866 496.486C396.924 495.916 402.79 495.82 406.21 499.59C408.307 501.902 408.944 505.14 409.67 508.176C410.805 513.273 412.649 518.186 415.15 522.771C416.759 525.612 418.709 528.278 419.943 531.3C421.208 534.396 421.674 537.749 422.413 541.011C425.378 553.904 432.616 565.416 442.949 573.676C441.125 578.639 435.848 581.474 430.715 582.741C429.627 583.203 428.415 583.285 427.275 582.975C426.134 582.664 425.132 581.978 424.428 581.028C422.026 578.436 419.789 575.696 417.731 572.824C410.331 562.943 402.82 552.855 398.789 541.187C397.375 537.093 395.961 532.314 391.982 530.603C389.712 529.627 387.117 529.932 384.682 530.345C379.239 531.268 373.883 532.643 368.669 534.456C363.109 536.39 356.744 538.77 351.656 535.811C348.611 534.04 346.799 530.64 346.131 527.182C345.628 523.691 345.623 520.146 346.117 516.654C346.151 515.074 346.53 513.52 347.228 512.102C347.932 511.041 348.835 510.127 349.887 509.41C354.431 505.959 359.484 503.237 364.866 501.341C370.007 499.529 375.532 498.914 380.896 498.019C384.538 497.411 388.195 496.9 391.866 496.486Z" fill="black"/>
<path d="M420.82 532.958C423.166 534.142 425.321 535.673 427.212 537.498C429.163 539.797 430.645 542.456 431.574 545.325C431.99 546.282 432.245 547.301 432.329 548.342C432.367 548.863 432.286 549.385 432.092 549.87C431.898 550.355 431.597 550.79 431.21 551.141C430.274 551.743 429.163 552.014 428.054 551.912C426.587 551.924 425.121 551.886 423.656 551.798C422.766 551.791 421.883 551.624 421.052 551.304C420.291 550.915 419.604 550.395 419.023 549.768C416.445 547.374 414.334 544.523 412.796 541.359C411.734 539.018 409.986 533.622 411.657 531.186C413.379 528.676 419 531.925 420.82 532.958Z" fill="#FFBFC5"/>
<path d="M349.907 532.123C357.388 534.519 365.35 534.793 373.171 535.523C386.325 536.753 399.32 539.322 411.953 543.189C414.591 543.832 417.076 544.989 419.265 546.594C420.956 548.157 422.388 549.978 423.507 551.99C425.562 555.121 427.423 558.376 429.08 561.735C430.501 564.771 431.584 567.953 432.905 571.033C437.346 581.345 444.368 590.34 453.295 597.15C454.927 598.391 456.743 599.741 457.163 601.747C457.351 603.039 457.14 604.357 456.558 605.525C454.63 610.016 450.627 613.284 446.427 615.784C444.621 616.86 442.634 617.951 441.746 619.856C435.361 617.22 430.616 611.601 426.666 605.936C422.715 600.27 419.211 594.182 414.149 589.484C411.918 587.414 409.384 585.611 407.63 583.125C404.953 579.331 404.229 574.139 400.625 571.21C396.995 568.261 391.788 568.662 387.133 569.119C363.291 571.453 339.266 571.193 315.48 568.343C310.535 567.75 305.454 566.995 301.171 564.454C296.887 561.914 293.552 557.147 294.159 552.203C294.727 547.576 298.581 543.908 302.877 542.096C307.173 540.285 311.921 539.96 316.554 539.438C327.922 538.329 339.118 535.874 349.907 532.123V532.123Z" fill="#575A89"/>
<path d="M281.511 541.73C282.099 537.807 283.622 534.091 284.578 530.241C285.058 527.818 285.664 525.423 286.396 523.064C286.42 522.997 286.447 522.932 286.472 522.866C286.715 522.846 286.951 522.773 287.163 522.652C287.374 522.531 287.557 522.365 287.697 522.166C287.828 521.822 287.863 521.45 287.801 521.087C287.782 520.703 287.793 520.318 287.835 519.936C289.4 517.313 291.109 514.778 292.956 512.345C296.195 507.756 299 502.879 301.801 498.01C304.097 494.018 306.396 490.019 308.297 485.824C309.722 482.679 310.921 479.429 312.496 476.357C318.104 465.42 328.185 457.365 339.027 451.576C349.427 446.023 360.67 442.279 371.605 437.864C371.886 438.141 372.141 438.442 372.368 438.764C378.276 446.84 378.913 457.453 381.344 467.159C382.326 471.078 383.638 474.983 383.636 479.023C383.632 484.986 380.782 490.534 377.95 495.782C375.418 500.797 372.428 505.568 369.02 510.033C367.346 512.104 365.504 514.033 363.821 516.096C356.929 524.548 352.948 534.94 349.079 545.137C346.839 551.041 343.178 556.277 340.715 562.092C339.769 564.327 339.222 566.736 338.034 568.851C336.845 570.967 334.776 572.828 332.35 572.839C331.64 572.819 330.935 572.709 330.253 572.51C321.469 570.251 314.112 564.439 306.812 559.056C305.509 558.095 304.199 557.143 302.832 556.276C301.451 555.401 300.017 554.615 298.584 553.83C297.498 553.235 296.412 552.639 295.326 552.044C291.766 550.094 288.202 548.141 284.494 546.491C283.379 546.044 282.308 545.494 281.294 544.849C281.283 543.805 281.356 542.762 281.511 541.73V541.73Z" fill="#00BFA6"/>
<path d="M396.359 454.751C407.537 454.751 416.599 445.689 416.599 434.511C416.599 423.333 407.537 414.272 396.359 414.272C385.181 414.272 376.12 423.333 376.12 434.511C376.12 445.689 385.181 454.751 396.359 454.751Z" fill="#FFBFC5"/>
<path d="M409.974 425.041C410.463 425.897 411.204 426.58 412.096 427C412.988 427.419 413.987 427.553 414.958 427.384C415.924 427.19 416.837 426.795 417.639 426.223C418.44 425.651 419.112 424.916 419.61 424.066C420.594 422.358 421.183 420.45 421.333 418.484C421.491 417.729 421.497 416.95 421.352 416.193C421.208 415.436 420.915 414.714 420.49 414.071C419.735 413.339 418.869 412.733 417.923 412.275C416.619 411.461 415.524 410.352 414.726 409.038C414.159 408.103 413.753 407.08 413.244 406.112C411.403 402.615 407.821 399.772 403.871 399.901C401.974 399.963 400.166 400.684 398.296 401.012C392.021 402.112 385.201 398.792 379.38 401.382C377.948 402.078 376.616 402.966 375.422 404.021C373.784 405.373 372.209 406.796 370.697 408.292C369.384 409.411 368.391 410.857 367.817 412.484C367.026 415.454 368.907 418.772 367.71 421.602C367.301 422.412 366.812 423.18 366.251 423.894C364.93 425.831 366.365 433.392 366.219 435.731C366.051 436.877 366.342 438.042 367.029 438.974C367.984 440.038 369.59 440.131 371.019 440.148L373.647 440.18C374.039 440.207 374.434 440.166 374.813 440.06C375.328 439.83 375.782 439.481 376.135 439.04C378.32 436.738 378.794 429.208 381.968 429.235C382.45 429.208 382.929 429.332 383.337 429.59C383.913 430.011 384.082 430.786 384.489 431.371C384.955 431.922 385.586 432.307 386.288 432.471C386.991 432.635 387.727 432.569 388.388 432.282C389.7 431.676 390.84 430.754 391.708 429.6C392.573 428.447 393.621 427.446 394.812 426.635C396.503 425.648 398.415 425.218 400.061 424.104C401.437 423.172 402.22 421.82 403.455 420.79C403.949 420.365 404.569 420.114 405.22 420.078C405.871 420.041 406.515 420.221 407.053 420.589C409.001 421.605 409.086 423.271 409.974 425.041Z" fill="#2F2E41"/>
<path opacity="0.1" d="M363.21 460.701C367.937 460.03 372.754 460.417 377.313 461.834C378.835 462.181 380.21 462.997 381.244 464.166C381.832 465.051 382.214 466.057 382.364 467.11C383.294 471.95 382.697 476.959 380.657 481.446C380.512 481.67 380.415 481.922 380.374 482.187C380.334 482.451 380.35 482.721 380.421 482.979C380.627 483.29 380.895 483.556 381.209 483.759C381.493 484.032 381.716 484.362 381.863 484.728C382.01 485.094 382.078 485.486 382.062 485.88C382.046 486.274 381.947 486.66 381.77 487.013C381.594 487.365 381.345 487.676 381.04 487.926C380.663 488.201 380.167 488.441 380.094 488.902C380.013 489.405 380.486 489.799 380.854 490.152C381.393 490.679 381.79 491.334 382.009 492.056C382.229 492.778 382.263 493.543 382.109 494.281C381.91 494.876 381.774 495.489 381.702 496.111C381.779 496.873 382.003 497.612 382.363 498.287C382.978 499.811 383.188 501.468 382.973 503.097C382.777 503.867 382.758 504.671 382.917 505.45C383.139 505.964 383.44 506.441 383.811 506.862C385.266 508.825 385.585 512.107 383.474 513.337C384.378 513.801 385.114 514.534 385.58 515.436C386.046 516.338 386.219 517.362 386.075 518.367C387.335 517.694 388.863 518.554 389.912 519.523C390.962 520.492 392.034 521.677 393.461 521.749C394.456 521.798 395.504 521.282 396.412 521.692C397.792 522.315 397.745 524.553 399.102 525.224C400.293 525.812 401.951 524.852 402.965 525.709C403.319 526.007 403.498 526.469 403.839 526.781C404.609 527.486 405.812 527.186 406.855 527.145C408.093 527.18 409.299 527.537 410.355 528.182C411.412 528.827 412.281 529.737 412.878 530.821C414.043 533.005 414.746 535.406 414.943 537.874C415.209 539.215 415.183 540.597 414.865 541.927C414.694 542.589 414.332 543.186 413.824 543.643C413.317 544.101 412.686 544.399 412.01 544.5C399.589 545.304 387.332 542.326 375.238 539.381C371.686 538.516 368.073 537.504 365.11 535.361C362.418 533.414 360.439 530.661 358.509 527.958C354.949 522.973 351.367 517.951 348.82 512.381C345.542 505.212 344.08 497.37 342.647 489.618C342.153 487.54 341.978 485.399 342.126 483.268C342.556 480.776 343.509 478.403 344.922 476.306C346.631 473.525 348.521 470.86 350.581 468.328C353.711 464.32 358.206 461.606 363.21 460.701Z" fill="black"/>
<path d="M364.029 459.882C368.756 459.211 373.573 459.598 378.132 461.015C379.654 461.362 381.029 462.178 382.063 463.347C382.651 464.232 383.033 465.238 383.183 466.29C384.113 471.131 383.516 476.14 381.476 480.627C381.33 480.851 381.234 481.103 381.193 481.368C381.153 481.632 381.168 481.902 381.24 482.159C381.446 482.471 381.714 482.737 382.028 482.94C382.312 483.213 382.535 483.543 382.682 483.909C382.829 484.275 382.897 484.667 382.881 485.061C382.865 485.455 382.766 485.841 382.589 486.193C382.413 486.546 382.164 486.857 381.859 487.107C381.482 487.382 380.986 487.622 380.913 488.083C380.832 488.586 381.305 488.98 381.672 489.333C382.212 489.86 382.609 490.515 382.828 491.237C383.048 491.959 383.082 492.724 382.928 493.462C382.729 494.057 382.593 494.67 382.521 495.292C382.597 496.054 382.822 496.793 383.182 497.468C383.797 498.992 384.007 500.649 383.792 502.278C383.596 503.048 383.577 503.852 383.736 504.63C383.958 505.145 384.259 505.622 384.63 506.043C386.084 508.006 386.404 511.288 384.293 512.518C385.196 512.982 385.932 513.715 386.399 514.617C386.865 515.519 387.038 516.543 386.894 517.548C388.154 516.875 389.682 517.735 390.731 518.704C391.781 519.673 392.853 520.858 394.28 520.93C395.275 520.979 396.323 520.463 397.231 520.873C398.611 521.496 398.564 523.734 399.921 524.405C401.112 524.993 402.77 524.033 403.784 524.89C404.137 525.188 404.317 525.65 404.658 525.962C405.428 526.667 406.631 526.367 407.674 526.325C408.912 526.36 410.118 526.718 411.174 527.363C412.231 528.008 413.1 528.918 413.697 530.002C414.862 532.186 415.565 534.587 415.761 537.055C416.028 538.396 416.002 539.778 415.684 541.108C415.513 541.77 415.151 542.367 414.643 542.824C414.136 543.282 413.505 543.579 412.829 543.681C400.408 544.485 388.151 541.506 376.057 538.562C372.505 537.697 368.892 536.684 365.929 534.542C363.237 532.595 361.258 529.842 359.328 527.139C355.768 522.154 352.186 517.131 349.639 511.562C346.361 504.393 344.899 496.551 343.465 488.799C342.972 486.721 342.797 484.58 342.945 482.449C343.375 479.957 344.328 477.584 345.741 475.487C347.45 472.706 349.34 470.041 351.4 467.509C354.53 463.501 359.025 460.786 364.029 459.882Z" fill="#00BFA6"/>
<path d="M578.605 646.983C581.588 644.384 583.4 640.278 582.925 636.281C582.45 632.284 579.507 628.61 575.689 627.761C571.872 626.912 567.52 629.262 566.361 633.107C565.723 625.693 564.988 617.969 561.165 611.655C557.704 605.938 551.71 601.848 545.213 601.116C538.716 600.384 531.876 603.148 527.825 608.436C523.773 613.724 522.781 621.411 525.619 627.482C527.709 631.955 531.56 635.283 535.596 637.991C548.47 646.629 564.44 649.548 579.635 647.242L578.605 646.983Z" fill="#F2F2F2"/>
<path d="M533.13 604.151C538.765 608.609 543.935 613.595 548.565 619.036C553.195 624.472 557.272 630.332 560.737 636.533C562.674 640.011 564.415 643.589 565.95 647.252C566.263 647.997 565.017 648.321 564.708 647.584C561.988 641.127 558.624 634.945 554.662 629.125C550.72 623.327 546.208 617.914 541.19 612.961C538.351 610.162 535.357 607.516 532.219 605.035C531.576 604.527 532.492 603.646 533.13 604.151H533.13Z" fill="white"/>
<path d="M796.599 491H754.401C753.765 490.999 753.154 490.743 752.704 490.286C752.254 489.83 752.001 489.211 752 488.566V483.434C752.001 482.789 752.254 482.17 752.704 481.714C753.154 481.257 753.765 481.001 754.401 481H796.599C797.235 481.001 797.846 481.257 798.296 481.714C798.746 482.17 798.999 482.789 799 483.434V488.566C798.999 489.211 798.746 489.83 798.296 490.286C797.846 490.743 797.235 490.999 796.599 491V491Z" fill="#00BFA6"/>
<rect x="639" y="490" width="146" height="111" rx="5" fill="white"/>
<path d="M779.255 601H644.745C643.222 600.998 641.762 600.397 640.685 599.328C639.608 598.26 639.002 596.811 639 595.299V495.701C639.002 494.189 639.608 492.74 640.685 491.672C641.762 490.603 643.222 490.002 644.745 490H779.255C780.778 490.002 782.238 490.603 783.315 491.672C784.392 492.74 784.998 494.189 785 495.701V595.299C784.998 596.811 784.392 598.26 783.315 599.328C782.238 600.397 780.778 600.998 779.255 601ZM644.745 490.671C643.401 490.672 642.113 491.203 641.162 492.146C640.212 493.089 639.677 494.367 639.676 495.701V595.299C639.677 596.633 640.212 597.911 641.162 598.854C642.113 599.797 643.401 600.328 644.745 600.329H779.255C780.599 600.328 781.887 599.797 782.838 598.854C783.788 597.911 784.323 596.633 784.324 595.299V495.701C784.323 494.367 783.788 493.089 782.838 492.146C781.887 491.203 780.599 490.672 779.255 490.671H644.745Z" fill="#3F3D56"/>
<path d="M790.282 483.177L772.718 466.587C772.34 466.229 771.853 466.022 771.344 466.002C770.835 465.981 770.335 466.149 769.932 466.475L731.494 479.77C730.946 479.96 730.493 480.371 730.233 480.911C729.973 481.451 729.929 482.077 730.109 482.652L731.659 487.571C731.749 487.855 731.891 488.119 732.077 488.346C732.264 488.573 732.492 488.76 732.747 488.894C733.003 489.029 733.281 489.11 733.567 489.132C733.852 489.153 734.139 489.116 734.41 489.022L769.669 476.825L784.054 490.413C784.452 490.791 784.971 491.001 785.509 491C785.548 491 785.586 490.999 785.625 490.997C785.91 490.982 786.191 490.908 786.449 490.779C786.707 490.651 786.939 490.469 787.13 490.246L790.441 486.399C790.827 485.949 791.027 485.358 790.997 484.754C790.967 484.15 790.71 483.583 790.282 483.177V483.177Z" fill="#00BFA6"/>
<path d="M594.466 602C593.812 602.001 593.186 602.216 592.723 602.599C592.261 602.983 592.001 603.502 592 604.044V645.956C592.001 646.498 592.261 647.017 592.723 647.401C593.186 647.784 593.812 647.999 594.466 648H600.534C601.188 647.999 601.814 647.784 602.277 647.401C602.739 647.017 602.999 646.498 603 645.956V604.044C602.999 603.502 602.739 602.983 602.277 602.599C601.814 602.216 601.188 602.001 600.534 602H594.466Z" fill="#00BFA6"/>
<path d="M610.566 648H605.434C604.789 647.999 604.17 647.751 603.714 647.311C603.257 646.87 603.001 646.273 603 645.65V604.35C603.001 603.727 603.257 603.13 603.714 602.689C604.17 602.249 604.789 602.001 605.434 602H610.566C611.211 602.001 611.83 602.249 612.286 602.689C612.743 603.13 612.999 603.727 613 604.35V645.65C612.999 646.273 612.743 646.87 612.286 647.311C611.83 647.751 611.211 647.999 610.566 648V648Z" fill="#00BFA6"/>
<path d="M618.949 607.317C618.949 607.317 620.819 624.571 601.94 623.985C583.062 623.399 590.407 606.445 590.407 606.445C590.407 606.445 594.352 603.264 604.325 606.341C614.297 609.418 618.949 607.317 618.949 607.317Z" fill="#CCCCCC"/>
<path d="M609.963 578C608.898 578.002 607.86 577.665 607.004 577.04C606.148 576.415 605.519 575.535 605.211 574.531C604.903 573.526 604.933 572.451 605.295 571.464C605.657 570.477 606.332 569.631 607.221 569.052L640.45 547.395C640.715 547.222 641.011 547.103 641.321 547.044C641.632 546.984 641.952 546.985 642.263 547.048C642.573 547.11 642.868 547.232 643.131 547.406C643.393 547.581 643.618 547.804 643.793 548.065L646.6 552.241C646.953 552.767 647.079 553.409 646.951 554.026C646.824 554.643 646.453 555.185 645.92 555.533L612.691 577.191C611.882 577.719 610.933 578.001 609.963 578V578Z" fill="#00BFA6"/>
<path d="M604.5 558C614.165 558 622 550.389 622 541C622 531.611 614.165 524 604.5 524C594.835 524 587 531.611 587 541C587 550.389 594.835 558 604.5 558Z" fill="#00BFA6"/>
<path d="M605.016 549C605.97 548.968 607.158 548.927 608.073 548.111C608.345 547.858 608.569 547.535 608.729 547.166C608.888 546.796 608.979 546.388 608.996 545.971C609.013 545.674 608.973 545.377 608.88 545.102C608.787 544.827 608.643 544.583 608.459 544.387C607.982 543.894 607.284 543.778 606.532 544.048L607.311 537.096L606.739 537L605.823 545.174L606.301 544.906C606.854 544.596 607.614 544.438 608.087 544.925C608.203 545.053 608.293 545.211 608.351 545.388C608.409 545.565 608.432 545.756 608.419 545.946C608.405 546.257 608.337 546.56 608.218 546.835C608.1 547.111 607.934 547.352 607.732 547.542C607.02 548.177 606.074 548.259 605 548.295L605.016 549Z" fill="#2F2E41"/>
<path d="M614 537H610V539H614V537Z" fill="#2F2E41"/>
<path d="M603 537H599V539H603V537Z" fill="#2F2E41"/>
<path d="M587.024 610.974C587.024 610.974 585.505 559.651 606.767 563.173C628.029 566.695 619.17 616.257 619.17 616.257C619.17 616.257 614.613 625.314 603.476 615.251C592.339 605.187 587.024 610.974 587.024 610.974Z" fill="#2F2E41"/>
<path d="M595.803 526.943C599.189 524.72 603.463 526.23 606.753 527.817C609.948 529.357 613.549 531.318 617.164 529.834C618.576 529.254 619.724 528.12 619.923 526.603C620.161 524.796 619.031 523.105 617.774 521.876C616.408 520.612 614.817 519.598 613.077 518.882C611.372 518.14 609.575 517.612 607.731 517.31C604.078 516.7 600.327 516.942 596.791 518.018C593.254 519.093 590.035 520.969 587.4 523.491C584.852 526.005 582.882 529.012 581.622 532.315C580.362 535.618 579.84 539.141 580.089 542.653C580.377 546.397 581.613 550.214 584.094 553.153C586.421 555.91 589.906 557.849 593.625 558.011C594.537 558.052 595.45 557.98 596.342 557.797C596.985 557.665 597.259 558.619 596.614 558.752C592.741 559.551 588.728 558.364 585.655 556.027C582.421 553.567 580.437 549.842 579.566 546.005C577.901 538.661 579.987 530.758 584.767 524.879C587.128 521.951 590.185 519.618 593.679 518.079C597.288 516.521 601.23 515.821 605.176 516.039C609.111 516.23 612.928 517.4 616.258 519.435C619.238 521.296 622.595 525.243 620.165 528.735C619.257 530.041 617.749 530.836 616.183 531.163C614.386 531.501 612.527 531.345 610.817 530.711C606.925 529.382 603.325 526.412 598.969 526.862C598.019 526.958 597.109 527.279 596.319 527.798C595.773 528.156 595.26 527.299 595.803 526.943H595.803Z" fill="#2F2E41"/>
<path d="M741.174 448.239C740.387 447.727 739.767 446.991 739.393 446.123C739.02 445.255 738.909 444.294 739.075 443.362C739.241 442.43 739.677 441.569 740.326 440.888C740.976 440.206 741.811 439.735 742.725 439.534L781.243 431.051C781.817 430.925 782.417 431.035 782.911 431.356C783.405 431.677 783.754 432.184 783.879 432.764L783.713 432.801L783.879 432.764L784.949 437.738C785.011 438.026 785.016 438.323 784.965 438.613C784.913 438.903 784.806 439.179 784.648 439.427C784.491 439.675 784.287 439.889 784.048 440.057C783.809 440.225 783.54 440.343 783.255 440.406L744.738 448.889C744.571 448.926 744.402 448.953 744.232 448.972C743.16 449.09 742.08 448.831 741.174 448.239Z" fill="#00BFA6"/>
<path d="M738.151 445.513C738.127 445.419 738.106 445.324 738.087 445.229C737.76 443.519 738.358 441.718 739.77 440.159C741.303 438.539 743.306 437.432 745.5 436.991L763.638 433.052C763.936 432.988 764.245 432.983 764.546 433.038C764.847 433.094 765.133 433.209 765.388 433.376C765.644 433.544 765.863 433.76 766.032 434.013C766.202 434.266 766.318 434.549 766.375 434.848L767.958 443.121C768.072 443.702 767.952 444.305 767.623 444.799C767.294 445.293 766.782 445.64 766.199 445.763L747.946 449.726C747.123 449.907 746.283 449.998 745.44 450C741.845 450 738.851 448.262 738.151 445.513Z" fill="#2F2E41"/>
<path d="M742 427C751.389 427 759 419.389 759 410C759 400.611 751.389 393 742 393C732.611 393 725 400.611 725 410C725 419.389 732.611 427 742 427Z" fill="#00BFA6"/>
<path d="M756.02 417C757.213 416.97 758.697 416.933 759.841 416.185C760.181 415.953 760.461 415.658 760.661 415.319C760.86 414.98 760.974 414.606 760.995 414.223C761.016 413.951 760.966 413.679 760.85 413.427C760.733 413.175 760.554 412.951 760.324 412.771C759.727 412.319 758.855 412.213 757.915 412.461L758.889 406.088L758.174 406L757.029 413.492L757.626 413.247C758.318 412.963 759.268 412.818 759.858 413.265C760.003 413.382 760.116 413.527 760.188 413.689C760.261 413.851 760.29 414.026 760.274 414.2C760.257 414.485 760.171 414.763 760.023 415.016C759.875 415.268 759.667 415.489 759.415 415.663C758.525 416.245 757.342 416.321 756 416.354L756.02 417Z" fill="#2F2E41"/>
<path d="M755 406H751V407H755V406Z" fill="#2F2E41"/>
<path d="M740.98 393.211C740.853 391.168 740.287 389.177 739.321 387.371C738.355 385.565 737.011 383.988 735.381 382.746C733.696 381.501 731.752 380.651 729.693 380.26C727.635 379.868 725.514 379.944 723.488 380.483C721.476 381.004 719.609 381.975 718.027 383.321C716.446 384.668 715.191 386.355 714.358 388.255C713.52 390.142 713.101 392.187 713.132 394.25C713.224 396.494 713.783 398.694 714.773 400.711C715.794 402.931 717.082 405.014 718.201 407.185C719.303 409.325 720.253 411.539 721.046 413.811C722.659 418.441 723.61 423.275 723.872 428.17C724.288 435.885 723.548 447.15 714.818 450.111C712.598 450.864 710.202 451.004 707.875 450.998C705.423 451.028 702.978 450.742 700.6 450.148C696.478 449.05 692.565 446.471 690.809 442.466C690.404 441.54 690.133 440.563 690.003 439.562C689.967 439.287 690.263 439.056 690.513 439.054C690.647 439.057 690.774 439.111 690.869 439.206C690.964 439.301 691.019 439.428 691.022 439.562C691.591 443.831 695.156 447.104 699.027 448.576C701.289 449.394 703.665 449.852 706.07 449.935C708.463 450.056 710.948 450.037 713.291 449.488C715.377 449.037 717.275 447.961 718.73 446.403C720.027 444.913 720.995 443.167 721.569 441.279C722.947 437.082 723.092 432.468 722.849 428.094C722.575 423.216 721.604 418.401 719.963 413.797C719.135 411.473 718.135 409.212 716.973 407.035C715.838 404.905 714.577 402.835 713.621 400.614C712.687 398.574 712.174 396.367 712.111 394.124C712.104 392.054 712.517 390.003 713.326 388.095C714.121 386.18 715.313 384.455 716.824 383.032C718.335 381.61 720.13 380.522 722.092 379.841C724.088 379.148 726.208 378.878 728.314 379.05C730.421 379.223 732.468 379.832 734.324 380.84C736.09 381.853 737.638 383.205 738.877 384.818C740.116 386.431 741.022 388.273 741.543 390.238C741.797 391.211 741.95 392.207 741.999 393.211C742.033 393.865 741.014 393.863 740.98 393.211H740.98Z" fill="#2F2E41"/>
<path d="M736.975 393.635C736.687 391.767 735.705 390.059 734.209 388.822C732.619 387.55 730.58 386.904 728.509 387.016C727.83 387.049 727.831 386.041 728.509 386.009C730.76 385.912 732.971 386.608 734.719 387.965C736.468 389.322 737.633 391.244 737.993 393.367C738.094 394.002 737.077 394.275 736.975 393.635V393.635Z" fill="#2F2E41"/>
<path d="M736.077 392.798C735.95 392.357 735.981 391.876 736.163 391.461C736.345 391.046 736.663 390.731 737.047 390.586L740.997 389.088C741.381 388.943 741.8 388.978 742.161 389.187C742.522 389.396 742.796 389.761 742.923 390.202C743.05 390.643 743.019 391.124 742.837 391.539C742.655 391.954 742.337 392.268 741.953 392.414L738.003 393.912C737.813 393.984 737.612 394.012 737.413 393.995C737.213 393.978 737.018 393.916 736.839 393.813C736.66 393.71 736.501 393.567 736.37 393.392C736.239 393.218 736.14 393.016 736.077 392.798V392.798Z" fill="#2F2E41"/>
<path d="M772.341 416.983C772.03 417.048 771.744 417.2 771.516 417.42C771.287 417.64 771.126 417.92 771.049 418.227C770.973 418.534 770.985 418.857 771.084 419.158C771.184 419.459 771.366 419.726 771.61 419.928L779.043 426.085C779.152 426.177 779.242 426.289 779.308 426.415C779.369 426.542 779.403 426.68 779.409 426.821L779.873 438.113C779.881 438.482 780.014 438.838 780.25 439.124C780.486 439.409 780.811 439.607 781.173 439.685L781.186 439.688C781.544 439.775 781.92 439.741 782.256 439.59C782.592 439.439 782.867 439.18 783.039 438.855L785.72 433.98C785.81 433.82 785.942 433.687 786.102 433.595C786.262 433.504 786.443 433.457 786.628 433.461C786.763 433.462 786.897 433.49 787.021 433.545C787.145 433.6 787.257 433.68 787.348 433.78L800.215 447.467C800.4 447.666 800.632 447.817 800.889 447.906C801.146 447.996 801.421 448.022 801.69 447.982C801.959 447.942 802.214 447.838 802.434 447.68C802.654 447.521 802.833 447.312 802.955 447.07L821.82 409.44C821.963 409.156 822.023 408.839 821.992 408.523C821.962 408.208 821.843 407.907 821.649 407.656C821.454 407.405 821.193 407.213 820.895 407.104C820.597 406.994 820.273 406.971 819.962 407.036L819.351 407.164L772.341 416.983L772.341 416.983ZM772.04 419.411C771.893 419.289 771.784 419.129 771.725 418.948C771.666 418.767 771.659 418.573 771.705 418.389C771.751 418.205 771.848 418.037 771.986 417.905C772.123 417.773 772.295 417.682 772.481 417.643L819.477 407.827L820.102 407.696C820.289 407.658 820.482 407.673 820.66 407.739C820.839 407.805 820.995 407.919 821.111 408.07C821.227 408.22 821.299 408.399 821.318 408.588C821.337 408.777 821.302 408.967 821.218 409.137L802.352 446.768C802.279 446.913 802.171 447.039 802.039 447.134C801.907 447.229 801.753 447.291 801.592 447.314C801.431 447.338 801.266 447.322 801.112 447.268C800.958 447.214 800.819 447.125 800.708 447.006L787.841 433.319C787.716 433.182 787.567 433.067 787.402 432.981L820.095 409.335C820.224 409.244 820.317 409.111 820.357 408.959C820.398 408.807 820.384 408.646 820.318 408.503C820.252 408.36 820.138 408.245 819.996 408.177C819.853 408.109 819.692 408.093 819.539 408.132C819.502 408.14 819.465 408.153 819.43 408.169L779.734 425.835C779.658 425.736 779.57 425.647 779.473 425.568L772.04 419.411V419.411Z" fill="#CCCCCC"/>
<path d="M729.907 479C729.401 479.001 728.917 479.225 728.559 479.624C728.202 480.023 728.001 480.565 728 481.129V488.871C728.001 489.435 728.202 489.977 728.559 490.376C728.917 490.775 729.401 490.999 729.907 491H752.093C752.599 490.999 753.083 490.775 753.441 490.376C753.798 489.977 753.999 489.435 754 488.871V481.129C753.999 480.565 753.798 480.023 753.441 479.624C753.083 479.225 752.599 479.001 752.093 479H729.907Z" fill="#2F2E41"/>
<path d="M728.21 445.447C727.14 448.38 726.94 451.534 727.633 454.566C729.415 462.823 728.751 472.583 727 483.013C727 484.111 727.808 485 728.806 485H756.194C757.192 485 758 484.11 758 483.013V452.053C758 442.904 751.421 435.417 743.192 435.02C742.963 435.007 742.732 435 742.5 435C736.08 435 730.56 439.315 728.21 445.447Z" fill="#2F2E41"/>
<path d="M737 485.802V446.694C737 445.449 737.474 444.255 738.318 443.375C739.162 442.495 740.307 442 741.5 442C742.693 442 743.838 442.495 744.682 443.375C745.526 444.255 746 445.449 746 446.694V485.802C745.999 486.385 745.777 486.943 745.382 487.355C744.987 487.768 744.451 487.999 743.893 488H739.107C738.549 487.999 738.013 487.768 737.618 487.355C737.223 486.943 737.001 486.385 737 485.802V485.802Z" fill="#00BFA6"/>
<path d="M744.435 458.998L737.927 458.676C737.393 458.649 736.891 458.386 736.53 457.943C736.169 457.501 735.979 456.916 736.002 456.317L736.459 444.67C736.488 443.892 736.653 443.129 736.945 442.423C737.238 441.718 737.651 441.084 738.162 440.557C738.673 440.031 739.271 439.623 739.923 439.357C740.574 439.091 741.266 438.972 741.959 439.006C742.652 439.04 743.332 439.227 743.96 439.557C744.588 439.886 745.152 440.351 745.62 440.926C746.088 441.5 746.45 442.173 746.686 442.904C746.922 443.636 747.026 444.413 746.994 445.19L746.537 456.837C746.515 457.419 746.293 457.969 745.918 458.371C745.543 458.774 745.044 458.999 744.526 459C744.495 459 744.465 458.999 744.435 458.998Z" fill="#2F2E41"/>
<path d="M757 465C758.105 465 759 462.985 759 460.5C759 458.015 758.105 456 757 456C755.895 456 755 458.015 755 460.5C755 462.985 755.895 465 757 465Z" fill="#2F2E41"/>
<path d="M674 521C678.971 521 683 517.194 683 512.5C683 507.806 678.971 504 674 504C669.029 504 665 507.806 665 512.5C665 517.194 669.029 521 674 521Z" fill="#CCCCCC"/>
<path d="M757.269 521H691.731C691.007 521 690.312 520.737 689.8 520.268C689.288 519.799 689 519.163 689 518.5C689 517.837 689.288 517.201 689.8 516.732C690.312 516.263 691.007 516 691.731 516H757.269C757.993 516 758.688 516.263 759.2 516.732C759.712 517.201 760 517.837 760 518.5C760 519.163 759.712 519.799 759.2 520.268C758.688 520.737 757.993 521 757.269 521Z" fill="#CCCCCC"/>
<path d="M739.282 510H691.718C690.997 510 690.306 509.684 689.796 509.121C689.286 508.559 689 507.796 689 507C689 506.204 689.286 505.441 689.796 504.879C690.306 504.316 690.997 504 691.718 504H739.282C740.003 504 740.694 504.316 741.204 504.879C741.714 505.441 742 506.204 742 507C742 507.796 741.714 508.559 741.204 509.121C740.694 509.684 740.003 510 739.282 510Z" fill="#CCCCCC"/>
<path d="M674 554C678.971 554 683 549.971 683 545C683 540.029 678.971 536 674 536C669.029 536 665 540.029 665 545C665 549.971 669.029 554 674 554Z" fill="#CCCCCC"/>
<path d="M757.269 554H691.731C691.007 554 690.312 553.631 689.8 552.975C689.288 552.318 689 551.428 689 550.5C689 549.572 689.288 548.682 689.8 548.025C690.312 547.369 691.007 547 691.731 547H757.269C757.993 547 758.688 547.369 759.2 548.025C759.712 548.682 760 549.572 760 550.5C760 551.428 759.712 552.318 759.2 552.975C758.688 553.631 757.993 554 757.269 554Z" fill="#CCCCCC"/>
<path d="M739.282 543H691.718C690.997 543 690.306 542.631 689.796 541.975C689.286 541.318 689 540.428 689 539.5C689 538.572 689.286 537.682 689.796 537.025C690.306 536.369 690.997 536 691.718 536H739.282C740.003 536 740.694 536.369 741.204 537.025C741.714 537.682 742 538.572 742 539.5C742 540.428 741.714 541.318 741.204 541.975C740.694 542.631 740.003 543 739.282 543Z" fill="#CCCCCC"/>
<path d="M674 586C678.971 586 683 582.194 683 577.5C683 572.806 678.971 569 674 569C669.029 569 665 572.806 665 577.5C665 582.194 669.029 586 674 586Z" fill="#CCCCCC"/>
<path d="M757.269 586H691.731C691.007 586 690.312 585.737 689.8 585.268C689.288 584.799 689 584.163 689 583.5C689 582.837 689.288 582.201 689.8 581.732C690.312 581.263 691.007 581 691.731 581H757.269C757.993 581 758.688 581.263 759.2 581.732C759.712 582.201 760 582.837 760 583.5C760 584.163 759.712 584.799 759.2 585.268C758.688 585.737 757.993 586 757.269 586Z" fill="#CCCCCC"/>
<path d="M739.282 574H691.718C690.997 574 690.306 573.737 689.796 573.268C689.286 572.799 689 572.163 689 571.5C689 570.837 689.286 570.201 689.796 569.732C690.306 569.263 690.997 569 691.718 569H739.282C740.003 569 740.694 569.263 741.204 569.732C741.714 570.201 742 570.837 742 571.5C742 572.163 741.714 572.799 741.204 573.268C740.694 573.737 740.003 574 739.282 574Z" fill="#CCCCCC"/>
<path d="M642 510C652.493 510 661 501.717 661 491.5C661 481.283 652.493 473 642 473C631.507 473 623 481.283 623 491.5C623 501.717 631.507 510 642 510Z" fill="#00BFA6"/>
<path d="M639.263 498C638.848 498.001 638.444 497.867 638.112 497.618L638.091 497.603L633.755 494.291C633.554 494.137 633.385 493.946 633.259 493.727C633.132 493.509 633.05 493.268 633.017 493.017C632.983 492.767 633 492.513 633.065 492.269C633.131 492.025 633.243 491.797 633.397 491.596C633.551 491.396 633.743 491.228 633.962 491.101C634.181 490.975 634.423 490.893 634.674 490.86C634.925 490.827 635.179 490.843 635.424 490.908C635.668 490.974 635.897 491.086 636.098 491.24L638.907 493.388L645.544 484.752C645.698 484.552 645.89 484.384 646.109 484.258C646.328 484.132 646.57 484.05 646.821 484.017C647.072 483.983 647.327 484 647.571 484.065C647.816 484.131 648.045 484.243 648.246 484.397L648.204 484.453L648.247 484.398C648.652 484.708 648.917 485.166 648.983 485.671C649.05 486.177 648.913 486.688 648.603 487.092L640.796 497.25C640.615 497.484 640.383 497.673 640.117 497.803C639.852 497.934 639.559 498.001 639.263 498V498Z" fill="white"/>
<path d="M641.68 605C641.354 605 641.032 604.928 640.735 604.789H640.735L605.814 588.478C605.244 588.212 604.729 587.831 604.3 587.358C603.87 586.885 603.535 586.328 603.312 585.72C603.089 585.111 602.984 584.463 603.002 583.813C603.02 583.162 603.161 582.521 603.417 581.927C603.673 581.333 604.039 580.797 604.494 580.351C604.948 579.904 605.483 579.555 606.068 579.324C606.652 579.092 607.275 578.983 607.9 579.002C608.525 579.021 609.14 579.169 609.711 579.436L644.631 595.746C644.909 595.876 645.159 596.061 645.368 596.291C645.577 596.522 645.74 596.793 645.848 597.089C645.957 597.385 646.008 597.7 645.999 598.017C645.99 598.333 645.922 598.645 645.797 598.934L643.798 603.575C643.614 604 643.316 604.36 642.941 604.613C642.565 604.865 642.127 605 641.68 605V605Z" fill="#00BFA6"/>
<path d="M648.663 648H520.337C520.247 648 520.162 647.947 520.099 647.854C520.035 647.76 520 647.633 520 647.5C520 647.367 520.035 647.24 520.099 647.146C520.162 647.053 520.247 647 520.337 647H648.663C648.753 647 648.838 647.053 648.901 647.146C648.965 647.24 649 647.367 649 647.5C649 647.633 648.965 647.76 648.901 647.854C648.838 647.947 648.753 648 648.663 648Z" fill="#3F3D56"/>
<path d="M320.097 428.002C342.38 370.191 330.057 311.612 292.571 297.163C255.086 282.713 206.633 317.865 184.349 375.677C162.065 433.488 174.388 492.067 211.874 506.516C249.36 520.965 297.813 485.813 320.097 428.002Z" fill="#00BFA6"/>
<path d="M208.888 590C208.658 590 208.435 589.915 208.261 589.762C208.086 589.609 207.973 589.397 207.94 589.166C207.899 588.876 203.909 559.731 207.493 520.997C210.803 485.225 221.433 433.7 253.277 391.384C253.353 391.282 253.448 391.197 253.557 391.133C253.666 391.068 253.787 391.026 253.912 391.009C254.037 390.992 254.164 391 254.286 391.032C254.408 391.065 254.522 391.121 254.622 391.199C254.723 391.276 254.807 391.373 254.87 391.483C254.934 391.594 254.975 391.716 254.992 391.842C255.008 391.969 255 392.097 254.968 392.221C254.935 392.344 254.879 392.46 254.803 392.561C223.234 434.512 212.689 485.659 209.403 521.178C205.839 559.687 209.799 588.604 209.839 588.892C209.858 589.03 209.848 589.17 209.809 589.304C209.77 589.437 209.703 589.561 209.613 589.666C209.523 589.771 209.412 589.855 209.287 589.913C209.162 589.97 209.026 590 208.888 590V590Z" fill="#3F3D56"/>
<path d="M224.97 447C224.765 447 224.565 446.936 224.4 446.816C224.234 446.697 224.111 446.528 224.048 446.334C223.984 446.14 223.984 445.932 224.047 445.738C224.111 445.544 224.234 445.376 224.399 445.256C224.516 445.171 236.283 436.732 253.875 430.321C270.137 424.395 294.867 419.022 320.325 427.087C320.57 427.165 320.774 427.336 320.892 427.563C321.01 427.79 321.032 428.055 320.954 428.298C320.876 428.542 320.705 428.745 320.476 428.862C320.248 428.98 319.982 429.002 319.738 428.925C294.801 421.025 270.52 426.309 254.541 432.132C237.2 438.451 225.653 446.733 225.538 446.816C225.373 446.936 225.174 447 224.97 447V447Z" fill="#3F3D56"/>
<path d="M772.341 416.983C772.03 417.048 771.744 417.2 771.516 417.42C771.287 417.64 771.126 417.92 771.049 418.227C770.973 418.534 770.985 418.857 771.084 419.158C771.184 419.459 771.366 419.726 771.61 419.928L779.043 426.085C779.152 426.177 779.242 426.289 779.308 426.415C779.369 426.542 779.403 426.68 779.409 426.821L779.873 438.113C779.881 438.482 780.014 438.838 780.25 439.124C780.486 439.409 780.811 439.607 781.173 439.685L781.186 439.688C781.544 439.775 781.92 439.741 782.256 439.59C782.592 439.439 782.867 439.18 783.039 438.855L785.72 433.98C785.81 433.82 785.942 433.687 786.102 433.595C786.262 433.504 786.443 433.457 786.628 433.461C786.763 433.462 786.897 433.49 787.021 433.545C787.145 433.6 787.257 433.68 787.348 433.78L800.215 447.467C800.4 447.666 800.632 447.817 800.889 447.906C801.146 447.996 801.421 448.022 801.69 447.982C801.959 447.942 802.214 447.838 802.434 447.68C802.654 447.521 802.833 447.312 802.955 447.07L821.82 409.44C821.963 409.156 822.023 408.839 821.992 408.523C821.962 408.208 821.843 407.907 821.649 407.656C821.454 407.405 821.193 407.213 820.895 407.104C820.597 406.994 820.273 406.971 819.962 407.036L819.351 407.164L772.341 416.983L772.341 416.983ZM772.04 419.411C771.893 419.289 771.784 419.129 771.725 418.948C771.666 418.767 771.659 418.573 771.705 418.389C771.751 418.205 771.848 418.037 771.986 417.905C772.123 417.773 772.295 417.682 772.481 417.643L819.477 407.827L820.102 407.696C820.289 407.658 820.482 407.673 820.66 407.739C820.839 407.805 820.995 407.919 821.111 408.07C821.227 408.22 821.299 408.399 821.318 408.588C821.337 408.777 821.302 408.967 821.218 409.137L802.352 446.768C802.279 446.913 802.171 447.039 802.039 447.134C801.907 447.229 801.753 447.291 801.592 447.314C801.431 447.338 801.266 447.322 801.112 447.268C800.958 447.214 800.819 447.125 800.708 447.006L787.841 433.319C787.716 433.182 787.567 433.067 787.402 432.981C787.167 432.855 786.904 432.788 786.636 432.786C786.599 432.785 786.56 432.786 786.522 432.788L786.518 432.787C786.232 432.802 785.954 432.89 785.71 433.042C785.467 433.194 785.267 433.405 785.129 433.656L782.447 438.534C782.344 438.73 782.179 438.886 781.976 438.976C781.774 439.066 781.547 439.085 781.333 439.031L781.326 439.029C781.108 438.984 780.912 438.865 780.771 438.694C780.629 438.523 780.55 438.308 780.547 438.086L780.083 426.794C780.08 426.675 780.063 426.556 780.032 426.441L780.033 426.437C780.004 426.327 779.964 426.219 779.912 426.117C779.863 426.017 779.804 425.922 779.734 425.835C779.658 425.736 779.57 425.647 779.473 425.568L772.04 419.411V419.411Z" fill="white"/>
</g>
<defs>
<clipPath id="clip0_788_365">
<rect width="1088" height="687.962" fill="white"/>
</clipPath>
</defs>
</svg>
