<svg width="395" height="307" viewBox="0 0 395 307" fill="none" xmlns="http://www.w3.org/2000/svg">
<g clip-path="url(#clip0_137_959)">
<path d="M224.915 150.114C233.803 150.114 241.009 142.903 241.009 134.008C241.009 125.113 233.803 117.902 224.915 117.902C216.027 117.902 208.821 125.113 208.821 134.008C208.821 142.903 216.027 150.114 224.915 150.114Z" fill="#E6E6E6"/>
<path d="M264.357 154.705L247.539 137.874C248.828 135.867 249.702 133.622 250.108 131.271C250.514 128.92 250.445 126.512 249.904 124.188C249.363 121.865 248.362 119.674 246.959 117.744C245.557 115.815 243.782 114.188 241.739 112.958C237.893 110.658 233.324 109.888 228.938 110.8C224.551 111.712 220.667 114.239 218.054 117.882C215.649 121.255 214.494 125.362 214.788 129.496C215.081 133.629 216.804 137.531 219.661 140.531C222.517 143.531 226.329 145.441 230.441 145.933C234.552 146.426 238.706 145.469 242.189 143.228L259.008 160.059C259.717 160.768 260.679 161.167 261.682 161.166C262.685 161.166 263.647 160.767 264.356 160.057C265.065 159.348 265.464 158.385 265.464 157.381C265.464 156.378 265.066 155.415 264.357 154.705V154.705ZM241.561 137.245C239.477 139.331 236.735 140.629 233.803 140.918C230.87 141.207 227.927 140.47 225.477 138.831C223.026 137.192 221.22 134.754 220.364 131.932C219.509 129.11 219.657 126.078 220.785 123.353C221.913 120.628 223.95 118.379 226.549 116.988C229.148 115.598 232.148 115.153 235.039 115.728C237.929 116.303 240.531 117.864 242.401 120.144C244.27 122.424 245.292 125.282 245.292 128.231C245.294 129.906 244.966 131.564 244.326 133.111C243.685 134.658 242.746 136.063 241.561 137.245V137.245Z" fill="#3F3D56"/>
<path d="M386.27 179.532C429.28 227.133 304.6 295.734 203.856 295.734C103.112 295.734 33.4124 242.581 21.4423 179.532C-7.58105 26.6593 268.729 -70.5055 203.856 63.3292C109.297 258.409 352.398 142.044 386.27 179.532Z" fill="#E6E6E6"/>
<path d="M366.972 190.798C409.982 238.399 285.302 307 184.558 307C83.8138 307 14.1145 253.846 2.14436 190.798C-26.879 37.9252 249.431 -59.2396 184.558 74.5951C89.999 269.675 333.1 153.31 366.972 190.798Z" fill="#3F3D56"/>
<path d="M60.1429 79.1929C29.9627 77.863 6.5624 71.3479 6.86982 64.3605C7.05413 60.1713 15.5954 56.8026 30.3035 55.1186C30.3561 55.1123 30.4095 55.1164 30.4605 55.1307C30.5116 55.1451 30.5593 55.1694 30.6009 55.2022C30.6425 55.2351 30.6773 55.2759 30.7031 55.3223C30.7289 55.3686 30.7452 55.4196 30.7513 55.4724C30.7573 55.5251 30.7528 55.5785 30.7382 55.6295C30.7235 55.6804 30.6989 55.728 30.6657 55.7695C30.6326 55.8109 30.5916 55.8454 30.5451 55.8709C30.4986 55.8964 30.4476 55.9124 30.3948 55.9181C16.5398 57.5046 7.83339 60.7531 7.67311 64.3959C7.39511 70.7146 31.4395 77.1226 60.1783 78.389C88.917 79.6553 113.431 75.387 113.709 69.0683C113.87 65.4102 105.428 61.3972 91.6782 58.5957C91.6263 58.5853 91.577 58.5648 91.5331 58.5352C91.4892 58.5057 91.4516 58.4678 91.4223 58.4237C91.393 58.3796 91.3728 58.3302 91.3627 58.2782C91.3525 58.2262 91.3528 58.1728 91.3633 58.1209C91.3739 58.069 91.3945 58.0198 91.4242 57.9759C91.4538 57.932 91.4918 57.8944 91.5359 57.8653C91.5801 57.8362 91.6295 57.816 91.6815 57.806C91.7335 57.7961 91.7869 57.7964 91.8387 57.8071C106.433 60.7808 114.697 64.8982 114.512 69.1037C114.205 76.0911 90.3231 80.5228 60.1429 79.1929Z" fill="#00BFA6"/>
<path d="M33.3384 80.3632C35.8631 85.1631 39.6031 89.2153 44.1842 92.1143C48.7653 95.0134 54.0268 96.6576 59.4422 96.8826C64.8577 97.1075 70.2372 95.9053 75.0426 93.3961C79.848 90.8869 83.9107 87.1589 86.8242 82.5849C68.9684 82.8257 51.1128 82.084 33.3384 80.3632V80.3632Z" fill="#00BFA6"/>
<path d="M90.1628 74.1214C91.6822 69.5603 92.1201 64.7078 91.4416 59.9481C90.7631 55.1883 88.987 50.6519 86.2538 46.6979C83.5205 42.7439 79.9052 39.4809 75.6939 37.167C71.4827 34.8531 66.7911 33.5519 61.9904 33.3663C57.1898 33.1808 52.4119 34.116 48.0349 36.098C43.6578 38.08 39.8018 41.0543 36.7721 44.7856C33.7423 48.5169 31.6218 52.9027 30.5786 57.5959C29.5354 62.2891 29.598 67.1609 30.7615 71.8257C50.3794 75.1586 70.3465 75.9303 90.1628 74.1214V74.1214Z" fill="#00BFA6"/>
<path d="M67.878 53.3521C69.8764 53.3521 71.4964 51.7308 71.4964 49.7309C71.4964 47.731 69.8764 46.1097 67.878 46.1097C65.8796 46.1097 64.2596 47.731 64.2596 49.7309C64.2596 51.7308 65.8796 53.3521 67.878 53.3521Z" fill="white"/>
<path d="M49.2555 67.4307C52.5861 67.4307 55.2861 64.7286 55.2861 61.3954C55.2861 58.0622 52.5861 55.3601 49.2555 55.3601C45.9249 55.3601 43.2249 58.0622 43.2249 61.3954C43.2249 64.7286 45.9249 67.4307 49.2555 67.4307Z" fill="white"/>
<path d="M140.274 61.5188C142.494 61.5188 144.294 59.7174 144.294 57.4953C144.294 55.2733 142.494 53.4719 140.274 53.4719C138.054 53.4719 136.254 55.2733 136.254 57.4953C136.254 59.7174 138.054 61.5188 140.274 61.5188Z" fill="#00BFA6"/>
<path d="M49.4128 184.638C50.745 184.638 51.825 183.558 51.825 182.224C51.825 180.891 50.745 179.81 49.4128 179.81C48.0805 179.81 47.0005 180.891 47.0005 182.224C47.0005 183.558 48.0805 184.638 49.4128 184.638Z" fill="#E6E6E6"/>
<path d="M218.27 267.523C219.602 267.523 220.682 266.442 220.682 265.109C220.682 263.775 219.602 262.695 218.27 262.695C216.938 262.695 215.858 263.775 215.858 265.109C215.858 266.442 216.938 267.523 218.27 267.523Z" fill="#E6E6E6"/>
<path d="M61.0719 137.966C61.738 137.966 62.278 137.425 62.278 136.759C62.278 136.092 61.738 135.552 61.0719 135.552C60.4057 135.552 59.8657 136.092 59.8657 136.759C59.8657 137.425 60.4057 137.966 61.0719 137.966Z" fill="#E6E6E6"/>
<path d="M160.778 228.092C161.444 228.092 161.984 227.552 161.984 226.885C161.984 226.219 161.444 225.678 160.778 225.678C160.112 225.678 159.572 226.219 159.572 226.885C159.572 227.552 160.112 228.092 160.778 228.092Z" fill="#E6E6E6"/>
<path d="M342.098 216.424C342.765 216.424 343.305 215.884 343.305 215.217C343.305 214.55 342.765 214.01 342.098 214.01C341.432 214.01 340.892 214.55 340.892 215.217C340.892 215.884 341.432 216.424 342.098 216.424Z" fill="#E6E6E6"/>
<path d="M285.411 252.233C286.077 252.233 286.617 251.693 286.617 251.026C286.617 250.36 286.077 249.819 285.411 249.819C284.745 249.819 284.205 250.36 284.205 251.026C284.205 251.693 284.745 252.233 285.411 252.233Z" fill="#E6E6E6"/>
<path d="M226.311 208.78C226.977 208.78 227.517 208.239 227.517 207.572C227.517 206.906 226.977 206.365 226.311 206.365C225.645 206.365 225.104 206.906 225.104 207.572C225.104 208.239 225.645 208.78 226.311 208.78Z" fill="#E6E6E6"/>
<path d="M149.923 89.6835C150.589 89.6835 151.129 89.143 151.129 88.4764C151.129 87.8097 150.589 87.2693 149.923 87.2693C149.257 87.2693 148.717 87.8097 148.717 88.4764C148.717 89.143 149.257 89.6835 149.923 89.6835Z" fill="#E6E6E6"/>
<path d="M159.572 30.1354C160.238 30.1354 160.778 29.5949 160.778 28.9283C160.778 28.2616 160.238 27.7212 159.572 27.7212C158.906 27.7212 158.366 28.2616 158.366 28.9283C158.366 29.5949 158.906 30.1354 159.572 30.1354Z" fill="#E6E6E6"/>
<path d="M153.943 280.801C154.609 280.801 155.149 280.26 155.149 279.593C155.149 278.927 154.609 278.386 153.943 278.386C153.277 278.386 152.737 278.927 152.737 279.593C152.737 280.26 153.277 280.801 153.943 280.801Z" fill="#E6E6E6"/>
<path d="M94.4413 255.452C95.1074 255.452 95.6474 254.912 95.6474 254.245C95.6474 253.579 95.1074 253.038 94.4413 253.038C93.7751 253.038 93.2351 253.579 93.2351 254.245C93.2351 254.912 93.7751 255.452 94.4413 255.452Z" fill="#E6E6E6"/>
<path d="M282.998 211.998C283.665 211.998 284.205 211.458 284.205 210.791C284.205 210.125 283.665 209.584 282.998 209.584C282.332 209.584 281.792 210.125 281.792 210.791C281.792 211.458 282.332 211.998 282.998 211.998Z" fill="#E6E6E6"/>
<path d="M59.6523 94.0692C61.6507 94.0692 63.2707 92.448 63.2707 90.4481C63.2707 88.4482 61.6507 86.8269 59.6523 86.8269C57.6539 86.8269 56.0339 88.4482 56.0339 90.4481C56.0339 92.448 57.6539 94.0692 59.6523 94.0692Z" fill="white"/>
<path d="M141.48 146.013C141.48 156.828 124.772 182.03 119.889 189.164C119.741 189.379 119.544 189.556 119.313 189.678C119.082 189.799 118.825 189.863 118.564 189.863C118.303 189.863 118.046 189.799 117.815 189.678C117.584 189.556 117.386 189.379 117.239 189.164C112.356 182.03 95.6475 156.828 95.6475 146.013C95.6475 143.001 96.2402 140.019 97.3919 137.236C98.5435 134.454 100.232 131.925 102.359 129.796C104.487 127.666 107.014 125.977 109.794 124.824C112.574 123.672 115.554 123.079 118.564 123.079C121.573 123.079 124.553 123.672 127.333 124.824C130.114 125.977 132.64 127.666 134.768 129.796C136.896 131.925 138.584 134.454 139.736 137.236C140.887 140.019 141.48 143.001 141.48 146.013V146.013Z" fill="white"/>
<path d="M118.564 156.072C125.003 156.072 130.223 150.847 130.223 144.403C130.223 137.959 125.003 132.735 118.564 132.735C112.125 132.735 106.905 137.959 106.905 144.403C106.905 150.847 112.125 156.072 118.564 156.072Z" fill="#00BFA6"/>
<path d="M118.363 202.342C125.801 202.342 131.831 201.171 131.831 199.727C131.831 198.282 125.801 197.111 118.363 197.111C110.924 197.111 104.894 198.282 104.894 199.727C104.894 201.171 110.924 202.342 118.363 202.342Z" fill="white"/>
<path d="M328.408 127.915C328.306 128.113 328.22 128.319 328.151 128.53L308.94 133.872L305.478 130.482L299.682 135.042L305.228 141.64C305.676 142.173 306.285 142.546 306.963 142.704C307.641 142.861 308.352 142.794 308.988 142.513L329.74 133.345C330.444 133.834 331.28 134.097 332.137 134.099C332.994 134.101 333.832 133.842 334.538 133.356C335.244 132.87 335.786 132.18 336.091 131.379C336.396 130.577 336.449 129.702 336.245 128.869C336.041 128.036 335.588 127.285 334.947 126.716C334.306 126.147 333.507 125.786 332.656 125.683C331.805 125.579 330.943 125.738 330.184 126.136C329.426 126.535 328.806 127.156 328.408 127.915H328.408Z" fill="#FFB8B8"/>
<path d="M308.263 134.186L301.052 139.802C300.847 139.962 300.61 140.076 300.357 140.136C300.104 140.195 299.841 140.2 299.586 140.149C299.331 140.098 299.09 139.992 298.88 139.84C298.669 139.687 298.494 139.491 298.366 139.264L293.885 131.327C293.073 130.272 292.713 128.938 292.883 127.617C293.054 126.297 293.74 125.098 294.792 124.283C295.844 123.469 297.176 123.105 298.496 123.272C299.816 123.438 301.016 124.122 301.833 125.173L308.401 131.447C308.589 131.627 308.736 131.845 308.833 132.087C308.929 132.329 308.972 132.588 308.959 132.848C308.946 133.108 308.877 133.362 308.757 133.593C308.637 133.824 308.468 134.026 308.263 134.186V134.186Z" fill="#00BFA6"/>
<path d="M330.25 125.259L337.563 128.551C337.869 128.689 338.108 128.943 338.227 129.257C338.346 129.571 338.336 129.92 338.198 130.226L337.332 132.152C337.434 132.199 337.513 132.283 337.553 132.388C337.593 132.492 337.589 132.609 337.544 132.711L337.198 133.481C337.151 133.583 337.067 133.662 336.962 133.702C336.858 133.742 336.742 133.739 336.64 133.693L336.293 134.463C336.395 134.509 336.475 134.594 336.514 134.699C336.554 134.803 336.551 134.92 336.505 135.022L336.159 135.792C336.112 135.894 336.028 135.973 335.923 136.013C335.819 136.053 335.703 136.049 335.601 136.004L330.926 146.403C330.788 146.71 330.534 146.949 330.22 147.068C329.906 147.187 329.558 147.177 329.252 147.039L321.939 143.746C321.633 143.608 321.394 143.355 321.275 143.04C321.156 142.726 321.166 142.377 321.304 142.071L328.576 125.894C328.714 125.588 328.968 125.349 329.282 125.23C329.596 125.11 329.944 125.121 330.25 125.259V125.259Z" fill="#3F3D56"/>
<path d="M323.267 142.722L329.133 145.366C329.427 145.497 329.761 145.507 330.062 145.393C330.363 145.279 330.607 145.051 330.741 144.757L333.45 138.726L334.391 136.636L336.843 131.179C336.974 130.885 336.984 130.552 336.87 130.251C336.756 129.951 336.528 129.707 336.236 129.574L334.391 128.742L330.365 126.93C330.071 126.799 329.738 126.79 329.437 126.904C329.136 127.019 328.893 127.249 328.762 127.543L326.39 132.818L323.689 138.823L322.659 141.117C322.528 141.41 322.518 141.744 322.632 142.045C322.746 142.346 322.974 142.589 323.267 142.722V142.722Z" fill="#F2F2F2"/>
<path d="M311.01 217.448L315.939 217.448L318.284 198.421L311.009 198.422L311.01 217.448Z" fill="#FFB8B8"/>
<path d="M309.752 215.838L319.459 215.837H319.46C320.272 215.837 321.076 215.997 321.827 216.308C322.577 216.62 323.259 217.076 323.834 217.65C324.408 218.225 324.864 218.908 325.175 219.659C325.486 220.41 325.646 221.215 325.646 222.028V222.229L309.753 222.23L309.752 215.838Z" fill="#2F2E41"/>
<path d="M323.875 216.241L328.804 216.241L331.149 197.214L323.874 197.215L323.875 216.241Z" fill="#FFB8B8"/>
<path d="M322.618 214.631L332.325 214.63H332.325C333.137 214.63 333.942 214.79 334.692 215.101C335.443 215.412 336.125 215.868 336.699 216.443C337.274 217.018 337.729 217.701 338.04 218.452C338.351 219.203 338.511 220.008 338.511 220.821V221.022L322.618 221.023L322.618 214.631Z" fill="#2F2E41"/>
<path d="M288.901 172.801C289.951 175.917 291.943 178.628 294.6 180.561C297.258 182.493 300.451 183.551 303.736 183.588L303.985 183.592C306.53 183.665 309.517 182.844 312.448 181.665C318.237 179.335 323.798 175.606 325.273 174.58L322.772 198.636L321.759 208.389C321.734 208.642 321.761 208.896 321.84 209.137C321.919 209.379 322.047 209.6 322.217 209.789C322.387 209.977 322.594 210.128 322.825 210.231C323.057 210.335 323.307 210.388 323.56 210.389H329.804C330.204 210.389 330.594 210.257 330.911 210.012C331.228 209.767 331.455 209.425 331.557 209.037L341.865 169.747C342.175 168.571 342.199 167.339 341.938 166.151C341.676 164.964 341.136 163.855 340.362 162.918C339.587 161.981 338.601 161.242 337.484 160.763C336.368 160.283 335.153 160.076 333.941 160.159L312.528 161.628L314.024 155.641L294.911 154.37L294.855 154.41C294.396 154.744 293.95 155.094 293.524 155.46C292.458 156.362 291.514 157.398 290.714 158.542C289.282 160.595 288.369 162.965 288.054 165.448C287.738 167.932 288.029 170.455 288.901 172.801Z" fill="#2F2E41"/>
<path d="M288.901 172.801C289.951 175.917 291.943 178.628 294.6 180.561C297.258 182.493 300.451 183.551 303.736 183.588C306.877 181.997 309.909 180.197 312.81 178.201L312.448 181.665L309.296 212.01C309.27 212.263 309.298 212.518 309.377 212.759C309.456 213 309.584 213.222 309.754 213.41C309.923 213.598 310.131 213.749 310.362 213.852C310.593 213.956 310.844 214.01 311.097 214.01H317.341C317.741 214.01 318.13 213.878 318.448 213.633C318.765 213.389 318.992 213.046 319.094 212.658L322.772 198.636L329.402 173.369C329.711 172.193 329.736 170.96 329.475 169.772C329.213 168.585 328.673 167.477 327.898 166.54C327.124 165.603 326.138 164.864 325.021 164.384C323.905 163.904 322.69 163.697 321.478 163.781L300.065 165.249L301.561 159.262L290.714 158.542C289.282 160.595 288.369 162.965 288.054 165.448C287.738 167.932 288.029 170.455 288.901 172.801V172.801Z" fill="#2F2E41"/>
<path d="M293.497 156.848L293.353 156.831L290.018 140.421C289.989 140.278 287.263 126.124 295.621 118.724L295.767 117.711C295.804 117.452 295.897 117.204 296.039 116.984C296.181 116.765 296.37 116.578 296.591 116.439C296.812 116.299 297.061 116.208 297.32 116.174C297.58 116.14 297.843 116.162 298.093 116.24L305.967 118.684C306.413 118.821 306.788 119.126 307.014 119.534C307.241 119.942 307.3 120.422 307.181 120.873L306.415 123.787C307.477 125.034 319.97 140.087 315.618 151.684L313.669 159.31L293.497 156.848Z" fill="#00BFA6"/>
<path d="M326.191 144.041C326.003 144.159 325.824 144.292 325.657 144.439L306.4 139.266L305.141 134.585L297.834 135.563L299.258 144.066C299.373 144.753 299.707 145.384 300.211 145.865C300.715 146.345 301.361 146.649 302.052 146.731L324.58 149.394C324.937 150.173 325.524 150.825 326.261 151.263C326.998 151.7 327.851 151.903 328.706 151.844C329.561 151.785 330.377 151.466 331.047 150.931C331.717 150.396 332.208 149.67 332.455 148.849C332.702 148.027 332.694 147.15 332.431 146.334C332.168 145.518 331.663 144.801 330.983 144.279C330.303 143.757 329.48 143.455 328.624 143.412C327.768 143.37 326.919 143.589 326.191 144.041H326.191Z" fill="#FFB8B8"/>
<path d="M305.658 139.191L296.595 140.359C296.337 140.392 296.075 140.37 295.827 140.292C295.579 140.215 295.35 140.085 295.157 139.912C294.963 139.738 294.809 139.525 294.705 139.286C294.601 139.047 294.55 138.789 294.555 138.529L294.728 129.414C294.566 128.093 294.933 126.761 295.75 125.711C296.568 124.66 297.768 123.977 299.088 123.811C300.407 123.645 301.739 124.009 302.791 124.824C303.843 125.639 304.529 126.838 304.698 128.158L307.168 136.903C307.238 137.154 307.254 137.416 307.214 137.673C307.174 137.931 307.079 138.176 306.936 138.393C306.793 138.61 306.605 138.794 306.384 138.932C306.163 139.069 305.916 139.158 305.658 139.191V139.191Z" fill="#00BFA6"/>
<path d="M303.107 114.012C308.56 114.012 312.981 109.588 312.981 104.13C312.981 98.6723 308.56 94.2479 303.107 94.2479C297.653 94.2479 293.232 98.6723 293.232 104.13C293.232 109.588 297.653 114.012 303.107 114.012Z" fill="#FFB8B8"/>
<path d="M302.587 104.955L301.351 102.702C299.009 112.251 303.146 120.154 303.146 120.154L287.091 112.67L287.244 110.014L285.656 111.818L283.373 110.559L283.071 108.837L281.349 109.264L287.638 97.8424C293.742 86.9736 302.616 91.1232 302.616 91.1232C316.734 90.4516 315.01 104.391 315.01 104.391L302.587 104.955Z" fill="#2F2E41"/>
<path d="M190.181 178.599C192.458 177.138 189.689 168.75 183.997 159.864C178.305 150.978 171.845 144.959 169.569 146.42C167.292 147.88 170.061 156.268 175.753 165.154C181.445 174.04 187.905 180.059 190.181 178.599Z" fill="#3F3D56"/>
<g filter="url(#filter0_d_137_959)">
<path d="M117.848 242.144C117.714 241.752 117.488 241.397 117.189 241.109C117.079 241.007 116.96 240.914 116.833 240.834C115.82 240.159 114.308 240.008 113.346 240.834C113.25 240.918 113.16 241.01 113.079 241.109C112.792 241.462 112.497 241.807 112.195 242.144C111.698 242.71 111.19 243.257 110.659 243.788C110.508 243.936 110.357 244.087 110.202 244.234C110.112 244.324 110.023 244.409 109.934 244.494C109.593 244.82 109.244 245.134 108.891 245.444C108.705 245.611 108.519 245.774 108.329 245.933C108.046 246.169 107.762 246.406 107.476 246.635C107.448 246.654 107.421 246.673 107.394 246.697C107.386 246.701 107.382 246.708 107.375 246.712C107.371 246.712 107.367 246.712 107.363 246.72C107.353 246.724 107.343 246.731 107.336 246.739C107.251 246.798 107.192 246.836 107.15 246.871C107.165 246.863 107.181 246.852 107.196 246.844C107.127 246.898 107.053 246.953 106.983 247.007C106.304 247.507 105.61 247.988 104.901 248.438C103.145 249.561 101.301 250.541 99.3865 251.366C99.2586 251.416 99.1267 251.47 98.9949 251.521C93.9827 253.574 88.5457 254.375 83.1543 253.855C82.6036 253.812 82.053 253.754 81.5024 253.681C80.8664 253.587 80.2343 253.475 79.6061 253.347C77.2146 252.87 74.8745 252.163 72.6184 251.238C69.7963 249.945 67.1121 248.371 64.607 246.538C64.2192 246.262 63.8276 245.987 63.4359 245.72C63.8819 244.626 64.3201 243.532 64.7466 242.431C64.9599 241.9 65.1654 241.369 65.3671 240.834C66.9531 236.711 68.4421 232.551 69.8691 228.374C71.3116 224.144 72.6727 219.889 73.9524 215.609C74.0842 215.174 74.2122 214.74 74.3363 214.306C75.0071 212.045 75.6508 209.779 76.2674 207.508C76.3256 207.287 76.3876 207.07 76.4419 206.849C76.6203 206.198 76.7948 205.546 76.9654 204.895C77.3532 203.425 76.4768 201.668 74.9334 201.315C74.1904 201.125 73.4024 201.23 72.7354 201.609C72.0685 201.988 71.5747 202.611 71.3582 203.347C71.1914 203.976 71.0247 204.6 70.8541 205.228C70.0359 208.264 69.175 211.29 68.2715 214.306C68.1396 214.74 68.0078 215.174 67.876 215.609C65.8828 222.178 63.6944 228.681 61.3109 235.118C61.024 235.897 60.7331 236.674 60.4384 237.448C60.295 237.828 60.1515 238.208 60.0041 238.588C59.721 239.337 59.4302 240.085 59.1394 240.834C58.9726 241.272 58.802 241.71 58.6314 242.144C58.519 242.42 58.4104 242.695 58.3018 242.966C57.1962 242.569 56.0507 242.294 54.8855 242.144L54.6994 242.121C53.796 242.012 52.8824 242.02 51.9811 242.144C50.632 242.302 49.334 242.753 48.1788 243.468C47.0236 244.182 46.0394 245.141 45.2958 246.278C43.4461 249.19 43.4694 253.355 46.0636 255.829C48.7354 258.376 52.7799 258.357 55.9247 256.763C57.5913 255.862 58.9965 254.545 60.0041 252.94C60.3901 252.358 60.7448 251.756 61.0666 251.137C61.1481 251.191 61.2295 251.245 61.3109 251.303C61.6211 251.521 61.9314 251.742 62.2377 251.959C64.0226 253.252 65.9036 254.407 67.8643 255.414C72.0802 257.51 76.6183 258.882 81.2891 259.474C81.3938 259.486 81.4946 259.501 81.5993 259.513C82.115 259.579 82.6347 259.629 83.1543 259.672C90.6081 260.233 98.0711 258.708 104.707 255.267C105.269 254.976 105.826 254.671 106.378 254.351C107.235 253.855 108.073 253.328 108.891 252.769C109.337 252.467 109.771 252.16 110.202 251.839C112.082 250.453 113.836 248.902 115.44 247.205C116.049 246.565 116.632 245.904 117.189 245.223C117.716 244.666 118.02 243.934 118.042 243.168C118.039 242.818 117.974 242.471 117.848 242.144V242.144ZM53.6369 251.381C53.7183 251.323 53.7997 251.261 53.8773 251.199C53.854 251.257 53.7416 251.323 53.6369 251.381H53.6369ZM54.8816 250.129C54.7924 250.229 54.711 250.33 54.6218 250.431C54.3505 250.735 54.059 251.02 53.7493 251.284C53.7067 251.323 53.6601 251.362 53.6136 251.397C53.6131 251.397 53.6126 251.397 53.6121 251.397C53.6116 251.397 53.6112 251.397 53.6108 251.398C53.6105 251.398 53.6102 251.398 53.61 251.399C53.6098 251.399 53.6097 251.4 53.6097 251.4C53.5537 251.425 53.4993 251.454 53.4468 251.486C53.2801 251.587 53.1095 251.68 52.935 251.765C52.5933 251.891 52.2418 251.988 51.8841 252.056C51.6093 252.076 51.3334 252.078 51.0582 252.064H51.0504C50.8605 252.021 50.6728 251.97 50.4881 251.908C50.3951 251.862 50.3059 251.808 50.2167 251.753C50.1818 251.722 50.1508 251.691 50.1314 251.672C50.0935 251.637 50.0585 251.6 50.0267 251.559C50.0267 251.559 50.0266 251.558 50.0264 251.558C50.0262 251.557 50.026 251.557 50.0256 251.557C50.0252 251.556 50.0248 251.556 50.0243 251.556C50.0238 251.556 50.0233 251.556 50.0228 251.556C49.9802 251.478 49.9336 251.4 49.891 251.323C49.8888 251.321 49.8874 251.318 49.8871 251.315C49.8561 251.218 49.8289 251.117 49.8057 251.017C49.7973 250.839 49.7985 250.662 49.8095 250.485C49.8616 250.238 49.9316 249.994 50.0189 249.756C50.0975 249.588 50.1868 249.425 50.2865 249.268C50.2943 249.252 50.333 249.19 50.3757 249.12C50.3796 249.116 50.3796 249.116 50.3796 249.113C50.4377 249.047 50.4959 248.977 50.558 248.915C50.6627 248.798 50.7751 248.698 50.8876 248.593C51.1063 248.45 51.3328 248.319 51.5662 248.201C51.9364 248.07 52.3162 247.967 52.7024 247.895C53.2717 247.85 53.844 247.855 54.4124 247.91C54.9509 248.004 55.4821 248.135 56.0023 248.302C55.687 248.914 55.3281 249.502 54.9282 250.063C54.9126 250.086 54.8971 250.109 54.8816 250.129V250.129ZM50.5696 248.853C50.5354 248.908 50.4951 248.958 50.4494 249.004C50.4801 248.947 50.5208 248.896 50.5696 248.853V248.853Z" fill="#E6E6E6"/>
<path d="M106.192 202.541C106.157 203.758 106.122 204.976 106.087 206.194C106.014 208.896 105.937 211.6 105.858 214.306C105.777 217.35 105.692 220.393 105.603 223.434C105.56 225.005 105.516 226.575 105.471 228.146C105.35 232.376 105.232 236.605 105.114 240.834C105.102 241.272 105.087 241.706 105.075 242.144C105.017 244.242 104.959 246.34 104.901 248.438C104.835 250.714 104.77 252.99 104.707 255.267C104.66 256.973 104.612 258.68 104.563 260.389C104.214 272.771 103.865 285.152 103.516 297.534C103.502 298.301 103.19 299.032 102.648 299.574C102.106 300.116 101.375 300.428 100.608 300.442C99.8386 300.436 99.1025 300.128 98.5584 299.584C98.0143 299.04 97.7059 298.303 97.6997 297.534C97.8936 290.57 98.0901 283.605 98.2891 276.641C98.4636 270.343 98.6407 264.046 98.8204 257.748C98.8785 255.674 98.9367 253.598 98.9949 251.521C99.0841 248.395 99.172 245.27 99.2586 242.144C99.2702 241.706 99.2857 241.272 99.2973 240.834C99.3051 240.45 99.3167 240.07 99.3284 239.686C99.499 233.617 99.6696 227.547 99.8402 221.476C99.91 219.087 99.9772 216.697 100.042 214.306C100.119 211.58 100.197 208.855 100.275 206.132C100.309 204.933 100.34 203.739 100.375 202.541C100.39 201.774 100.701 201.043 101.243 200.501C101.786 199.958 102.517 199.647 103.284 199.632C104.053 199.639 104.789 199.947 105.333 200.491C105.877 201.035 106.186 201.771 106.192 202.541V202.541Z" fill="#E6E6E6"/>
<path d="M265.733 203.348C262.684 214.896 259.039 226.278 254.813 237.449C253.647 240.531 252.454 243.606 251.179 246.644L251.472 245.949C250.903 247.396 250.176 248.776 249.305 250.064C249.246 250.147 249.185 250.23 249.124 250.311C249.425 249.926 249.482 249.85 249.296 250.083C249.197 250.199 249.1 250.316 248.998 250.43C248.726 250.734 248.435 251.019 248.126 251.284C248.048 251.351 247.969 251.416 247.889 251.48L248.252 251.197C248.21 251.297 247.914 251.429 247.822 251.485C247.523 251.666 247.211 251.823 246.889 251.958L247.584 251.665C247.056 251.877 246.505 252.028 245.943 252.115L246.716 252.011C246.164 252.087 245.604 252.093 245.05 252.029L245.823 252.133C245.369 252.07 244.926 251.951 244.502 251.777L245.197 252.07C244.971 251.972 244.754 251.855 244.546 251.723C244.441 251.654 244.117 251.409 244.54 251.732C244.98 252.068 244.597 251.761 244.506 251.672C244.431 251.597 244.363 251.517 244.289 251.441C243.947 251.09 244.676 252.045 244.443 251.634C244.319 251.429 244.205 251.217 244.103 251L244.396 251.694C244.262 251.364 244.168 251.019 244.113 250.666L244.217 251.439C244.162 251.001 244.161 250.557 244.216 250.119L244.112 250.892C244.183 250.403 244.313 249.924 244.498 249.465L244.205 250.16C244.334 249.851 244.487 249.553 244.662 249.269C244.742 249.121 244.837 248.982 244.944 248.853C244.963 248.859 244.452 249.44 244.723 249.147C244.794 249.07 244.861 248.989 244.932 248.913C245.047 248.792 245.17 248.68 245.291 248.565C245.696 248.179 244.724 248.94 245.192 248.634C245.531 248.412 245.887 248.217 246.258 248.053L245.563 248.346C246.184 248.091 246.835 247.917 247.5 247.827L246.727 247.931C247.56 247.835 248.402 247.845 249.232 247.96L248.459 247.856C249.511 248.016 250.539 248.305 251.519 248.717L250.825 248.424C252.915 249.321 254.766 250.653 256.613 251.96C258.398 253.252 260.279 254.407 262.238 255.413C266.455 257.51 270.993 258.883 275.664 259.475C282.363 260.296 289.161 259.421 295.434 256.931C301.707 254.441 307.254 250.415 311.566 245.223C312.093 244.665 312.396 243.934 312.418 243.167C312.413 242.397 312.107 241.659 311.566 241.11C310.5 240.131 308.484 239.854 307.453 241.11C306.477 242.303 305.427 243.433 304.31 244.495C303.788 244.989 303.253 245.469 302.704 245.933C302.39 246.198 302.072 246.458 301.749 246.713C301.597 246.834 301.122 247.154 301.851 246.636C301.684 246.755 301.524 246.885 301.359 247.007C298.917 248.807 296.27 250.312 293.474 251.491L294.169 251.198C291.169 252.456 288.019 253.32 284.796 253.766L285.569 253.662C282.254 254.098 278.896 254.093 275.583 253.647L276.356 253.751C273.043 253.296 269.803 252.414 266.717 251.126L267.412 251.419C264.434 250.101 261.607 248.464 258.983 246.537C257.617 245.525 256.176 244.619 254.674 243.824C252.923 242.93 251.027 242.354 249.075 242.123C245.415 241.692 241.685 243.118 239.673 246.28C237.821 249.19 237.845 253.354 240.438 255.829C243.109 258.377 247.154 258.356 250.301 256.762C253.333 255.226 255.154 252.037 256.434 249.029C259.316 242.26 261.867 235.335 264.244 228.375C266.595 221.489 268.728 214.533 270.642 207.507C270.879 206.637 271.112 205.766 271.342 204.894C271.73 203.425 270.853 201.668 269.311 201.317C268.568 201.125 267.779 201.23 267.112 201.609C266.444 201.988 265.95 202.612 265.733 203.348L265.733 203.348Z" fill="#E6E6E6"/>
<path d="M294.752 202.541L293.705 239.687L292.663 276.639L292.075 297.534C292.081 298.303 292.39 299.039 292.934 299.583C293.478 300.127 294.214 300.436 294.983 300.442C295.75 300.428 296.481 300.116 297.023 299.574C297.565 299.032 297.876 298.301 297.891 297.534L298.938 260.388L299.979 223.435L300.568 202.541C300.562 201.771 300.253 201.035 299.709 200.491C299.165 199.947 298.429 199.639 297.66 199.632C296.893 199.647 296.162 199.958 295.62 200.501C295.078 201.043 294.766 201.774 294.752 202.541V202.541Z" fill="#E6E6E6"/>
<path d="M188.571 274.834C187.434 279.905 184.711 284.483 180.796 287.902C180.509 288.15 180.222 288.39 179.924 288.627C179.198 288.693 178.478 288.76 177.764 288.829C177.17 288.883 176.585 288.941 176.003 288.995L175.898 289.007L175.825 288.371L175.53 285.796C174.387 283.93 173.678 281.83 173.457 279.652C173.235 277.475 173.506 275.275 174.25 273.217C175.274 270.456 177.128 268.017 178.95 265.597C181.467 262.254 183.914 258.951 184.003 254.875C185.241 256.46 186.271 258.197 187.066 260.044C186.316 260.397 185.641 260.894 185.081 261.506C184.922 261.68 184.763 261.925 184.872 262.134C184.965 262.313 185.197 262.355 185.399 262.378C185.884 262.429 186.372 262.479 186.857 262.53C187.245 262.572 187.633 262.611 188.02 262.654C188.489 264.194 188.808 265.775 188.97 267.377C189.232 269.868 189.097 272.385 188.571 274.834V274.834Z" fill="#E6E6E6"/>
<path d="M201.445 264.67C199.157 266.334 197.819 268.726 196.78 271.363C195.715 271.704 194.757 272.316 194 273.139C193.841 273.314 193.682 273.558 193.79 273.767C193.883 273.946 194.116 273.988 194.318 274.012C194.802 274.062 195.291 274.112 195.776 274.163C194.736 277.281 193.782 280.507 191.944 283.14C190.722 284.878 189.129 286.323 187.28 287.37C186.775 287.658 186.255 287.915 185.721 288.142C183.751 288.293 181.818 288.455 179.923 288.627C179.198 288.693 178.478 288.76 177.764 288.828C177.17 288.883 176.585 288.941 176.003 288.995C175.999 288.782 175.999 288.569 176.003 288.355C176.126 282.674 178.216 277.211 181.917 272.899C182.091 272.697 182.269 272.499 182.452 272.302C184.327 270.299 186.531 268.633 188.97 267.377C192.813 265.379 197.12 264.444 201.445 264.67V264.67Z" fill="#00BFA6"/>
<path d="M178.434 286.839L177.988 288.158L177.764 288.828C177.17 288.883 176.585 288.941 176.003 288.995L175.898 289.007C175.255 289.073 174.615 289.139 173.975 289.205C173.808 289.011 173.641 288.813 173.479 288.611C169.431 283.71 167.488 277.406 168.075 271.076C168.661 264.747 171.729 258.907 176.608 254.832C176.096 257.512 176.693 260.079 177.674 262.627C177.57 262.669 177.469 262.712 177.372 262.758C176.621 263.112 175.947 263.608 175.386 264.22C175.227 264.395 175.068 264.639 175.177 264.849C175.27 265.027 175.503 265.07 175.704 265.093C176.189 265.143 176.678 265.194 177.162 265.244C177.55 265.287 177.938 265.325 178.326 265.368C178.508 265.387 178.69 265.407 178.873 265.426C178.9 265.484 178.923 265.539 178.95 265.597C180.055 267.993 181.246 270.401 181.917 272.899C182.085 273.525 182.217 274.161 182.312 274.803C182.611 276.971 182.417 279.179 181.746 281.263C181.075 283.347 179.943 285.253 178.434 286.839V286.839Z" fill="#00BFA6"/>
<path d="M217.467 230.597C214.129 224.085 208.957 218.606 202.874 214.58C196.772 210.559 189.77 208.111 182.492 207.453C181.538 207.366 180.581 207.315 179.623 207.3C178.49 207.284 161.449 212.199 155.741 216.212C150.035 220.177 145.342 225.427 142.039 231.54C138.743 237.686 137.121 244.591 137.338 251.562C137.62 258.575 139.575 265.419 143.039 271.523C146.456 277.608 151.307 282.765 157.171 286.548C163.119 290.343 169.093 300.405 176.116 300.76C183.191 301.118 191.26 291.626 197.713 288.744C204.166 285.838 209.744 281.292 213.893 275.558C217.924 269.939 220.532 263.426 221.493 256.577C222.491 249.565 222.026 242.333 219.631 235.631C219.017 233.909 218.294 232.227 217.467 230.597C216.777 229.237 214.754 228.737 213.488 229.553C212.836 229.955 212.363 230.593 212.169 231.334C211.975 232.075 212.073 232.862 212.445 233.532C212.85 234.331 213.227 235.142 213.575 235.967L213.282 235.272C214.6 238.442 215.497 241.771 215.948 245.175L215.845 244.402C216.325 248.094 216.316 251.834 215.819 255.524L215.923 254.751C215.42 258.441 214.435 262.049 212.993 265.482L213.286 264.788C212.545 266.539 211.68 268.237 210.699 269.867C210.202 270.69 209.675 271.495 209.117 272.279C208.872 272.624 208.62 272.962 208.365 273.3C208.033 273.74 208.818 272.725 208.475 273.156C208.416 273.23 208.358 273.304 208.299 273.377C208.123 273.597 207.945 273.816 207.764 274.032C206.555 275.474 205.235 276.82 203.817 278.058C203.464 278.366 203.105 278.668 202.74 278.962C202.558 279.109 202.379 279.262 202.189 279.398C202.197 279.393 202.802 278.933 202.444 279.2C202.331 279.284 202.219 279.369 202.106 279.453C201.354 280.01 200.582 280.539 199.79 281.04C197.966 282.189 196.052 283.189 194.068 284.031L194.762 283.737C191.339 285.179 187.741 286.163 184.061 286.666L184.834 286.562C181.156 287.059 177.428 287.065 173.748 286.581L174.521 286.685C171.177 286.236 167.905 285.352 164.79 284.054L165.485 284.348C163.68 283.586 161.941 282.679 160.282 281.637C159.462 281.12 158.662 280.571 157.885 279.99C157.774 279.907 157.664 279.823 157.553 279.739C157.198 279.471 157.808 279.937 157.813 279.94C157.606 279.792 157.408 279.634 157.218 279.465C156.842 279.159 156.472 278.846 156.108 278.526C154.652 277.244 153.292 275.856 152.039 274.373C151.725 274.003 151.419 273.626 151.118 273.245C150.988 273.079 150.751 272.744 151.275 273.45C151.206 273.357 151.135 273.266 151.065 273.174C150.898 272.952 150.733 272.729 150.571 272.504C150.001 271.716 149.46 270.908 148.947 270.082C147.787 268.21 146.775 266.251 145.92 264.223L146.213 264.918C144.814 261.588 143.857 258.089 143.367 254.511L143.47 255.284C143.028 251.986 143.022 248.643 143.452 245.343L143.348 246.116C143.788 242.92 144.648 239.797 145.905 236.826L145.612 237.52C146.403 235.66 147.335 233.864 148.402 232.147C148.936 231.288 149.502 230.45 150.1 229.633C150.235 229.447 150.373 229.262 150.512 229.079C150.637 228.913 150.983 228.5 150.393 229.23C150.451 229.158 150.507 229.084 150.564 229.012C150.892 228.597 151.228 228.188 151.572 227.785C152.874 226.261 154.284 224.832 155.792 223.511C156.173 223.177 156.56 222.85 156.953 222.531C157.132 222.385 157.311 222.241 157.492 222.099C157.565 222.042 157.638 221.986 157.71 221.929C156.936 222.545 157.495 222.097 157.671 221.965C158.481 221.358 159.313 220.781 160.166 220.235C162.064 219.022 164.059 217.97 166.133 217.091L165.438 217.384C168.447 216.121 181.779 213.138 184.204 213.464L183.431 213.36C186.995 213.858 190.478 214.82 193.792 216.223L193.097 215.93C194.777 216.643 196.409 217.462 197.983 218.384C198.77 218.845 199.542 219.331 200.297 219.843C200.655 220.085 201.009 220.332 201.359 220.585C201.534 220.712 201.708 220.84 201.881 220.969C201.977 221.041 202.073 221.113 202.169 221.185C202.572 221.487 201.614 220.748 202.036 221.082C203.45 222.193 204.793 223.391 206.057 224.67C206.677 225.302 207.277 225.954 207.855 226.626C208.151 226.971 208.441 227.321 208.726 227.676C208.867 227.853 209.348 228.491 208.758 227.709C208.903 227.9 209.048 228.09 209.191 228.283C210.416 229.941 211.504 231.697 212.445 233.532C213.14 234.889 215.154 235.394 216.424 234.576C217.076 234.174 217.549 233.536 217.743 232.795C217.938 232.054 217.839 231.267 217.467 230.597Z" fill="#E6E6E6"/>
<path d="M183.579 278.058C183.279 278.072 182.982 277.993 182.728 277.833C182.474 277.672 182.276 277.437 182.16 277.16C182.044 276.882 182.016 276.576 182.08 276.282C182.144 275.989 182.296 275.722 182.517 275.518C182.554 275.371 182.581 275.265 182.618 275.119C182.604 275.087 182.591 275.055 182.578 275.023C181.228 271.805 172.618 280.775 172.245 283.799C172.081 285.135 172.151 286.49 172.45 287.804C169.661 281.719 168.212 275.107 168.203 268.414C168.203 266.734 168.296 265.056 168.483 263.387C168.637 262.019 168.851 260.66 169.125 259.311C170.62 251.993 173.83 245.133 178.49 239.296C181.156 239.444 183.492 239.038 183.717 233.872C183.758 232.953 184.439 232.158 184.589 231.253C184.335 231.286 184.076 231.307 183.822 231.324C183.742 231.328 183.659 231.332 183.58 231.336L183.55 231.337C183.27 231.35 182.993 231.281 182.751 231.14C182.51 230.999 182.314 230.79 182.188 230.54C182.062 230.29 182.011 230.009 182.041 229.731C182.071 229.453 182.181 229.189 182.357 228.971C182.467 228.836 182.577 228.701 182.687 228.566C182.854 228.357 183.025 228.153 183.192 227.944C183.211 227.925 183.229 227.904 183.246 227.882C183.438 227.644 183.63 227.41 183.822 227.173C183.472 226.629 183 226.174 182.445 225.842C180.522 224.716 177.869 225.496 176.48 227.235C175.086 228.975 174.824 231.415 175.307 233.589C175.783 235.438 176.57 237.193 177.635 238.778C177.531 238.912 177.422 239.041 177.318 239.175C175.412 241.626 173.75 244.258 172.357 247.034C172.751 243.956 167.932 232.838 166.068 230.484C163.83 227.655 159.239 228.89 158.845 232.475C158.841 232.51 158.837 232.544 158.834 232.579C159.11 232.735 159.381 232.901 159.647 233.076C159.98 233.299 160.238 233.617 160.387 233.989C160.536 234.36 160.57 234.769 160.483 235.16C160.396 235.551 160.194 235.906 159.901 236.18C159.609 236.454 159.241 236.633 158.845 236.695L158.804 236.701C155.099 241.991 166.978 255.762 169.951 252.67C168.552 256.636 167.674 260.767 167.34 264.96C167.15 267.433 167.162 269.918 167.373 272.389L167.36 272.302C166.7 266.918 155.366 258.915 152.056 259.581C150.15 259.965 148.272 259.878 148.561 261.801C148.566 261.832 148.571 261.863 148.575 261.893C149.089 262.103 149.589 262.344 150.073 262.615C150.35 262.771 150.621 262.937 150.886 263.112C151.219 263.335 151.477 263.653 151.626 264.025C151.776 264.396 151.809 264.804 151.723 265.196C151.636 265.587 151.433 265.942 151.141 266.216C150.849 266.49 150.48 266.669 150.084 266.73L150.044 266.737C150.015 266.741 149.99 266.745 149.96 266.749C148.274 272.553 160.782 281.919 168.387 278.939H168.391C169.144 282.214 170.236 285.401 171.649 288.45H183.288C183.33 288.321 183.367 288.187 183.405 288.058C182.327 288.126 181.246 288.061 180.184 287.866C181.048 286.806 181.911 285.739 182.775 284.679C182.794 284.659 182.812 284.638 182.829 284.616C183.267 284.074 183.709 283.536 184.147 282.994L184.147 282.993C184.171 281.331 183.98 279.672 183.58 278.059L183.579 278.058ZM170.251 251.84L170.257 251.831L170.251 251.848V251.84ZM167.673 275.08L167.573 274.855C167.577 274.692 167.577 274.529 167.573 274.362C167.573 274.317 167.565 274.271 167.565 274.225C167.602 274.513 167.636 274.8 167.677 275.088L167.673 275.08Z" fill="#E6E6E6"/>
<path d="M52.8031 253.84C55.1589 253.84 57.0686 251.93 57.0686 249.574C57.0686 247.218 55.1589 245.308 52.8031 245.308C50.4473 245.308 48.5376 247.218 48.5376 249.574C48.5376 251.93 50.4473 253.84 52.8031 253.84Z" fill="#E6E6E6"/>
<path d="M103.989 300.373C106.345 300.373 108.255 298.463 108.255 296.107C108.255 293.751 106.345 291.842 103.989 291.842C101.634 291.842 99.7239 293.751 99.7239 296.107C99.7239 298.463 101.634 300.373 103.989 300.373Z" fill="#E6E6E6"/>
<path d="M298.265 300.373C300.62 300.373 302.53 298.463 302.53 296.107C302.53 293.751 300.62 291.842 298.265 291.842C295.909 291.842 293.999 293.751 293.999 296.107C293.999 298.463 295.909 300.373 298.265 300.373Z" fill="#E6E6E6"/>
<path d="M308.735 246.084C311.09 246.084 313 244.174 313 241.819C313 239.463 311.09 237.553 308.735 237.553C306.379 237.553 304.469 239.463 304.469 241.819C304.469 244.174 306.379 246.084 308.735 246.084Z" fill="#E6E6E6"/>
<path d="M296.326 206.531C298.681 206.531 300.591 204.621 300.591 202.266C300.591 199.91 298.681 198 296.326 198C293.97 198 292.06 199.91 292.06 202.266C292.06 204.621 293.97 206.531 296.326 206.531Z" fill="#E6E6E6"/>
<path d="M118.337 241.818C118.335 242.908 117.913 243.955 117.16 244.742C116.407 245.53 115.38 245.998 114.292 246.049C113.204 246.101 112.137 245.732 111.313 245.019C110.489 244.306 109.971 243.304 109.866 242.219C109.76 241.135 110.076 240.051 110.747 239.193C111.418 238.335 112.393 237.767 113.471 237.608C114.549 237.449 115.647 237.711 116.538 238.338C117.428 238.966 118.043 239.912 118.256 240.981C118.31 241.257 118.338 241.537 118.337 241.818V241.818Z" fill="#E6E6E6"/>
<path d="M203.648 218.94C206.003 218.94 207.913 217.03 207.913 214.674C207.913 212.319 206.003 210.409 203.648 210.409C201.292 210.409 199.382 212.319 199.382 214.674C199.382 217.03 201.292 218.94 203.648 218.94Z" fill="#E6E6E6"/>
<path d="M161.38 214.674C161.377 215.764 160.956 216.811 160.203 217.598C159.45 218.386 158.423 218.854 157.335 218.905C156.247 218.957 155.18 218.588 154.356 217.875C153.532 217.162 153.014 216.16 152.908 215.075C152.803 213.991 153.119 212.907 153.79 212.049C154.461 211.191 155.436 210.623 156.514 210.464C157.592 210.305 158.69 210.566 159.581 211.194C160.471 211.822 161.086 212.768 161.299 213.837C161.353 214.113 161.381 214.393 161.38 214.674V214.674Z" fill="#E6E6E6"/>
<path d="M106.316 202.266C106.314 203.355 105.892 204.402 105.139 205.19C104.386 205.977 103.359 206.445 102.271 206.497C101.183 206.548 100.116 206.179 99.2922 205.466C98.4683 204.753 97.95 203.751 97.8445 202.667C97.7391 201.582 98.0546 200.499 98.7258 199.64C99.397 198.782 100.372 198.215 101.45 198.055C102.528 197.896 103.626 198.158 104.517 198.785C105.407 199.413 106.022 200.359 106.235 201.428C106.289 201.704 106.317 201.984 106.316 202.266V202.266Z" fill="#E6E6E6"/>
<path d="M248.242 255.391C250.597 255.391 252.507 253.481 252.507 251.125C252.507 248.769 250.597 246.86 248.242 246.86C245.886 246.86 243.976 248.769 243.976 251.125C243.976 253.481 245.886 255.391 248.242 255.391Z" fill="#E6E6E6"/>
<path d="M181.157 216.613C184.583 216.613 187.361 213.835 187.361 210.409C187.361 206.982 184.583 204.204 181.157 204.204C177.73 204.204 174.952 206.982 174.952 210.409C174.952 213.835 177.73 216.613 181.157 216.613Z" fill="#E6E6E6"/>
</g>
</g>
<defs>
<filter id="filter0_d_137_959" x="40" y="198" width="277" height="110.77" filterUnits="userSpaceOnUse" color-interpolation-filters="sRGB">
<feFlood flood-opacity="0" result="BackgroundImageFix"/>
<feColorMatrix in="SourceAlpha" type="matrix" values="0 0 0 0 0 0 0 0 0 0 0 0 0 0 0 0 0 0 127 0" result="hardAlpha"/>
<feOffset dy="4"/>
<feGaussianBlur stdDeviation="2"/>
<feComposite in2="hardAlpha" operator="out"/>
<feColorMatrix type="matrix" values="0 0 0 0 0 0 0 0 0 0 0 0 0 0 0 0 0 0 0.25 0"/>
<feBlend mode="normal" in2="BackgroundImageFix" result="effect1_dropShadow_137_959"/>
<feBlend mode="normal" in="SourceGraphic" in2="effect1_dropShadow_137_959" result="shape"/>
</filter>
<clipPath id="clip0_137_959">
<rect width="395" height="307" fill="white"/>
</clipPath>
</defs>
</svg>
