<svg width="309" height="94" viewBox="0 0 309 94" fill="none" xmlns="http://www.w3.org/2000/svg">
<path d="M0.576 12.024C0.864 11.256 1.536 10.872 2.592 10.872C2.912 10.872 3.2 10.936 3.456 11.064C4.544 13.464 5.792 16.84 7.2 21.192C8.608 25.544 10.032 29.608 11.472 33.384C12.944 37.16 14.576 40.344 16.368 42.936C18.128 42.424 20.016 38.408 22.032 30.888C22.864 27.784 23.712 24.696 24.576 21.624C25.44 18.552 26.416 15.96 27.504 13.848C28.592 11.736 29.712 10.68 30.864 10.68C31.312 10.68 31.792 10.808 32.304 11.064C31.472 11.864 30.592 13.64 29.664 16.392C28.736 19.144 27.824 22.152 26.928 25.416C26.032 28.648 25.072 31.864 24.048 35.064C23.056 38.232 21.856 40.872 20.448 42.984C19.072 45.096 17.6 46.152 16.032 46.152C13.856 46.152 11.36 42.472 8.544 35.112C7.04 31.272 5.904 28.248 5.136 26.04C4.368 23.8 3.472 21.096 2.448 17.928C1.456 14.728 0.832 12.76 0.576 12.024ZM34.5578 25.08C36.1898 22.584 38.5418 21.336 41.6138 21.336C44.6858 21.336 47.1338 22.584 48.9578 25.08C50.8138 27.576 51.7418 30.424 51.7418 33.624C51.7418 36.792 50.7338 39.48 48.7178 41.688C46.7018 43.896 44.1418 45 41.0378 45C37.9338 45 35.6778 44.136 34.2698 42.408C32.8618 40.648 32.1578 38.184 32.1578 35.016C32.1578 30.888 32.9578 27.576 34.5578 25.08ZM36.6698 27.624C36.2538 28.872 35.9338 30.12 35.7098 31.368C35.5178 32.616 35.4218 33.784 35.4218 34.872C35.4218 35.928 35.5018 36.904 35.6618 37.8C35.8218 38.664 36.0938 39.528 36.4778 40.392C36.8618 41.224 37.4378 41.896 38.2058 42.408C38.9738 42.888 39.8858 43.128 40.9418 43.128C43.0858 43.128 44.8778 42.248 46.3178 40.488C47.7898 38.728 48.5258 36.6 48.5258 34.104C48.5258 31.608 47.8538 29.192 46.5098 26.856C45.1978 24.488 43.5818 23.304 41.6618 23.304C40.5098 23.304 39.5018 23.704 38.6378 24.504C37.7738 25.304 37.1178 26.344 36.6698 27.624ZM54.921 22.44C55.465 21.704 56.153 21.336 56.985 21.336C57.305 21.336 57.625 21.416 57.945 21.576C58.617 25.864 60.025 29.8 62.169 33.384C63.577 30.76 65.273 27.064 67.257 22.296C68.025 21.88 68.633 21.672 69.081 21.672C69.561 21.672 69.945 21.72 70.233 21.816C69.593 23.896 68.841 25.832 67.977 27.624C67.113 29.416 66.297 31.064 65.529 32.568C64.761 34.072 64.201 35.176 63.849 35.88C64.745 37 65.497 37.896 66.105 38.568C66.745 39.208 67.625 39.88 68.745 40.584C70.217 41.544 71.609 42.024 72.921 42.024C73.593 42.024 74.057 42.152 74.313 42.408C73.961 43.496 73.113 44.04 71.769 44.04C69.529 44.04 67.289 43.16 65.049 41.4C64.217 40.728 63.721 40.328 63.561 40.2C63.433 40.04 63.001 39.608 62.265 38.904C62.009 39.288 61.641 39.96 61.161 40.92C60.713 41.88 60.329 42.648 60.009 43.224C59.689 43.768 59.257 44.2 58.713 44.52C58.169 44.808 57.689 44.952 57.273 44.952C56.889 44.952 56.521 44.904 56.169 44.808C56.681 43.752 57.433 42.312 58.425 40.488C59.449 38.664 60.137 37.416 60.489 36.744C58.889 34.248 57.609 31.928 56.649 29.784C55.721 27.608 55.145 25.16 54.921 22.44Z" fill="#5CC7A3" fill-opacity="0.85"/>
<path d="M49.576 52.024C49.864 51.256 50.536 50.872 51.592 50.872C51.912 50.872 52.2 50.936 52.456 51.064C53.544 53.464 54.792 56.84 56.2 61.192C57.608 65.544 59.032 69.608 60.472 73.384C61.944 77.16 63.576 80.344 65.368 82.936C67.128 82.424 69.016 78.408 71.032 70.888C71.864 67.784 72.712 64.696 73.576 61.624C74.44 58.552 75.416 55.96 76.504 53.848C77.592 51.736 78.712 50.68 79.864 50.68C80.312 50.68 80.792 50.808 81.304 51.064C80.472 51.864 79.592 53.64 78.664 56.392C77.736 59.144 76.824 62.152 75.928 65.416C75.032 68.648 74.072 71.864 73.048 75.064C72.056 78.232 70.856 80.872 69.448 82.984C68.072 85.096 66.6 86.152 65.032 86.152C62.856 86.152 60.36 82.472 57.544 75.112C56.04 71.272 54.904 68.248 54.136 66.04C53.368 63.8 52.472 61.096 51.448 57.928C50.456 54.728 49.832 52.76 49.576 52.024ZM87.49 49.672C87.458 50.408 87.442 51.224 87.442 52.12C87.442 53.016 87.49 53.944 87.586 54.904C87.138 55.416 86.53 55.672 85.762 55.672C84.802 55.672 84.322 54.904 84.322 53.368C84.322 53.304 84.322 53.064 84.322 52.648C84.322 52.232 84.322 51.864 84.322 51.544C84.354 51.192 84.418 50.792 84.514 50.344C84.738 49.576 85.234 49.192 86.002 49.192C86.77 49.192 87.266 49.352 87.49 49.672ZM84.418 73.192C84.418 66.92 84.738 63.304 85.378 62.344C85.602 61.992 85.874 61.816 86.194 61.816C86.514 61.816 87.042 61.992 87.778 62.344C87.618 65.064 87.538 68.024 87.538 71.224C87.538 71.224 87.57 74.76 87.634 81.832C87.634 82.824 87.41 83.528 86.962 83.944C86.546 84.328 86.146 84.52 85.762 84.52C85.41 84.52 85.042 84.424 84.658 84.232C84.498 80.072 84.418 76.392 84.418 73.192ZM98.3954 80.296L98.5394 83.032C98.5394 83.736 98.3314 84.232 97.9154 84.52C97.5314 84.776 97.1314 84.904 96.7154 84.904C96.3314 84.904 95.9314 84.84 95.5154 84.712C94.8114 81 94.2674 76.376 93.8834 70.84C93.5314 65.304 93.3234 62.168 93.2594 61.432C93.7394 60.984 94.2354 60.76 94.7474 60.76C95.2914 60.76 95.7714 60.824 96.1874 60.952C96.3154 61.88 96.4114 63.928 96.4754 67.096C96.5394 70.264 96.6194 72.248 96.7154 73.048C97.1634 70.36 97.9634 67.848 99.1154 65.512C99.7554 64.2 100.587 63.16 101.611 62.392C102.667 61.592 103.787 61.192 104.971 61.192C106.187 61.192 107.291 61.736 108.283 62.824C109.307 63.88 109.819 64.84 109.819 65.704C109.819 66.024 109.627 66.28 109.243 66.472C108.859 66.632 108.427 66.712 107.947 66.712C107.499 66.712 107.147 66.536 106.891 66.184C106.635 65.832 106.459 65.448 106.363 65.032C106.267 64.584 106.059 64.184 105.739 63.832C105.419 63.48 104.987 63.304 104.443 63.304C103.003 63.304 101.771 64.6 100.747 67.192C99.1794 71.064 98.3954 75.432 98.3954 80.296ZM116.224 49.672C116.192 50.408 116.176 51.224 116.176 52.12C116.176 53.016 116.224 53.944 116.32 54.904C115.872 55.416 115.264 55.672 114.496 55.672C113.536 55.672 113.056 54.904 113.056 53.368C113.056 53.304 113.056 53.064 113.056 52.648C113.056 52.232 113.056 51.864 113.056 51.544C113.088 51.192 113.152 50.792 113.248 50.344C113.472 49.576 113.968 49.192 114.736 49.192C115.504 49.192 116 49.352 116.224 49.672ZM113.152 73.192C113.152 66.92 113.472 63.304 114.112 62.344C114.336 61.992 114.608 61.816 114.928 61.816C115.248 61.816 115.776 61.992 116.512 62.344C116.352 65.064 116.272 68.024 116.272 71.224C116.272 71.224 116.304 74.76 116.368 81.832C116.368 82.824 116.144 83.528 115.696 83.944C115.28 84.328 114.88 84.52 114.496 84.52C114.144 84.52 113.776 84.424 113.392 84.232C113.232 80.072 113.152 76.392 113.152 73.192ZM140.474 46.552C139.258 57.56 138.65 65.416 138.65 70.12C138.65 74.792 139.082 79.464 139.946 84.136C139.306 84.776 138.746 85.096 138.266 85.096C137.786 85.096 137.386 85.032 137.066 84.904C136.394 82.536 135.994 79.96 135.866 77.176C135.098 78.392 134.522 79.256 134.138 79.768C133.786 80.28 133.162 81.032 132.266 82.024C130.634 83.944 128.698 84.904 126.458 84.904C124.762 84.904 123.53 84.12 122.762 82.552C122.026 80.952 121.658 78.92 121.658 76.456C121.658 73.96 121.93 71.592 122.474 69.352C123.05 67.08 124.026 65.128 125.402 63.496C126.778 61.832 128.474 61 130.49 61C131.706 61 132.826 61.256 133.85 61.768C134.874 62.28 135.578 62.968 135.962 63.832C136.026 62.968 136.09 61.64 136.154 59.848C136.218 58.056 136.282 56.472 136.346 55.096C136.442 53.688 136.586 52.264 136.778 50.824C137.13 47.752 137.914 46.216 139.13 46.216C139.546 46.216 139.994 46.328 140.474 46.552ZM134.858 65.56C134.474 64.856 133.946 64.344 133.274 64.024C132.602 63.672 131.706 63.496 130.586 63.496C129.498 63.496 128.474 64.12 127.514 65.368C125.626 67.832 124.682 71.4 124.682 76.072C124.682 77.576 124.922 79.08 125.402 80.584C125.882 82.056 126.586 82.792 127.514 82.792C128.858 82.792 130.17 81.912 131.45 80.152C132.73 78.392 133.722 76.376 134.426 74.104C135.13 71.8 135.482 69.736 135.482 67.912C135.482 67.048 135.274 66.264 134.858 65.56ZM148.521 49.672C148.489 50.408 148.473 51.224 148.473 52.12C148.473 53.016 148.521 53.944 148.617 54.904C148.169 55.416 147.561 55.672 146.793 55.672C145.833 55.672 145.353 54.904 145.353 53.368C145.353 53.304 145.353 53.064 145.353 52.648C145.353 52.232 145.353 51.864 145.353 51.544C145.385 51.192 145.449 50.792 145.545 50.344C145.769 49.576 146.265 49.192 147.033 49.192C147.801 49.192 148.297 49.352 148.521 49.672ZM145.449 73.192C145.449 66.92 145.769 63.304 146.409 62.344C146.633 61.992 146.905 61.816 147.225 61.816C147.545 61.816 148.073 61.992 148.809 62.344C148.649 65.064 148.569 68.024 148.569 71.224C148.569 71.224 148.601 74.76 148.665 81.832C148.665 82.824 148.441 83.528 147.993 83.944C147.577 84.328 147.177 84.52 146.793 84.52C146.441 84.52 146.073 84.424 145.689 84.232C145.529 80.072 145.449 76.392 145.449 73.192ZM166.771 65.8C166.483 65.064 165.939 64.488 165.139 64.072C164.339 63.656 163.347 63.448 162.163 63.448C160.979 63.448 159.859 63.8 158.803 64.504C157.779 65.208 157.267 66.152 157.267 67.336C157.267 68.52 157.747 69.464 158.707 70.168C159.699 70.84 160.883 71.352 162.259 71.704C163.667 72.056 165.075 72.44 166.483 72.856C167.891 73.24 169.075 73.896 170.035 74.824C171.027 75.72 171.523 76.904 171.523 78.376C171.523 80.52 170.627 82.152 168.835 83.272C167.075 84.392 164.947 84.952 162.451 84.952C160.979 84.952 159.043 84.552 156.643 83.752C154.275 82.952 153.091 81.992 153.091 80.872C153.091 80.04 153.795 79.624 155.203 79.624C155.619 79.624 156.163 79.88 156.835 80.392C158.883 81.896 160.979 82.648 163.123 82.648C164.275 82.648 165.267 82.456 166.099 82.072C167.635 81.336 168.403 80.152 168.403 78.52C168.403 77.528 167.907 76.728 166.915 76.12C165.955 75.512 164.771 75.032 163.363 74.68C161.987 74.328 160.595 73.944 159.187 73.528C157.779 73.112 156.579 72.424 155.587 71.464C154.627 70.472 154.147 69.224 154.147 67.72C154.147 65.768 155.027 64.184 156.787 62.968C158.547 61.752 160.723 61.144 163.315 61.144C165.075 61.144 166.659 61.608 168.067 62.536C169.507 63.432 170.227 64.744 170.227 66.472C170.227 67.624 169.571 68.2 168.259 68.2C167.715 68.2 167.347 68.104 167.155 67.912C166.995 67.72 166.899 67.384 166.867 66.904C166.867 66.392 166.835 66.024 166.771 65.8Z" fill="#7E7E7E"/>
</svg>
