<svg width="266" height="205" viewBox="0 0 266 205" fill="none" xmlns="http://www.w3.org/2000/svg">
<g clip-path="url(#clip0_605_381)">
<path d="M261.491 177.85C260.373 168.875 254.801 160.033 246.228 157.112C249.609 166.35 249.608 176.483 246.226 185.72C244.908 189.278 243.072 193.098 244.311 196.684C245.082 198.915 246.968 200.622 249.077 201.689C251.185 202.756 253.525 203.265 255.836 203.763L256.291 204.139C259.959 195.87 262.609 186.825 261.491 177.85Z" fill="#F0F0F0"/>
<path d="M199.565 196.889C206.999 194.656 214.902 192.327 220.798 187.018C226.066 182.274 229.623 175.03 227.44 167.915C225.262 160.815 218.738 156.081 212.003 153.726C208.182 152.391 204.186 151.65 200.19 151.068C195.847 150.435 191.485 149.917 187.125 149.418C169.47 147.398 151.748 146.164 133.96 145.716C125.183 145.495 116.408 145.5 107.629 145.628C99.7896 145.742 91.5329 145.739 84.2601 142.406C78.6045 139.814 73.4715 135.099 71.8956 128.902C70.0765 121.749 73.4318 114.465 78.2449 109.285C80.782 106.554 83.7471 104.256 86.8059 102.143C90.1242 99.8504 93.5583 97.7202 97.0667 95.7317C103.977 91.8172 111.201 88.4858 118.664 85.7721C122.346 84.4329 126.083 83.2776 129.852 82.2118C133.034 81.3118 136.226 80.4105 139.302 79.1843C145.248 76.8139 150.903 72.7986 152.415 66.2159C153.848 59.9771 151.432 53.2044 147.197 48.5697C142.297 43.2077 134.909 40.8571 127.825 40.4768C119.873 40.0498 112.104 42.0406 104.63 44.5671C96.6583 47.2618 88.8584 50.3603 80.7181 52.543C72.6459 54.7053 64.4176 56.2353 56.1078 57.119C52.0399 57.5523 47.849 58.0415 43.7569 57.7098C40.3273 57.4318 36.9152 56.4229 34.3877 53.9882C32.2204 51.9007 30.9294 49.0316 31.3732 46.0039C31.4539 45.454 32.289 45.6878 32.2089 46.2344C31.6686 49.9199 34.1732 53.3161 37.2595 55.0557C40.8265 57.0663 45.167 57.0691 49.1383 56.8391C57.7492 56.3189 66.3017 55.0822 74.7074 53.1419C82.9668 51.2549 90.9313 48.5573 98.8868 45.6757C106.442 42.9389 114.167 40.2678 122.239 39.675C129.243 39.1607 136.611 40.1813 142.712 43.8426C148.075 47.0603 152.018 52.4264 153.275 58.5842C154.502 64.6014 152.802 70.6579 148.248 74.8569C143.534 79.2046 137.069 81.0633 131.044 82.7752C123.403 84.9465 115.926 87.4845 108.688 90.78C101.352 94.1109 94.3159 98.0675 87.6584 102.606C81.2321 106.999 74.8902 112.526 72.8577 120.362C71.911 124.013 72.0858 127.884 73.6699 131.332C75.0785 134.398 77.3982 136.977 80.1006 138.966C86.5484 143.712 94.6748 144.686 102.463 144.783C111.21 144.892 119.958 144.596 128.708 144.74C146.541 145.033 164.337 146.119 182.097 147.997C186.547 148.469 190.991 148.989 195.43 149.56C199.423 150.073 203.429 150.583 207.354 151.494C214.334 153.115 221.126 156.23 225.464 162.15C227.389 164.716 228.582 167.756 228.915 170.947C229.219 174.277 228.404 177.613 226.899 180.575C223.567 187.132 217.327 191.302 210.701 194.042C207.151 195.509 203.47 196.621 199.795 197.725C199.26 197.885 199.031 197.049 199.565 196.889L199.565 196.889Z" fill="#F2F2F2"/>
<path d="M31.9328 53.0168C35.7617 53.0168 38.8657 49.912 38.8657 46.082C38.8657 42.252 35.7617 39.1472 31.9328 39.1472C28.1039 39.1472 25 42.252 25 46.082C25 49.912 28.1039 53.0168 31.9328 53.0168Z" fill="#F2F2F2"/>
<path d="M80.0294 66.164C83.8583 66.164 86.9622 63.0592 86.9622 59.2292C86.9622 55.3992 83.8583 52.2944 80.0294 52.2944C76.2005 52.2944 73.0966 55.3992 73.0966 59.2292C73.0966 63.0592 76.2005 66.164 80.0294 66.164Z" fill="#F2F2F2"/>
<path d="M120.76 39.8695C124.589 39.8695 127.693 36.7647 127.693 32.9348C127.693 29.1048 124.589 26 120.76 26C116.931 26 113.827 29.1048 113.827 32.9348C113.827 36.7647 116.931 39.8695 120.76 39.8695Z" fill="#F2F2F2"/>
<path d="M146.18 69.3422C150.009 69.3422 153.113 66.2374 153.113 62.4074C153.113 58.5775 150.009 55.4727 146.18 55.4727C142.351 55.4727 139.247 58.5775 139.247 62.4074C139.247 66.2374 142.351 69.3422 146.18 69.3422Z" fill="#F2F2F2"/>
<path d="M111.805 103.438C115.634 103.438 118.738 100.333 118.738 96.5034C118.738 92.6734 115.634 89.5686 111.805 89.5686C107.976 89.5686 104.872 92.6734 104.872 96.5034C104.872 100.333 107.976 103.438 111.805 103.438Z" fill="#F2F2F2"/>
<path d="M68.1858 119.908C72.0147 119.908 75.1187 116.804 75.1187 112.974C75.1187 109.144 72.0147 106.039 68.1858 106.039C64.3569 106.039 61.253 109.144 61.253 112.974C61.253 116.804 64.3569 119.908 68.1858 119.908Z" fill="#F2F2F2"/>
<path d="M114.405 145.625C118.234 145.625 121.338 142.52 121.338 138.69C121.338 134.86 118.234 131.755 114.405 131.755C110.576 131.755 107.472 134.86 107.472 138.69C107.472 142.52 110.576 145.625 114.405 145.625Z" fill="#F2F2F2"/>
<path d="M222.153 156.894C225.982 156.894 229.086 153.789 229.086 149.959C229.086 146.129 225.982 143.024 222.153 143.024C218.324 143.024 215.22 146.129 215.22 149.959C215.22 153.789 218.324 156.894 222.153 156.894Z" fill="#F2F2F2"/>
<path d="M246.143 157.282C251.135 162.867 254.239 169.88 255.011 177.326C255.206 178.926 255.147 180.547 254.837 182.128C254.484 183.659 253.727 185.068 252.645 186.208C251.657 187.292 250.521 188.286 249.815 189.59C249.463 190.263 249.257 191.003 249.212 191.761C249.166 192.518 249.282 193.277 249.551 193.987C250.175 195.774 251.405 197.23 252.657 198.613C254.047 200.148 255.516 201.72 256.107 203.755C256.179 204.001 256.558 203.876 256.486 203.63C255.458 200.09 252.015 198.079 250.374 194.89C249.608 193.402 249.286 191.674 250.004 190.104C250.632 188.73 251.803 187.704 252.812 186.616C253.885 185.519 254.671 184.177 255.104 182.706C255.494 181.145 255.616 179.53 255.463 177.928C255.177 174.317 254.324 170.774 252.935 167.428C251.372 163.6 249.164 160.067 246.407 156.983C246.236 156.792 245.973 157.092 246.143 157.282H246.143Z" fill="white"/>
<path d="M254.904 174.914C256.138 174.615 257.225 173.888 257.971 172.862C258.717 171.837 259.074 170.58 258.978 169.316C258.958 169.061 258.559 169.08 258.579 169.336C258.671 170.513 258.338 171.684 257.641 172.637C256.945 173.591 255.929 174.264 254.779 174.535C254.529 174.595 254.655 174.973 254.904 174.914V174.914Z" fill="white"/>
<path d="M253.218 185.725C250.99 184.397 249.345 182.279 248.611 179.793C248.539 179.547 248.16 179.672 248.232 179.918C249.001 182.503 250.717 184.704 253.039 186.081C253.26 186.212 253.439 185.855 253.218 185.725V185.725Z" fill="white"/>
<path d="M251.001 163.978C250.548 164.193 250.048 164.292 249.547 164.266C249.046 164.241 248.559 164.092 248.13 163.832C247.91 163.698 247.732 164.055 247.951 164.188C248.426 164.473 248.964 164.637 249.518 164.666C250.071 164.696 250.624 164.589 251.126 164.356C251.176 164.338 251.216 164.302 251.24 164.255C251.263 164.208 251.268 164.155 251.253 164.104C251.237 164.054 251.201 164.013 251.153 163.989C251.106 163.965 251.052 163.961 251.001 163.978V163.978Z" fill="white"/>
<path d="M220.094 173.142C220.229 173.229 220.364 173.317 220.499 173.408C222.304 174.593 224.01 175.923 225.6 177.384C225.725 177.495 225.85 177.61 225.971 177.724C229.764 181.285 232.861 185.518 235.106 190.208C235.998 192.075 236.746 194.007 237.344 195.988C238.169 198.723 238.847 201.754 240.481 203.991C240.649 204.226 240.831 204.451 241.027 204.664H255.797C255.83 204.647 255.864 204.633 255.898 204.616L256.487 204.643C256.464 204.539 256.437 204.431 256.413 204.327C256.4 204.267 256.383 204.206 256.369 204.146C256.359 204.105 256.349 204.065 256.342 204.028C256.339 204.014 256.336 204.001 256.332 203.991C256.326 203.954 256.315 203.92 256.309 203.886C256.16 203.284 256.008 202.682 255.85 202.08C255.85 202.077 255.85 202.077 255.847 202.073C254.637 197.488 253.033 192.963 250.792 188.825C250.725 188.701 250.658 188.573 250.583 188.449C249.563 186.589 248.392 184.816 247.082 183.147C246.362 182.235 245.596 181.361 244.787 180.526C242.694 178.374 240.274 176.565 237.617 175.164C232.32 172.372 226.187 171.302 220.525 173.007C220.381 173.051 220.239 173.095 220.094 173.142Z" fill="#F0F0F0"/>
<path d="M220.127 173.329C227.482 174.787 234.19 178.522 239.297 184.003C240.418 185.163 241.348 186.493 242.054 187.942C242.695 189.376 242.941 190.956 242.764 192.517C242.629 193.976 242.322 195.452 242.544 196.918C242.669 197.667 242.951 198.381 243.372 199.014C243.792 199.646 244.342 200.182 244.985 200.588C246.561 201.639 248.421 202.063 250.255 202.414C252.291 202.804 254.411 203.177 256.11 204.446C256.316 204.6 256.543 204.272 256.338 204.118C253.382 201.91 249.42 202.373 246.186 200.814C244.677 200.086 243.379 198.9 243.005 197.215C242.678 195.74 242.994 194.218 243.144 192.742C243.338 191.221 243.157 189.677 242.616 188.243C241.986 186.762 241.109 185.399 240.021 184.212C237.615 181.501 234.797 179.184 231.67 177.347C228.113 175.231 224.22 173.737 220.158 172.932C219.907 172.882 219.878 173.28 220.127 173.329H220.127Z" fill="white"/>
<path d="M237.756 182.141C238.561 181.161 238.991 179.927 238.968 178.66C238.946 177.393 238.473 176.175 237.634 175.223C237.463 175.031 237.157 175.287 237.327 175.479C238.11 176.363 238.551 177.498 238.569 178.678C238.588 179.858 238.183 181.006 237.428 181.915C237.264 182.112 237.594 182.338 237.756 182.141V182.141Z" fill="white"/>
<path d="M242.931 191.787C240.35 192.065 237.76 191.363 235.675 189.82C235.469 189.666 235.242 189.994 235.448 190.147C237.62 191.749 240.318 192.475 243.002 192.179C243.258 192.15 243.185 191.758 242.931 191.787V191.787Z" fill="white"/>
<path d="M228.045 175.755C227.813 176.199 227.474 176.578 227.058 176.859C226.643 177.14 226.164 177.314 225.665 177.364C225.409 177.39 225.482 177.782 225.736 177.757C226.287 177.698 226.816 177.506 227.276 177.197C227.735 176.887 228.112 176.47 228.373 175.982C228.402 175.938 228.412 175.885 228.403 175.833C228.393 175.782 228.365 175.736 228.323 175.705C228.279 175.675 228.225 175.663 228.173 175.673C228.121 175.682 228.075 175.712 228.045 175.755V175.755Z" fill="white"/>
<path d="M147.831 10.9675C147.475 11.4108 147.221 11.9266 147.086 12.4787C146.951 13.0308 146.939 13.6056 147.051 14.1628C147.163 14.7199 147.396 15.2458 147.733 15.7033C148.071 16.1609 148.505 16.5391 149.004 16.8111L146.728 30.4352L153.299 27.5236L154.454 15.0324C154.856 14.164 154.925 13.1786 154.648 12.2627C154.371 11.3469 153.767 10.5643 152.951 10.0632C152.135 9.56218 151.163 9.37748 150.219 9.54414C149.275 9.71079 148.426 10.2172 147.831 10.9675V10.9675Z" fill="#9E616A"/>
<path d="M206.951 199.452L201.577 199.451L199.021 178.76L206.952 178.76L206.951 199.452Z" fill="#9E616A"/>
<path d="M208.321 204.652L190.995 204.651V204.432C190.995 202.647 191.706 200.934 192.97 199.672C194.235 198.409 195.95 197.7 197.739 197.7H197.739L208.321 197.7L208.321 204.652Z" fill="#2F2E41"/>
<path d="M170.895 199.452L165.521 199.451L162.965 178.76L170.896 178.76L170.895 199.452Z" fill="#9E616A"/>
<path d="M172.265 204.652L154.939 204.651V204.432C154.939 202.647 155.65 200.934 156.914 199.672C158.179 198.409 159.894 197.7 161.683 197.7H161.683L172.265 197.7L172.265 204.652Z" fill="#2F2E41"/>
<path d="M168.655 102.9L166.646 105.537C166.646 105.537 166.464 106.768 163.418 116.802L161.747 192.216H171.856L185.369 131.876L199.393 193.427L208.156 193.943L207.744 123.984C207.744 123.984 208.851 109.591 204.928 106.918C201.004 104.245 168.655 102.9 168.655 102.9Z" fill="#2F2E41"/>
<path d="M182.212 39.5259C188.07 39.5259 192.82 34.7844 192.82 28.9356C192.82 23.0867 188.07 18.3452 182.212 18.3452C176.353 18.3452 171.604 23.0867 171.604 28.9356C171.604 34.7844 176.353 39.5259 182.212 39.5259Z" fill="#9E616A"/>
<path d="M192.884 30.5936L192.708 30.2439C192.438 29.703 190.195 25.2061 189.913 24.0499L187.09 24.3814L179.739 24.3825L180.76 22.8529L178.06 23.2046C177.072 23.3243 176.129 23.6795 175.308 24.2401C174.804 24.5741 174.379 25.0123 174.06 25.525C173.095 27.1741 171.621 29.8717 171.606 29.8988L171.465 30.1568L170.241 28.1001C170.224 28.0203 168.707 20.1168 173.786 17.4363C174.048 16.9051 176.281 12.7266 181.557 13.0086C182.137 12.3486 182.954 11.9431 183.831 11.88C185.036 11.8172 186.287 12.4492 187.543 13.766C189.212 15.5151 191.497 17.9104 192.879 20.57L193.261 21.113C193.802 21.8902 194.07 22.8248 194.023 23.7705C194.317 25.2797 194.213 26.8392 193.72 28.2961L192.884 30.5936Z" fill="#2F2E41"/>
<path d="M190.294 41.5186L196.164 44.7574L207.695 47.9806L204.253 78.1046L204.879 107.778C204.879 107.778 185.362 121.126 166.646 105.537V68.1872L167.753 47.9806C167.753 47.9806 172.232 46.7104 174.487 48.9015L178.764 43.3551L190.294 41.5186Z" fill="#E4E4E4"/>
<path d="M170.34 50.7561L167.753 47.9807L153.501 46.369L154.839 24.5161L147.069 18.9822L141.36 49.7468L167.731 68.1871L170.34 50.7561Z" fill="#E4E4E4"/>
<path d="M199.229 117.583C199.123 117.025 199.141 116.45 199.281 115.899C199.421 115.349 199.681 114.836 200.041 114.396C200.402 113.956 200.854 113.601 201.367 113.354C201.88 113.108 202.441 112.977 203.01 112.971L207.398 99.8716L211.835 105.519L206.988 117.093C206.935 118.048 206.534 118.951 205.859 119.63C205.184 120.309 204.283 120.718 203.327 120.778C202.37 120.839 201.425 120.547 200.67 119.958C199.915 119.369 199.402 118.524 199.229 117.583V117.583Z" fill="#9E616A"/>
<path d="M203.363 51.429L207.695 47.9807C207.695 47.9807 212.124 50.4198 213.472 54.7931C214.82 59.1665 217.179 84.0608 217.179 84.0608L210.776 116.02L203.616 111.062L207.07 85.7428L201.004 67.2403L203.363 51.429Z" fill="#E4E4E4"/>
<path d="M149.058 0H39.8108V26.5031H149.058V0Z" fill="#E6E6E6"/>
<path d="M42.6773 23.6414H146.192V2.86182H42.6773V23.6414Z" fill="white"/>
<path d="M62.3934 21.168C66.7729 21.168 70.3232 17.6236 70.3232 13.2515C70.3232 8.8793 66.7729 5.33496 62.3934 5.33496C58.0139 5.33496 54.4637 8.8793 54.4637 13.2515C54.4637 17.6236 58.0139 21.168 62.3934 21.168Z" fill="#00BFA6"/>
<path d="M134.405 10.1538H81.3559V11.8748H134.405V10.1538Z" fill="#00BFA6"/>
<path d="M134.405 14.6284H81.3559V16.3494H134.405V14.6284Z" fill="#00BFA6"/>
<path d="M0 40.2822L92.4363 47.0134V71.2431L0 69.5294V40.2822Z" fill="#E6E6E6"/>
<path d="M2.91185 66.4429L90.4182 68.5795V49.4943L2.91185 43.6353V66.4429Z" fill="white"/>
<path d="M22.1177 47.5385C23.128 47.6035 24.1119 47.8879 25.0007 48.3718C25.8921 48.8583 26.6829 49.5093 27.3311 50.2904C28.0047 51.0984 28.5323 52.0172 28.8903 53.0059C29.268 54.046 29.4607 55.144 29.4598 56.2504C29.4638 57.34 29.2708 58.4214 28.8903 59.4426C28.5373 60.3911 28.0083 61.2645 27.3311 62.0173C26.6808 62.7406 25.8873 63.3215 25.0007 63.723C24.0954 64.1288 23.1096 64.3237 22.1177 64.2928C21.1027 64.2606 20.1072 64.0053 19.2023 63.5449C18.2857 63.077 17.4688 62.4359 16.797 61.6572C16.0921 60.8432 15.5387 59.9099 15.1629 58.9014C14.7642 57.8362 14.5604 56.7081 14.5613 55.571C14.5568 54.4508 14.7608 53.3395 15.1629 52.2937C15.5338 51.3278 16.0889 50.443 16.7974 49.6882C17.4722 48.9689 18.292 48.4005 19.2027 48.0204C20.1248 47.6397 21.122 47.4749 22.1177 47.5385Z" fill="#E6E6E6"/>
<path d="M39.334 53.5337L81.9236 55.7494V57.3598L39.334 55.294V53.5337Z" fill="#E6E6E6"/>
<path d="M39.334 58.1113L81.9236 59.9366V61.547L39.334 59.8717V58.1113Z" fill="#E6E6E6"/>
<path d="M0 89.5033L92.4363 87.79V112.02L0 118.751V89.5033Z" fill="#E6E6E6"/>
<path d="M2.91185 115.398L90.4182 109.539V90.4553L2.91185 92.5919V115.398Z" fill="white"/>
<path d="M14.5676 103.076C14.6125 101.94 14.8618 100.821 15.3036 99.7725C15.7185 98.7848 16.3083 97.8798 17.0447 97.1009C17.7456 96.3568 18.586 95.7572 19.5182 95.3362C20.4402 94.9218 21.4429 94.7172 22.4538 94.7372C23.4459 94.7575 24.4205 95.0025 25.3039 95.4537C26.1725 95.9012 26.9398 96.5221 27.5582 97.2778C28.2032 98.0649 28.6955 98.9651 29.01 99.9323C29.3486 100.972 29.498 102.063 29.4511 103.155C29.4086 104.261 29.1728 105.35 28.7543 106.374C28.3586 107.345 27.7952 108.239 27.0898 109.016C26.4122 109.765 25.5969 110.377 24.688 110.819C23.7803 111.258 22.7868 111.493 21.7781 111.506C20.7792 111.518 19.7909 111.301 18.8888 110.873C17.9949 110.445 17.201 109.834 16.5584 109.08C15.8826 108.288 15.3653 107.374 15.0345 106.387C14.6763 105.322 14.518 104.199 14.5676 103.076V103.076Z" fill="#E6E6E6"/>
<path d="M39.334 99.1616L81.9236 97.4863V99.0967L39.334 100.922V99.1616Z" fill="#E6E6E6"/>
<path d="M39.334 103.739L81.9236 101.673V103.284L39.334 105.499V103.739Z" fill="#E6E6E6"/>
<path d="M265.663 205H137.276C137.187 205 137.101 204.965 137.038 204.901C136.975 204.838 136.94 204.753 136.94 204.664C136.94 204.574 136.975 204.489 137.038 204.426C137.101 204.363 137.187 204.327 137.276 204.327H265.663C265.752 204.327 265.838 204.363 265.901 204.426C265.964 204.489 266 204.574 266 204.664C266 204.753 265.964 204.838 265.901 204.901C265.838 204.965 265.752 205 265.663 205Z" fill="#CACACA"/>
<g clip-path="url(#clip1_605_381)">
<path d="M120.918 198.557C125.099 194.352 125.099 187.535 120.918 183.331C116.738 179.126 109.96 179.126 105.779 183.331C101.599 187.535 101.599 194.352 105.779 198.557C109.96 202.762 116.738 202.762 120.918 198.557Z" fill="#2F2E41"/>
<path d="M113.289 191.934C115.262 191.495 116.507 189.53 116.071 187.546C115.634 185.562 113.681 184.309 111.708 184.749C109.735 185.188 108.49 187.153 108.926 189.137C109.363 191.121 111.316 192.374 113.289 191.934Z" fill="white"/>
<path d="M111.28 188.589C111.938 188.442 112.353 187.787 112.207 187.126C112.062 186.464 111.411 186.047 110.753 186.193C110.095 186.34 109.68 186.995 109.826 187.656C109.971 188.318 110.622 188.735 111.28 188.589Z" fill="#3F3D56"/>
<path d="M112.926 183.665C108.548 183.657 105.475 182.87 105.482 178.881C105.489 174.892 109.044 171.664 113.422 171.672C117.8 171.681 121.344 174.921 121.336 178.91C121.329 182.9 117.304 183.673 112.926 183.665Z" fill="#00BFA6"/>
<path d="M130.128 192.744C128.872 197.125 125.205 200.192 121.38 202.798C120.846 203.162 120.312 203.517 119.777 203.864C119.774 203.866 119.77 203.869 119.766 203.871C119.741 203.888 119.715 203.904 119.691 203.921C119.581 203.992 119.47 204.064 119.361 204.135L119.421 204.162C119.421 204.162 119.48 204.193 119.416 204.167C119.396 204.159 119.376 204.152 119.357 204.143C117.135 203.242 114.874 202.274 113.171 200.586C111.404 198.832 110.372 196.082 111.329 193.779C111.454 193.477 111.613 193.19 111.802 192.924C111.88 192.812 111.963 192.706 112.05 192.601C112.578 191.953 113.267 191.458 114.048 191.168C114.829 190.877 115.672 190.801 116.492 190.946C117.312 191.092 118.078 191.455 118.712 191.998C119.346 192.54 119.825 193.243 120.1 194.033C120.381 191.402 118.224 189.197 116.148 187.571C114.071 185.946 111.71 184.175 111.309 181.558C111.085 180.102 111.588 178.691 112.505 177.559C112.533 177.524 112.562 177.49 112.591 177.457C113.707 176.137 115.277 175.29 116.987 175.084C120.172 174.751 123.266 176.447 125.58 178.674C129.304 182.258 131.555 187.762 130.128 192.744Z" fill="#E6E6E6"/>
<path d="M124.141 187.013C124.752 187.969 125.222 189.01 125.534 190.103C125.798 191.079 125.916 192.09 125.883 193.102C125.798 195.184 125.217 197.214 124.189 199.023C123.414 200.395 122.471 201.664 121.38 202.798C120.846 203.162 120.312 203.517 119.777 203.864C119.774 203.866 119.77 203.869 119.766 203.871C119.741 203.888 119.715 203.904 119.691 203.921C119.581 203.993 119.47 204.064 119.361 204.135C119.361 204.135 119.48 204.194 119.416 204.167C119.396 204.159 119.376 204.152 119.357 204.144C119.556 202.501 119.361 200.835 118.788 199.284C118.215 197.734 117.281 196.344 116.064 195.231C114.844 194.135 113.383 193.345 111.802 192.924C111.88 192.813 111.963 192.706 112.05 192.601C112.661 192.773 113.255 192.999 113.827 193.277C115.868 194.263 117.54 195.884 118.595 197.9C119.541 199.731 119.948 201.795 119.768 203.851C119.86 203.767 119.951 203.682 120.04 203.598C121.728 202.015 123.228 200.198 124.243 198.1C125.123 196.324 125.556 194.357 125.503 192.373C125.42 190.21 124.563 188.206 123.322 186.462C121.962 184.601 120.356 182.935 118.547 181.512C116.725 180.044 114.73 178.806 112.609 177.825C112.561 177.802 112.523 177.762 112.504 177.713C112.485 177.663 112.485 177.608 112.505 177.559C112.519 177.515 112.55 177.478 112.591 177.457C112.612 177.447 112.635 177.443 112.658 177.444C112.681 177.445 112.703 177.451 112.723 177.462C112.985 177.584 113.245 177.707 113.503 177.835C115.653 178.903 117.662 180.236 119.485 181.803C121.245 183.313 122.903 185.037 124.141 187.013Z" fill="white"/>
<path d="M25.3228 204.887C26.8196 204.887 28.0329 204.43 28.0329 203.865C28.0329 203.301 26.8196 202.843 25.3228 202.843C23.826 202.843 22.6126 203.301 22.6126 203.865C22.6126 204.43 23.826 204.887 25.3228 204.887Z" fill="#2F2E41"/>
<path d="M31.8271 204.751C33.3239 204.751 34.5373 204.293 34.5373 203.729C34.5373 203.164 33.3239 202.707 31.8271 202.707C30.3304 202.707 29.117 203.164 29.117 203.729C29.117 204.293 30.3304 204.751 31.8271 204.751Z" fill="#2F2E41"/>
<path d="M40.4619 187.57C43.023 186.085 44.7234 184.226 44.2599 183.417C43.7964 182.609 41.3445 183.157 38.7835 184.642C36.2224 186.127 34.522 187.986 34.9855 188.795C35.449 189.603 37.9009 189.055 40.4619 187.57Z" fill="#2F2E41"/>
<path d="M38.0577 191.211C39.0048 185.342 35.0416 179.811 29.2057 178.859C23.3698 177.906 17.8711 181.892 16.9241 187.762C15.977 193.631 19.9402 199.162 25.7761 200.114C31.6121 201.067 37.1107 197.081 38.0577 191.211Z" fill="#2F2E41"/>
<path d="M25.8648 197.937H22.6126V203.797H25.8648V197.937Z" fill="#2F2E41"/>
<path d="M32.3692 197.937H29.117V203.797H32.3692V197.937Z" fill="#2F2E41"/>
<path d="M27.7619 190.441C29.7826 190.441 31.4206 188.793 31.4206 186.761C31.4206 184.729 29.7826 183.081 27.7619 183.081C25.7413 183.081 24.1032 184.729 24.1032 186.761C24.1032 188.793 25.7413 190.441 27.7619 190.441Z" fill="white"/>
<path d="M27.7619 187.987C28.4355 187.987 28.9815 187.438 28.9815 186.761C28.9815 186.083 28.4355 185.534 27.7619 185.534C27.0884 185.534 26.5424 186.083 26.5424 186.761C26.5424 187.438 27.0884 187.987 27.7619 187.987Z" fill="#3F3D56"/>
<path d="M17.1066 179.474C16.2423 175.58 19.0054 171.646 23.2782 170.687C27.551 169.727 31.7156 172.105 32.5799 175.999C33.4443 179.892 30.6126 181.328 26.3397 182.288C22.0669 183.247 17.971 183.367 17.1066 179.474Z" fill="#E6E6E6"/>
<path d="M20.2696 186.798C20.6673 185.954 18.8244 184.238 16.1535 182.964C13.4825 181.69 10.9949 181.34 10.5973 182.184C10.1996 183.027 12.0424 184.744 14.7134 186.018C17.3843 187.292 19.8719 187.641 20.2696 186.798Z" fill="#2F2E41"/>
<path d="M22.2326 193.371C22.2326 194.425 24.9304 196.505 27.9239 196.505C30.9174 196.505 33.7242 193.539 33.7242 192.485C33.7242 191.431 30.9174 192.689 27.9239 192.689C24.9304 192.689 22.2326 192.317 22.2326 193.371Z" fill="white"/>
<path d="M64.8186 204.887C66.3154 204.887 67.5288 204.43 67.5288 203.865C67.5288 203.301 66.3154 202.843 64.8186 202.843C63.3219 202.843 62.1085 203.301 62.1085 203.865C62.1085 204.43 63.3219 204.887 64.8186 204.887Z" fill="#2F2E41"/>
<path d="M58.3143 204.751C59.8111 204.751 61.0245 204.293 61.0245 203.729C61.0245 203.164 59.8111 202.707 58.3143 202.707C56.8175 202.707 55.6042 203.164 55.6042 203.729C55.6042 204.293 56.8175 204.751 58.3143 204.751Z" fill="#2F2E41"/>
<path d="M55.1559 188.795C55.6194 187.986 53.919 186.127 51.3579 184.642C48.7969 183.157 46.345 182.609 45.8815 183.417C45.4181 184.226 47.1185 186.085 49.6795 187.57C52.2406 189.055 54.6924 189.603 55.1559 188.795Z" fill="#2F2E41"/>
<path d="M62.6505 200.253C68.5628 200.253 73.3556 195.433 73.3556 189.487C73.3556 183.54 68.5628 178.72 62.6505 178.72C56.7383 178.72 51.9454 183.54 51.9454 189.487C51.9454 195.433 56.7383 200.253 62.6505 200.253Z" fill="#2F2E41"/>
<path d="M67.5288 197.937H64.2766V203.797H67.5288V197.937Z" fill="#2F2E41"/>
<path d="M61.0245 197.937H57.7723V203.797H61.0245V197.937Z" fill="#2F2E41"/>
<path d="M60.1424 190.441C62.163 190.441 63.8011 188.793 63.8011 186.761C63.8011 184.729 62.163 183.081 60.1424 183.081C58.1218 183.081 56.4837 184.729 56.4837 186.761C56.4837 188.793 58.1218 190.441 60.1424 190.441Z" fill="white"/>
<path d="M59.2608 187.125C59.7387 186.645 59.7417 185.869 59.2677 185.391C58.7936 184.914 58.0219 184.916 57.5441 185.397C57.0662 185.877 57.0631 186.653 57.5372 187.13C58.0113 187.607 58.783 187.605 59.2608 187.125Z" fill="#3F3D56"/>
<path d="M63.8017 182.288C59.5289 181.328 56.6971 179.892 57.5615 175.999C58.4259 172.105 62.5904 169.727 66.8632 170.687C71.1361 171.646 73.8992 175.58 73.0348 179.474C72.1704 183.367 68.0745 183.247 63.8017 182.288Z" fill="#00BFA6"/>
<path d="M73.8449 197.694C74.7418 197.454 74.8538 194.931 74.0949 192.057C73.3361 189.183 71.9938 187.048 71.0969 187.288C70.2 187.527 70.088 190.051 70.8469 192.925C71.6057 195.798 72.948 197.933 73.8449 197.694Z" fill="#2F2E41"/>
<path d="M60.2253 192.69C58.2599 192.69 56.4172 191.431 56.4172 192.485C56.4172 193.539 58.2599 196.506 60.2253 196.506C62.1906 196.506 63.9617 194.425 63.9617 193.371C63.9617 192.317 62.1906 192.69 60.2253 192.69Z" fill="white"/>
<path d="M46.3907 171.635H45.44C44.5883 171.634 43.7719 171.293 43.1697 170.687C42.5675 170.082 42.2288 169.261 42.2278 168.404V167.601C42.2278 165.613 42.6023 163.948 43.3411 162.653C44.2364 161.147 45.2809 159.735 46.4586 158.44C47.2405 157.649 47.95 156.789 48.5784 155.871C49.0292 155.157 49.262 154.326 49.2478 153.48C49.2478 151.485 47.9559 150.516 45.298 150.516C43.8236 150.533 42.3586 150.754 40.9443 151.173C40.3989 151.33 39.8248 151.357 39.2672 151.252C38.7095 151.148 38.1836 150.915 37.7308 150.571C37.2781 150.227 36.9107 149.783 36.6578 149.272C36.4048 148.762 36.2732 148.199 36.2731 147.629V146.004C36.27 145.304 36.4687 144.619 36.8451 144.03C37.2216 143.442 37.7596 142.976 38.394 142.689C40.8917 141.617 43.5854 141.084 46.3008 141.125C49.1455 141.125 51.7135 141.606 53.9336 142.553C56.1577 143.503 57.9149 144.842 59.1562 146.534C60.3939 148.214 61.0517 150.255 61.0295 152.345C61.0295 154.59 60.4201 156.545 59.2183 158.157C58.0296 159.752 56.3255 161.498 54.1535 163.347C53.0091 164.304 51.9246 165.332 50.9063 166.424C50.2486 167.136 49.7838 168.006 49.5563 168.951C49.4296 169.703 49.042 170.385 48.4624 170.876C47.8827 171.368 47.1487 171.636 46.3907 171.635V171.635Z" fill="#00BFA6"/>
<path d="M45.8621 186.828H45.7367C44.1584 186.827 42.6451 186.195 41.5295 185.072C40.4138 183.95 39.7871 182.427 39.7871 180.84C39.7871 179.252 40.4138 177.73 41.5295 176.607C42.6451 175.484 44.1584 174.853 45.7367 174.852H45.8621C46.6442 174.852 47.4188 175.006 48.1416 175.307C48.8643 175.607 49.5211 176.048 50.0743 176.604C50.6275 177.161 51.0664 177.821 51.3658 178.548C51.6653 179.274 51.8194 180.053 51.8194 180.84C51.8194 181.626 51.6653 182.405 51.3658 183.132C51.0664 183.859 50.6275 184.519 50.0743 185.075C49.5211 185.631 48.8643 186.072 48.1416 186.373C47.4188 186.674 46.6442 186.828 45.8621 186.828Z" fill="#00BFA6"/>
<path d="M84.5526 205H7.24857C7.18264 205 7.11942 204.974 7.07281 204.927C7.02619 204.88 7 204.816 7 204.75C7 204.684 7.02619 204.62 7.07281 204.573C7.11942 204.526 7.18264 204.5 7.24857 204.5H84.5526C84.6185 204.5 84.6817 204.526 84.7283 204.573C84.775 204.62 84.8011 204.684 84.8011 204.75C84.8011 204.816 84.775 204.88 84.7283 204.927C84.6817 204.974 84.6185 205 84.5526 205Z" fill="#CCCCCC"/>
<path d="M136.751 205H95.4895C95.4235 205 95.3603 204.974 95.3137 204.927C95.2671 204.88 95.2409 204.816 95.2409 204.75C95.2409 204.684 95.2671 204.62 95.3137 204.573C95.3603 204.526 95.4235 204.5 95.4895 204.5H136.751C136.817 204.5 136.881 204.526 136.927 204.573C136.974 204.62 137 204.684 137 204.75C137 204.816 136.974 204.88 136.927 204.927C136.881 204.974 136.817 205 136.751 205Z" fill="#CCCCCC"/>
<path d="M111.142 197.697C114.097 197.639 116.479 196.836 116.461 195.903C116.442 194.969 114.032 194.26 111.076 194.318C108.121 194.376 105.739 195.18 105.758 196.113C105.776 197.046 108.186 197.756 111.142 197.697Z" fill="#2F2E41"/>
<path d="M108.455 158.25H101.992C101.663 158.25 101.347 158.118 101.114 157.883C100.881 157.649 100.75 157.331 100.75 157V150.5C100.75 150.169 100.881 149.851 101.114 149.617C101.347 149.382 101.663 149.25 101.992 149.25H108.455C108.785 149.25 109.1 149.382 109.333 149.617C109.566 149.851 109.698 150.169 109.698 150.5V157C109.698 157.331 109.566 157.649 109.333 157.883C109.1 158.118 108.785 158.25 108.455 158.25ZM101.992 149.75C101.795 149.75 101.605 149.829 101.465 149.97C101.325 150.111 101.247 150.301 101.247 150.5V157C101.247 157.199 101.325 157.389 101.465 157.53C101.605 157.671 101.795 157.75 101.992 157.75H108.455C108.653 157.75 108.842 157.671 108.982 157.53C109.122 157.389 109.201 157.199 109.201 157V150.5C109.201 150.301 109.122 150.111 108.982 149.97C108.842 149.829 108.653 149.75 108.455 149.75H101.992Z" fill="#F2F2F2"/>
<path d="M111.438 154H104.975C104.646 154 104.33 153.868 104.097 153.633C103.864 153.399 103.733 153.081 103.732 152.75V146.25C103.733 145.919 103.864 145.601 104.097 145.367C104.33 145.132 104.646 145 104.975 145H111.438C111.767 145 112.083 145.132 112.316 145.367C112.549 145.601 112.68 145.919 112.681 146.25V152.75C112.68 153.081 112.549 153.399 112.316 153.633C112.083 153.868 111.767 154 111.438 154V154ZM104.975 145.5C104.777 145.5 104.588 145.579 104.448 145.72C104.308 145.861 104.23 146.051 104.229 146.25V152.75C104.23 152.949 104.308 153.139 104.448 153.28C104.588 153.421 104.777 153.5 104.975 153.5H111.438C111.636 153.5 111.825 153.421 111.965 153.28C112.105 153.139 112.183 152.949 112.184 152.75V146.25C112.183 146.051 112.105 145.861 111.965 145.72C111.825 145.579 111.636 145.5 111.438 145.5H104.975Z" fill="#F2F2F2"/>
<path d="M60.4818 133.25H54.0191C53.6896 133.25 53.3737 133.118 53.1407 132.883C52.9077 132.649 52.7767 132.331 52.7763 132V125.5C52.7767 125.169 52.9077 124.851 53.1407 124.617C53.3737 124.382 53.6896 124.25 54.0191 124.25H60.4818C60.8113 124.25 61.1272 124.382 61.3602 124.617C61.5932 124.851 61.7243 125.169 61.7247 125.5V132C61.7243 132.331 61.5932 132.649 61.3602 132.883C61.1272 133.118 60.8113 133.25 60.4818 133.25V133.25ZM54.0191 124.75C53.8214 124.75 53.6319 124.829 53.4921 124.97C53.3523 125.111 53.2736 125.301 53.2734 125.5V132C53.2736 132.199 53.3523 132.389 53.4921 132.53C53.6319 132.671 53.8214 132.75 54.0191 132.75H60.4818C60.6795 132.75 60.8691 132.671 61.0089 132.53C61.1487 132.389 61.2273 132.199 61.2275 132V125.5C61.2273 125.301 61.1487 125.111 61.0089 124.97C60.8691 124.829 60.6795 124.75 60.4818 124.75H54.0191Z" fill="#F2F2F2"/>
<path d="M56.5047 130H50.042C49.7125 130 49.3966 129.868 49.1636 129.633C48.9306 129.399 48.7996 129.081 48.7992 128.75V122.25C48.7996 121.919 48.9306 121.601 49.1636 121.367C49.3966 121.132 49.7125 121 50.042 121H56.5047C56.8343 121 57.1501 121.132 57.3831 121.367C57.6161 121.601 57.7472 121.919 57.7476 122.25V128.75C57.7472 129.081 57.6161 129.399 57.3831 129.633C57.1501 129.868 56.8343 130 56.5047 130V130ZM50.042 121.5C49.8443 121.5 49.6548 121.579 49.515 121.72C49.3752 121.861 49.2965 122.051 49.2963 122.25V128.75C49.2965 128.949 49.3752 129.139 49.515 129.28C49.6548 129.421 49.8443 129.5 50.042 129.5H56.5047C56.7025 129.5 56.892 129.421 57.0318 129.28C57.1716 129.139 57.2502 128.949 57.2504 128.75V122.25C57.2502 122.051 57.1716 121.861 57.0318 121.72C56.892 121.579 56.7025 121.5 56.5047 121.5H50.042Z" fill="#F2F2F2"/>
<path d="M86.8445 168.409C87.7322 168.409 88.4519 167.685 88.4519 166.793C88.4519 165.9 87.7322 165.176 86.8445 165.176C85.9567 165.176 85.237 165.9 85.237 166.793C85.237 167.685 85.9567 168.409 86.8445 168.409Z" fill="#F2F2F2"/>
<path d="M22.2173 162.659C23.1051 162.659 23.8248 161.935 23.8248 161.043C23.8248 160.15 23.1051 159.426 22.2173 159.426C21.3296 159.426 20.6099 160.15 20.6099 161.043C20.6099 161.935 21.3296 162.659 22.2173 162.659Z" fill="#F2F2F2"/>
<path d="M130.592 176.659C131.48 176.659 132.2 175.935 132.2 175.043C132.2 174.15 131.48 173.426 130.592 173.426C129.704 173.426 128.985 174.15 128.985 175.043C128.985 175.935 129.704 176.659 130.592 176.659Z" fill="#F2F2F2"/>
</g>
</g>
<defs>
<clipPath id="clip0_605_381">
<rect width="266" height="205" fill="white"/>
</clipPath>
<clipPath id="clip1_605_381">
<rect width="130" height="84" fill="white" transform="translate(7 121)"/>
</clipPath>
</defs>
</svg>
