<svg width="187" height="127" viewBox="0 0 187 127" fill="none" xmlns="http://www.w3.org/2000/svg">
<g clip-path="url(#clip0_407_323)">
<path opacity="0.1" d="M123.995 122.301C153.009 122.301 176.53 120.122 176.53 117.434C176.53 114.746 153.009 112.567 123.995 112.567C94.9816 112.567 71.4612 114.746 71.4612 117.434C71.4612 120.122 94.9816 122.301 123.995 122.301Z" fill="#00BFA6"/>
<path opacity="0.1" d="M108.648 17.8595C96.6604 17.5399 85.2416 14.5802 74.3397 11.3409C63.4378 8.10154 52.6362 4.51644 40.9348 2.79995C33.4082 1.6966 24.8028 1.53986 18.738 4.62708C12.904 7.59597 11.0173 12.7239 10.0037 17.48C9.24103 21.0589 8.79278 24.8269 10.8818 28.1769C12.3336 30.5035 14.9094 32.4581 16.6907 34.6863C22.891 42.4405 18.5088 52.0003 11.7901 59.57C8.6389 63.1213 4.9843 66.5097 2.55237 70.29C0.120428 74.0702 -1.00188 78.4053 1.12398 82.2577C3.23311 86.0795 8.25755 88.95 13.7018 90.9693C24.7576 95.0707 37.787 96.2447 50.4987 96.9086C78.6132 98.3823 106.88 97.743 135.085 97.1053C145.52 96.8702 155.992 96.6304 166.267 95.3965C171.967 94.7111 177.853 93.6231 181.989 90.9969C187.244 87.6623 188.545 82.018 185.025 77.8367C179.12 70.8247 162.793 69.0775 158.665 61.5585C156.393 57.4171 158.727 52.7993 162.028 48.9576C169.11 40.7179 180.982 33.4877 181.608 24.0632C182.037 17.5937 176.331 11.115 167.506 8.0539C158.257 4.84529 145.428 5.24944 138.605 10.5602C131.581 16.037 119.234 18.1408 108.648 17.8595Z" fill="#00BFA6"/>
<path opacity="0.5" d="M28.8203 96.2307C27.4956 95.6882 28.6163 89.795 31.4965 80.7101C33.3363 74.8814 35.9087 67.7389 39.0231 59.8556C39.2472 59.2901 39.4747 58.7231 39.7022 58.1499C39.9586 57.5076 40.2184 56.8601 40.4816 56.2075L40.505 56.1537C40.5418 56.06 40.5803 55.9678 40.6171 55.8756C41.6139 53.4169 42.6559 50.9013 43.7431 48.3289C43.7632 48.2766 43.7849 48.2259 43.8067 48.1752L43.8619 48.0446C44.1228 47.4299 44.3871 46.8152 44.653 46.1898C44.6814 46.1253 44.7082 46.0577 44.7366 45.9931C44.7751 45.9024 44.8136 45.8149 44.8504 45.7257C44.8638 45.6981 44.8738 45.6689 44.8872 45.6443C44.9089 45.5905 44.9323 45.5383 44.9541 45.4906C45.2217 44.8759 45.4876 44.2536 45.7536 43.6466C46.1884 42.6529 46.62 41.6689 47.0481 40.6946C47.1229 40.5235 47.1981 40.3545 47.2739 40.1875C47.4892 39.6968 47.7049 39.2096 47.9212 38.7261C48.0049 38.5417 48.0885 38.3558 48.1688 38.1729C48.2323 38.033 48.2942 37.8917 48.3561 37.7534C49.0352 36.2443 49.7098 34.7645 50.3799 33.3139C50.3816 33.3089 50.3816 33.3035 50.3799 33.2985C52.9306 27.7772 55.3977 22.7076 57.6891 18.2758C57.7025 18.2527 57.7125 18.2281 57.7259 18.2051L57.9685 17.7349C63.8493 6.4079 68.4756 -0.582515 70.0395 0.0628956C71.6485 0.7206 69.6448 9.30457 65.2542 21.9239C65.1974 22.0914 65.1388 22.2558 65.0786 22.4233C65.0695 22.4561 65.0583 22.4885 65.0452 22.5201C64.8221 23.1737 64.5874 23.8396 64.341 24.5178C64.3276 24.5578 64.3126 24.5977 64.2975 24.6377C63.74 26.2051 63.1468 27.8238 62.5179 29.4936C62.4326 29.718 62.3506 29.947 62.2603 30.1744C61.2902 32.7545 60.2532 35.4406 59.1409 38.2098C59.074 38.3803 59.0055 38.5494 58.9369 38.7215C57.8246 41.4952 56.6521 44.3504 55.4244 47.264C55.3458 47.4484 55.2672 47.6343 55.1903 47.8202C55.1736 47.8602 55.1568 47.8986 55.1384 47.9386C54.8318 48.6608 54.5235 49.3861 54.2135 50.1145C54.1249 50.3174 54.0462 50.5202 53.9526 50.7215C53.7318 51.2363 53.511 51.7511 53.2835 52.2582C53.2651 52.3043 53.2451 52.3504 53.225 52.395C53.2049 52.4395 53.1932 52.4672 53.1765 52.5025C53.1397 52.5917 53.1012 52.6793 53.0628 52.7669C52.9591 53.005 52.857 53.2432 52.7533 53.4783C52.5744 53.8902 52.3954 54.2974 52.2164 54.7077L52.1612 54.8306C52.1617 54.8363 52.1617 54.8419 52.1612 54.8475C51.4342 56.498 50.7094 58.1202 49.9869 59.7142C49.7438 60.2521 49.5013 60.7863 49.2593 61.317C49.0803 61.7089 48.903 62.0992 48.7241 62.4849C47.396 65.3693 46.0914 68.1307 44.8203 70.7477C37.1331 86.5495 30.717 97.0083 28.8203 96.2307Z" fill="#00BFA6"/>
<path opacity="0.5" d="M31.9597 85.2603C31.1435 84.9376 32.1571 80.7455 34.4552 74.233C35.9271 70.0563 37.9292 64.9237 40.3093 59.2472L40.8295 58.0178C41.0246 57.5558 41.2231 57.0896 41.4249 56.6194C41.4312 56.6064 41.4368 56.593 41.4416 56.5795L41.5286 56.3797C42.2879 54.6043 43.0802 52.791 43.9053 50.9398C43.9204 50.9014 43.9371 50.866 43.9538 50.8292C43.9706 50.7923 43.9806 50.7662 43.9957 50.7354C44.193 50.2898 44.3921 49.8457 44.5928 49.397L44.658 49.254L44.7433 49.062C44.7533 49.042 44.7617 49.0205 44.7701 49.002C44.7784 48.9836 44.8052 48.9267 44.8219 48.8899C45.0249 48.4411 45.2261 47.996 45.4257 47.5545C45.7535 46.8373 46.0786 46.1269 46.4008 45.4231L46.5681 45.0573C46.7354 44.7024 46.8926 44.352 47.0548 44.0016L47.2405 43.6021C47.289 43.5007 47.3341 43.3992 47.381 43.2948C47.8905 42.2057 48.3962 41.1362 48.898 40.0861C48.899 40.0826 48.899 40.0789 48.898 40.0754C50.8047 36.08 52.6379 32.4134 54.3205 29.2002C54.3306 29.1833 54.3389 29.1649 54.349 29.148L54.5262 28.8068C58.8516 20.5901 62.1566 15.4775 63.12 15.8602C64.1118 16.2536 62.3958 22.3742 58.9553 31.4346L58.8181 31.7941C58.8097 31.8172 58.8014 31.8402 58.7913 31.8633C58.6129 32.3325 58.4295 32.8094 58.2411 33.294L58.2076 33.38C57.7694 34.5069 57.3083 35.6702 56.8244 36.8698C56.7592 37.0327 56.6939 37.1972 56.6253 37.36C55.876 39.2148 55.0749 41.1495 54.2285 43.1442L54.073 43.5114C53.2233 45.5091 52.3313 47.5611 51.3968 49.6674C51.3383 49.8011 51.2798 49.9348 51.2196 50.0685C51.2062 50.0977 51.1928 50.1254 51.1811 50.1546L50.4803 51.7235L50.2829 52.1615C50.1156 52.5334 49.9484 52.9052 49.7811 53.2725C49.7677 53.3063 49.7527 53.3386 49.7376 53.3708C49.7226 53.4031 49.7142 53.4231 49.7008 53.4492L49.6155 53.6382C49.5369 53.8103 49.46 53.9825 49.3814 54.153L48.9883 55.0474L48.9465 55.1365V55.1488C48.3979 56.3413 47.8538 57.5127 47.3141 58.6632C47.1323 59.0525 46.95 59.4387 46.7671 59.8219C46.6333 60.1067 46.4995 60.3884 46.3657 60.6671C45.3722 62.7508 44.4004 64.7501 43.4571 66.6433C37.7452 78.0978 33.1289 85.7244 31.9597 85.2603Z" fill="#00BFA6"/>
<path d="M85.7702 54.1653C85.7702 53.7365 85.3136 53.9578 85.25 53.9763C85.0666 53.8379 84.8668 53.7188 84.6546 53.6213C83.6359 53.1341 82.0972 52.8376 80.8712 52.6639C80.8668 52.6625 80.8621 52.6625 80.8578 52.6639C79.7773 52.5102 78.9443 52.458 78.9443 52.458L78.3071 52.4657H78.0696C78.153 52.3518 78.2755 52.2669 78.4175 52.2244C78.5948 52.2044 77.6682 52.1414 77.2283 52.1138H77.2099L77.0058 52.1015C76.0391 52.3105 74.2277 51.1687 74.2277 51.1687L74.0169 50.1945C74.7328 49.483 74.6291 47.705 74.6291 47.705C74.6291 47.705 74.6893 47.1088 75.2981 46.2882C75.9069 45.4676 75.1961 44.9482 75.1961 44.9482L76.2481 43.9171C76.2029 43.7392 76.1965 43.5549 76.2292 43.3748C76.2619 43.1946 76.3332 43.0222 76.4388 42.8675C76.503 42.7801 76.5827 42.7032 76.6747 42.6401V42.6324L76.6914 42.6186C77.3788 42.1345 77.9592 40.4534 77.9592 40.4534C77.9592 40.4534 77.8254 40.1537 78.5781 39.3408V39.3316C78.6784 39.224 78.7955 39.1088 78.931 38.9797C78.931 38.9689 78.951 38.9597 78.9611 38.9489C80.1687 37.8364 79.6937 37.2217 79.6937 37.2217L78.2268 35.5836C78.573 35.0519 75.7932 31.2363 75.7932 31.2363C75.7932 31.2363 75.4386 30.451 75.6393 29.6996C75.6956 29.5226 75.7013 29.3352 75.656 29.1556C75.6296 29.0541 75.5755 28.9605 75.4988 28.8836C75.4516 28.8373 75.3947 28.8002 75.3316 28.7745L75.2312 28.7668L75.35 28.6869C75.3985 28.6577 75.4453 28.6254 75.4938 28.5947C75.5975 28.6316 75.7012 28.6638 75.8066 28.693C76.8275 28.9961 77.9149 29.0583 78.9689 28.8741C80.0228 28.6899 81.0094 28.2651 81.8379 27.6389C81.8797 27.6097 81.9199 27.5774 81.9583 27.5451C81.9968 27.5129 82.0637 27.4622 82.1156 27.4176C82.139 27.3976 82.1624 27.3792 82.1825 27.3592C82.2025 27.3392 82.2611 27.2885 82.2996 27.2516C82.3113 27.2854 82.323 27.3177 82.3364 27.3515C82.3888 27.4877 82.452 27.6202 82.5254 27.748C82.5316 27.7598 82.5389 27.7711 82.5471 27.7818C82.5465 27.7864 82.5465 27.791 82.5471 27.7956C82.5588 27.8187 82.5739 27.8402 82.5872 27.8617C82.6826 28.0082 82.7984 28.1425 82.9318 28.2612C82.9644 28.2909 82.999 28.3186 83.0355 28.3442C83.0876 28.3851 83.1436 28.4216 83.2028 28.4533C83.2115 28.4604 83.221 28.4665 83.2312 28.4718C83.2411 28.4788 83.2518 28.485 83.263 28.4902V28.4902C83.3064 28.4195 83.3483 28.3473 83.3884 28.2751C83.7436 27.6385 83.9504 26.9408 83.9956 26.2267C83.9975 26.1397 84.0054 26.053 84.019 25.967C84.028 25.9012 84.0489 25.8373 84.0809 25.7779C84.1427 25.6611 84.2427 25.565 84.3669 25.5029C84.5675 25.4091 84.7783 25.3349 84.9958 25.2816L85.0476 25.2647L85.1112 25.2447L85.2349 25.2001L85.255 25.1909C85.2918 25.1771 85.3253 25.1602 85.3604 25.1448C85.3709 25.1378 85.3821 25.1316 85.3938 25.1264C85.4339 25.1059 85.4719 25.0822 85.5076 25.0557L85.5243 25.0434C85.5567 25.0208 85.5869 24.9956 85.6146 24.9681C85.628 24.9558 85.6364 24.9404 85.6497 24.9281C85.6683 24.9095 85.6851 24.8895 85.6999 24.8682L85.7401 24.8144C85.7487 24.7974 85.7588 24.7809 85.7702 24.7653C85.8981 24.527 85.9558 24.2621 85.9374 23.9969C85.914 23.6158 85.7919 23.247 85.7969 22.8644C85.812 21.95 86.5295 21.0772 86.466 20.169C86.4091 19.3822 85.7785 18.7706 85.1279 18.282C84.4773 17.7933 83.7547 17.3369 83.3984 16.6377C83.1325 16.1137 83.0957 15.5036 82.8565 14.9688C82.3547 13.8486 80.8829 13.217 79.5532 13.5505C78.757 13.7518 78.0646 14.2358 77.2902 14.5048C76.7784 14.6815 76.2415 14.7614 75.7313 14.9412C75.1288 15.1551 74.5888 15.495 74.1541 15.9339C74.0771 16.0107 74.0052 16.0876 73.935 16.1736L73.8697 16.2551C73.8212 16.3165 73.7727 16.378 73.7292 16.4425C73.7092 16.4702 73.6908 16.4963 73.6724 16.5255C73.6114 16.6144 73.5556 16.7063 73.5051 16.8006C73.4566 16.8882 73.4148 16.9773 73.373 17.068C73.1405 17.5843 72.9966 18.1344 72.7173 18.6262C72.6554 18.7381 72.585 18.846 72.5066 18.9489C72.3979 19.0918 72.2724 19.2255 72.1486 19.3607C72.1152 19.3976 72.0817 19.4345 72.0483 19.4683C72.0347 19.4862 72.0196 19.5032 72.0031 19.519C71.9797 19.5482 71.9529 19.5758 71.9279 19.605C71.9028 19.6342 71.8977 19.6404 71.8844 19.6573C71.871 19.6742 71.8342 19.7203 71.8124 19.7526C71.7907 19.7848 71.7874 19.7818 71.7756 19.7987C71.7422 19.8463 71.7121 19.8955 71.682 19.9447V19.9554C71.5883 20.1209 71.5368 20.3037 71.5315 20.4902C71.5295 20.5824 71.5441 20.6743 71.5749 20.7622C71.583 20.7847 71.5925 20.8068 71.6034 20.8283C71.6286 20.8777 71.6618 20.9233 71.7021 20.9635C71.682 21.0142 71.6586 21.0664 71.6402 21.1171C71.5967 21.2339 71.5565 21.3538 71.5197 21.4721C71.4963 21.5536 71.4779 21.6258 71.4579 21.7103C71.3799 22.0215 71.3301 22.3381 71.309 22.6569V22.6569L71.202 22.7076C71.0136 22.7936 70.8198 22.869 70.6216 22.9335V22.9335H70.6015C70.4342 22.9673 69.2802 23.1886 68.8754 23.1241L67.4319 22.892C67.4319 22.892 67.0974 22.7645 66.7311 22.6031C66.4547 22.4921 66.1968 22.3457 65.9651 22.1682C65.6891 21.8947 63.7807 20.7668 63.3793 20.7683C63.2155 20.7448 63.0661 20.6685 62.9578 20.5532C62.8365 20.4169 62.7248 20.2737 62.6233 20.1244C62.6233 20.1244 62.5848 20.106 62.5246 20.0722C62.4493 19.9754 62.4025 19.9032 62.4025 19.9032C62.4025 19.9032 61.8355 19.6173 61.2584 19.2885L61.0126 19.7495C60.9992 19.7725 60.9875 19.7971 60.9741 19.8217C58.6459 24.232 56.1002 29.2678 53.4475 34.7369C53.4484 34.7419 53.4484 34.7471 53.4475 34.7522C52.7483 36.1865 52.0431 37.652 51.3316 39.1487L51.136 39.5636L50.875 40.1107L50.1943 41.5552L49.9568 42.0577C49.5052 43.0196 49.0502 43.9929 48.592 44.9774C48.311 45.5808 48.0289 46.1898 47.7456 46.8045C47.7239 46.8552 47.6988 46.9075 47.6754 46.9582C47.662 46.9843 47.6503 47.012 47.6369 47.0396C47.5984 47.1272 47.5566 47.2148 47.5165 47.3039C47.4864 47.3669 47.4563 47.4346 47.4262 47.4976C47.1452 48.1122 46.8658 48.7269 46.5899 49.3293L46.4628 49.3892L46.5313 49.4584C46.5079 49.5091 46.4845 49.5583 46.4628 49.612C45.3087 52.1445 44.1936 54.6263 43.1176 57.0573L42.9972 57.3309L42.9721 57.3846C42.6888 58.027 42.4101 58.6647 42.1358 59.2978C41.8905 59.8633 41.6468 60.4237 41.4049 60.979C38.0413 68.7423 35.1962 75.7512 33.0804 81.4493C32.98 81.5123 32.873 81.5845 32.7643 81.6659C32.873 81.5906 32.9784 81.5123 33.0754 81.4585C33.1591 81.406 33.2462 81.3582 33.3363 81.3156C33.5332 81.2195 33.714 81.0978 33.8732 80.9544C33.9451 80.893 34.0154 80.83 34.084 80.7639C34.4763 80.3599 34.8321 79.9272 35.1477 79.47C35.1986 79.4145 35.2546 79.3631 35.315 79.3163L35.4036 79.2426L35.417 79.2318C35.4655 79.1934 35.5174 79.1504 35.5759 79.1058L35.5859 79.0981L35.6729 79.032L35.6829 79.0244L35.7766 78.9521C36.0626 78.737 36.4122 78.4834 36.745 78.2437L36.8655 78.1592L37.2719 77.8703L37.4726 77.7305L37.9158 77.4231C37.9199 77.4167 37.9244 77.4106 37.9292 77.4047C37.9694 77.357 38.0614 77.251 38.1901 77.105C38.1926 77.1016 38.1961 77.0989 38.2002 77.0973C38.2153 77.0782 38.2315 77.0597 38.2487 77.042C38.426 76.8515 38.6568 76.6133 38.9177 76.3766C38.9495 76.349 38.9813 76.3182 39.0164 76.2906L39.1117 76.2061L39.2673 76.0785C39.4203 75.9536 39.5811 75.8372 39.749 75.7297C39.9638 75.5873 40.1694 75.4333 40.3645 75.2687L40.4063 75.2349C40.4348 75.2087 40.4665 75.1811 40.5 75.155C40.5241 75.1362 40.547 75.1162 40.5686 75.095L40.6405 75.0336L40.7592 74.9306L40.8345 74.8645L41.0118 74.7109L41.2108 74.5295L41.2409 74.5019C41.343 74.4066 41.4467 74.3098 41.552 74.2145L41.6741 74.1008C41.7243 74.0531 41.7745 74.004 41.8247 73.9579C41.91 73.8795 41.9919 73.8042 42.0789 73.7197L42.2646 73.5414C42.3248 73.4815 42.385 73.4262 42.4419 73.3709C42.5338 73.2833 42.6208 73.2003 42.7028 73.1188L42.7212 73.1004L42.9336 72.8945C42.9336 72.8945 42.9336 72.8945 42.9436 72.8837C42.9955 72.8361 43.0406 72.7915 43.0841 72.747L43.1259 72.7055C43.1678 72.6686 43.2046 72.6302 43.2363 72.5994C43.3618 72.478 43.4337 72.4058 43.4337 72.4058L44.939 70.8307L46.4728 69.1849L46.5414 69.1142C46.5414 69.1142 46.9327 68.5733 47.3325 68.1261L47.386 68.0662C47.5225 67.9089 47.6754 67.7642 47.8426 67.6344C47.9774 67.5306 48.1011 67.4153 48.2123 67.2902C48.2206 67.2902 48.2273 67.2733 48.2374 67.264C48.689 66.7784 49.2727 66.0239 49.46 65.7765L49.5219 65.6966C49.6775 65.5778 49.8208 65.4461 49.9501 65.3032C50.1071 65.1361 50.2337 64.9467 50.3247 64.7423C50.413 64.5588 50.5253 64.386 50.6593 64.2275C50.66 64.225 50.66 64.2224 50.6593 64.2199L50.686 64.186L50.7814 64.0723C50.8995 64.0933 51.0191 64.1066 51.1393 64.1123C51.6889 64.1315 52.2383 64.0671 52.765 63.9217C52.7804 63.918 52.7955 63.9134 52.8102 63.9079V63.9079C52.9474 63.8787 53.0511 63.851 53.1063 63.8357L53.1548 63.8218L54.1934 62.4235L54.2185 62.3912C54.2185 62.3912 54.7671 61.9133 55.2923 61.4016C55.3492 61.3462 55.4044 61.2909 55.4596 61.2371C55.8342 60.8653 56.1654 60.4995 56.2306 60.3059C56.3979 59.8218 57.3195 58.8384 57.3195 58.8384C57.3195 58.8384 58.9001 56.982 59.5173 56.2813C59.5424 56.2521 59.5675 56.2229 59.5892 56.1999L59.6728 56.1061C59.6917 56.1182 59.7096 56.1315 59.7263 56.1461C59.7729 56.1884 59.8149 56.2347 59.8518 56.2844C59.8551 56.2908 59.8591 56.297 59.8635 56.3028L59.9154 56.2352C59.9505 56.1922 59.999 56.1261 60.0642 56.0446C60.1146 56.0882 60.1589 56.1372 60.1963 56.1906L60.2114 56.2106C60.2114 56.2106 63.7071 51.7757 64.2524 50.5248C64.3781 50.2639 64.5358 50.0169 64.7224 49.7888C65.4366 48.8806 66.6408 47.8326 67.2061 47.3577L67.3734 47.221C67.4604 47.1472 67.5122 47.1072 67.5122 47.1072L67.5724 47.2271C67.5724 47.2363 67.5724 47.2455 67.5842 47.2563C67.728 47.556 68.019 48.2198 67.8635 48.4027C67.6644 48.6424 67.1309 51.0627 67.1309 51.0627C67.1309 51.0627 66.4033 52.1261 66.875 53.7596C67.3466 55.3931 69.3169 55.9632 69.7568 55.9294C70.0395 55.9063 72.5116 56.8514 74.2628 57.5445L74.6943 57.715L75.1292 57.8856L75.8066 58.1576L75.8451 58.173C75.9002 58.1976 75.9571 58.2206 76.0123 58.2406L76.0474 58.1976L76.0642 58.1745L76.2314 58.2467L76.0642 58.1591C76.1327 58.07 76.2515 57.9087 76.3987 57.6889C76.406 57.6738 76.4149 57.6593 76.4254 57.6459L76.4723 57.5737L76.5509 57.4507C76.5592 57.4338 76.5693 57.42 76.5776 57.4062L76.6579 57.274C76.663 57.2677 76.6675 57.261 76.6713 57.254C76.7817 57.0696 76.8971 56.8637 77.0058 56.6393C77.0226 56.6101 77.0393 56.5779 77.0543 56.5471L77.4859 56.5133L77.7836 56.4903L77.9508 56.478L78.1683 56.458L78.2703 56.4765L82.3916 56.75L82.6926 56.7715C83.0851 56.8032 83.4805 56.7592 83.8534 56.6424C84.2263 56.5256 84.5685 56.3385 84.8582 56.0932C85.1479 55.8479 85.3787 55.5497 85.5357 55.2177C85.6928 54.8857 85.7726 54.5272 85.7702 54.1653V54.1653Z" fill="url(#paint0_linear_407_323)"/>
<path d="M75.6795 58.3328C75.6795 58.3328 78.8139 54.4296 76.6713 52.269L71.5883 53.6874L71.8559 55.4008C71.8559 55.4008 74.0587 57.7381 75.6795 58.3328Z" fill="#65617D"/>
<path opacity="0.1" d="M71.5883 53.6874L71.8559 55.4008C71.8559 55.4008 73.4114 57.0451 74.8666 57.9271C75.1242 58.0865 75.3981 58.2224 75.6845 58.3328C75.6845 58.3328 75.7029 58.3129 75.7347 58.2698C75.7384 58.2649 75.7417 58.2598 75.7447 58.2545C76.1237 57.7497 76.4549 57.216 76.7349 56.6594C76.8386 56.4488 76.9406 56.223 77.0343 55.994C77.3688 55.1196 77.5762 54.13 77.2851 53.2541C77.1802 52.9296 77.005 52.628 76.77 52.3674C76.7499 52.3459 76.7298 52.3228 76.7064 52.3013C76.6974 52.2898 76.6873 52.279 76.6763 52.269L76.5643 52.2998L74.8448 52.7792L71.5883 53.6874Z" fill="black"/>
<path d="M50.3682 41.7106L49.9417 42.0594L50.1792 41.5569L50.3682 41.7106Z" fill="#65617D"/>
<path opacity="0.1" d="M50.3682 41.7106L49.9417 42.0594L50.1792 41.5569L50.3682 41.7106Z" fill="black"/>
<path d="M77.2232 52.6363C77.2232 52.6363 75.0121 54.8507 76.3535 56.2537C76.3535 56.2537 76.9991 56.4258 77.9508 56.5872C80.1435 56.956 83.952 57.2633 85.173 55.2441C86.9192 52.3521 78.5864 52.6133 78.5864 52.6133L77.9558 52.6241L77.2232 52.6363Z" fill="#FBBEBE"/>
<path opacity="0.1" d="M77.2232 52.6363C77.2232 52.6363 75.0121 54.8507 76.3535 56.2537C76.3535 56.2537 76.9991 56.4258 77.9508 56.5872L78.2318 56.5641C77.8654 56.4444 77.532 56.2524 77.255 56.0017C76.9004 55.6651 76.6495 55.1596 76.9405 54.4496C77.1027 54.0438 77.2921 53.6476 77.5076 53.2633C77.6317 53.0361 77.782 52.8218 77.9558 52.624L77.2232 52.6363Z" fill="black"/>
<path d="M73.4884 56.9175L74.231 56.8591L76.7298 56.6594L78.0043 56.5564C77.6383 56.4369 77.3054 56.2449 77.0292 55.994C76.6746 55.6559 76.4221 55.1519 76.7131 54.4419C76.876 54.0359 77.0654 53.6392 77.2801 53.2541C77.638 52.6394 77.914 52.4058 78.0662 52.3874C78.2184 52.3689 77.3253 52.3075 76.8954 52.2813H76.8787C76.7566 52.2721 76.6763 52.269 76.6763 52.269L76.5592 52.2998L74.8933 52.7423L74.8398 52.7777C74.4317 53.0497 71.973 54.8153 73.4884 56.9175Z" fill="#E7EFFD"/>
<path d="M54.2352 57.7659L51.6628 63.1674C51.6628 63.1674 51.2162 63.5977 50.8148 64.051C50.8085 64.0598 50.8012 64.0681 50.7931 64.0756L50.6961 64.1908C50.6856 64.2008 50.6761 64.2116 50.6676 64.2231C50.6683 64.2256 50.6683 64.2283 50.6676 64.2308C50.4952 64.4208 50.3512 64.6311 50.2394 64.8562C50.1679 65.0174 50.0728 65.1688 49.9568 65.3065C49.8117 65.4794 49.6474 65.638 49.4667 65.7798C49.459 65.7871 49.4506 65.7938 49.4416 65.7997C49.4416 65.7997 48.7726 66.6803 48.244 67.2673C48.234 67.2765 48.2273 67.2873 48.219 67.2934C48.0842 67.4482 47.9348 67.5917 47.7724 67.7221C47.6343 67.8267 47.5071 67.943 47.3927 68.0694L47.3392 68.1294C46.9194 68.5904 46.4795 69.1881 46.4795 69.1881L44.9474 70.7909L43.3869 72.4121L43.238 72.5658L43.1276 72.6718L43.0858 72.7133L42.9453 72.8501C42.9453 72.8501 42.9369 72.8501 42.9353 72.8608L42.7228 73.0668L42.7044 73.0852C42.6208 73.1636 42.5372 73.2481 42.4435 73.3372C42.3867 73.3925 42.3264 73.4479 42.2662 73.5078L42.0806 73.686C41.9969 73.7644 41.9133 73.8397 41.8263 73.9242C41.7762 73.9703 41.726 74.0195 41.6758 74.0671L41.5537 74.1809C41.4483 74.2761 41.3446 74.3729 41.2426 74.4682L41.2125 74.4959L41.0135 74.6772L40.8362 74.8309L40.7609 74.897L40.6422 74.9999L40.5702 75.0614C40.5486 75.0825 40.5257 75.1025 40.5017 75.1213C40.4699 75.1505 40.4381 75.1766 40.408 75.2012L40.3662 75.235C40.1662 75.4096 39.9539 75.5719 39.7306 75.7206C39.5139 75.8615 39.3077 76.0155 39.1134 76.1816V76.1816L39.0181 76.2662C38.9829 76.2938 38.9512 76.3245 38.9194 76.3522C38.6601 76.5889 38.4293 76.827 38.2504 77.0176C38.2332 77.0353 38.217 77.0537 38.2019 77.0729C38.1977 77.0745 38.1942 77.0772 38.1918 77.0806C38.063 77.2235 37.971 77.3326 37.9309 77.3803L37.9092 77.4048L37.4659 77.7122L37.2652 77.852L36.8588 78.1409L36.7383 78.2254C36.4038 78.4652 36.0559 78.7187 35.7699 78.9339L35.6762 79.0061L35.6662 79.0138L35.5792 79.0798L35.5692 79.0875C35.5107 79.1321 35.4588 79.1751 35.4103 79.2135L35.3969 79.2243L35.3083 79.298C35.2553 79.3405 35.2066 79.3873 35.1628 79.4379C34.8433 79.9 34.4818 80.3364 34.0823 80.7425C34.0137 80.8086 33.9434 80.8716 33.8715 80.9331C33.7216 81.0656 33.5528 81.1789 33.3698 81.2696C33.2707 81.3148 33.1752 81.3662 33.0837 81.4233C35.1996 75.7252 38.0446 68.7164 41.4082 60.953C41.649 60.3967 41.8927 59.8363 42.1391 59.2719C42.4168 58.6387 42.6955 58.001 42.9754 57.3587L43.0005 57.3049L43.1209 57.0314C44.1914 54.6034 45.3064 52.1216 46.4661 49.5861C46.4878 49.5354 46.5112 49.4862 46.5347 49.4324L46.4661 49.3633L46.5932 49.3033C46.8709 48.6887 47.1502 48.0863 47.4295 47.4716C47.4596 47.4086 47.4897 47.341 47.5198 47.278C47.56 47.1888 47.6018 47.1013 47.6402 47.0137C47.6536 46.986 47.6653 46.9583 47.6787 46.9322C47.7021 46.88 47.7272 46.8277 47.749 46.7785C48.0333 46.1639 48.3154 45.5548 48.5953 44.9514L51.5424 47.9787L51.6662 48.1032L53.7234 50.1854L53.8489 50.3099L54.4895 50.9584L54.8357 51.3087L55.003 51.4762L57.0636 53.5615L57.0903 53.5892L57.1874 53.686L54.2352 57.7659Z" fill="#3F3D56"/>
<path d="M68.9757 23.7743L68.5643 29.0774C68.5643 29.0774 73.5051 31.2288 73.6506 30.4389C73.7091 30.1316 74.3531 29.6245 75.1225 29.1204C76.3351 28.3229 77.8588 27.5284 77.8588 27.5284C77.8588 27.5284 72.8896 20.6456 72.2991 22.0839C72.0834 22.6095 71.5833 22.9767 71.0347 23.2303C70.3845 23.5118 69.6893 23.6954 68.9757 23.7743V23.7743Z" fill="#FBBEBE"/>
<path opacity="0.1" d="M72.2991 22.0839C72.0834 22.6095 72.1319 22.7308 71.5849 22.9844C71.4595 24.5426 71.4628 26.3882 72.7106 27.6252C73.3769 28.2893 74.2028 28.8013 75.1224 29.1204C76.3351 28.3229 77.8588 27.5284 77.8588 27.5284C77.8588 27.5284 72.8895 20.6456 72.2991 22.0839Z" fill="black"/>
<path d="M73.1739 19.264C72.5604 19.7856 72.0648 20.413 71.7152 21.1106C71.3657 21.8081 71.1691 22.5621 71.1367 23.3294C71.1044 24.0968 71.2368 24.8625 71.5265 25.5828C71.8162 26.3031 72.2575 26.9639 72.8252 27.5276C73.3928 28.0912 74.0758 28.5466 74.835 28.8677C75.5943 29.1889 76.4149 29.3695 77.2501 29.3992C78.0853 29.429 78.9187 29.3073 79.7027 29.0411C80.4867 28.775 81.206 28.3695 81.8195 27.848L81.8847 27.7896C83.1146 26.7283 83.8352 25.2616 83.8881 23.7122C83.9409 22.1628 83.3217 20.6575 82.1665 19.5275C81.0114 18.3976 79.415 17.7355 77.7286 17.687C76.0421 17.6384 74.4038 18.2073 73.1739 19.2686V19.264Z" fill="#FBBEBE"/>
<path opacity="0.1" d="M54.5664 56.3367C54.3556 56.5902 54.0061 56.5349 53.4441 55.8603C53.1829 55.5662 52.8984 55.2904 52.5927 55.0351C52.5359 54.9859 52.4757 54.9352 52.4171 54.8814C51.7932 54.3543 50.9938 53.7258 50.1324 53.0128L50.0772 52.9682C49.6942 52.6501 49.2944 52.3136 48.8963 51.9648L48.6588 51.7558C48.1136 51.2717 47.5666 50.7585 47.0448 50.2191L47.0214 50.1976C46.829 50.0009 46.6383 49.8011 46.4493 49.6075C46.4711 49.5568 46.4945 49.5076 46.5179 49.4538L46.4493 49.3847L46.5765 49.3247C46.8541 48.7101 47.1334 48.1077 47.4127 47.493C47.4429 47.43 47.473 47.3624 47.5031 47.2994C47.5432 47.2102 47.585 47.1226 47.6235 47.0351C47.6369 47.0074 47.6486 46.9797 47.662 46.9536L47.8577 47.178C48.1754 47.5437 48.4999 47.911 48.8278 48.2752L48.8562 48.3074C49.0418 48.5118 49.2258 48.7162 49.4115 48.9221C49.4198 48.9221 49.4265 48.939 49.4349 48.9452C49.6406 49.1711 49.8514 49.3923 50.0638 49.6044L50.1876 49.7258C50.415 49.9517 50.6425 50.1638 50.87 50.3697C51.4052 50.8522 51.9337 51.2917 52.4205 51.6605C52.4673 51.6974 52.5125 51.7327 52.561 51.7681C52.9908 52.0969 53.3872 52.3828 53.7318 52.6071L53.8873 52.7147L54.0813 52.8422C54.5329 53.1403 54.8089 53.3032 54.8089 53.3032C54.8089 53.3032 54.834 53.5138 54.8541 53.8242C54.8658 54.004 54.8775 54.2176 54.8825 54.4388C54.8892 55.158 54.8407 56.0063 54.5664 56.3367Z" fill="black"/>
<path d="M54.5664 56.3367C54.3506 56.455 54.0278 56.3228 53.5629 55.7619C53.2911 55.4562 52.9942 55.17 52.6747 54.906L52.658 54.8922L52.4991 54.7539C51.897 54.2467 51.1393 53.6474 50.3247 52.9713C50.3057 52.9577 50.2878 52.9428 50.2712 52.9267C49.8213 52.5579 49.3563 52.1584 48.888 51.7496C48.8094 51.682 48.7308 51.6113 48.6505 51.5391C48.1487 51.0904 47.6469 50.6171 47.1652 50.1238L47.1435 50.1007L46.5213 49.4615L46.4527 49.3923L46.5798 49.3324C46.8575 48.7177 47.1368 48.1153 47.4161 47.5007C47.4462 47.4377 47.4763 47.37 47.5064 47.307C47.5466 47.2179 47.5884 47.1303 47.6269 47.0427C47.6402 47.0151 47.6519 46.9874 47.6653 46.9613C47.6887 46.909 47.7138 46.8568 47.7356 46.8076C48.0818 47.2056 48.4381 47.6128 48.7977 48.0155C48.8018 48.0183 48.8052 48.022 48.8077 48.0262L48.975 48.2168C49.1673 48.4304 49.3597 48.6409 49.552 48.853C49.7193 49.042 49.8999 49.2248 50.0755 49.4031C50.1056 49.4354 50.1374 49.4661 50.1692 49.4968C50.201 49.5276 50.2511 49.5798 50.2913 49.6198C50.9916 50.3037 51.7361 50.9482 52.5208 51.5498C52.566 51.5867 52.6128 51.6221 52.6597 51.6574C53.0745 51.974 53.4575 52.249 53.7853 52.4749C53.8472 52.5149 53.9057 52.5564 53.9626 52.5948L54.1566 52.7223C54.63 53.0297 54.9193 53.2033 54.9193 53.2033C54.9193 53.2033 54.9595 53.5568 54.9812 54.0285C54.9896 54.2237 54.9946 54.4373 54.9929 54.6555C54.9879 55.387 54.8976 56.1553 54.5664 56.3367Z" fill="#5F5D7E"/>
<path opacity="0.1" d="M74.3129 34.5632L57.0636 53.5583L55.5733 55.201L55.3542 55.4422C55.2509 55.1736 55.1303 54.9109 54.9929 54.6555C54.9561 54.5878 54.9176 54.5156 54.8742 54.4419C54.6169 53.9677 54.269 53.5399 53.8472 53.1787C53.7853 53.1295 53.7217 53.0834 53.6582 53.0419L53.5528 52.9774C53.4514 52.919 53.3438 52.8701 53.2317 52.8314C52.8493 52.6704 52.5014 52.4477 52.2047 52.1737V52.1737L52.0709 52.06C51.3412 51.3805 50.6701 50.6499 50.0638 49.8748C50.0253 49.8272 49.9885 49.7811 49.9551 49.7365C49.7577 49.4891 49.6406 49.3324 49.6406 49.3324C49.6406 49.3324 49.5135 49.191 49.3061 48.9804C49.1389 48.8022 48.9231 48.5748 48.6906 48.3443C48.331 47.9641 47.9328 47.6163 47.5014 47.3055C47.5415 47.2163 47.5834 47.1287 47.6218 47.0411C47.6352 47.0135 47.6469 46.9858 47.6603 46.9597C47.6837 46.9074 47.7088 46.8552 47.7305 46.806C48.0149 46.1914 48.297 45.5823 48.5769 44.9789C49.0352 43.9954 49.4901 43.0222 49.9417 42.0592L50.1792 41.5567L50.86 40.1122L51.1209 39.5651L51.3166 39.1502C52.0291 37.6566 52.7344 36.1911 53.4324 34.7537L64.3494 25.8409L65.664 25.2662L66.9301 24.7161L67.8367 24.9558L67.9722 24.9896L68.852 25.2232H68.8637L69.0761 25.28L69.5126 25.3953L69.7284 28.0522V28.0753V28.149L70.1265 28.6746L70.374 29.005L70.481 29.0434L70.9343 29.2047L71.0715 29.2524L71.1216 29.2708L71.518 29.4122L72.6437 29.8133L72.913 30.5816L73.0802 31.0764L73.1722 31.3423L73.2609 31.5359L74.3129 34.5632Z" fill="black"/>
<path d="M74.5471 34.3635L57.0904 53.586L55.585 55.241L55.57 55.2011C55.41 54.7952 55.2119 54.4029 54.9779 54.0286C54.9361 53.961 54.8892 53.8918 54.8424 53.8242C54.6202 53.487 54.3406 53.1845 54.0145 52.9283C53.9509 52.8822 53.8874 52.8392 53.8221 52.8008C53.7737 52.7705 53.7234 52.7428 53.6716 52.7178C53.6051 52.6855 53.5364 52.6573 53.4659 52.6333C53.0693 52.4656 52.7093 52.2328 52.4038 51.9464L52.2683 51.8311C51.7688 51.3725 51.3007 50.886 50.8667 50.3743C50.6342 50.1023 50.4284 49.8519 50.2629 49.6459L50.1541 49.5076C50.124 49.4708 50.0973 49.4354 50.0722 49.4016C49.9417 49.2356 49.8665 49.1342 49.8665 49.1342C49.8665 49.1342 49.3647 48.5718 48.801 48.0247C48.7985 48.0205 48.7951 48.0169 48.791 48.014C48.5003 47.718 48.1873 47.4413 47.8543 47.1857C47.7806 47.1324 47.7023 47.0846 47.6202 47.0428C47.6336 47.0151 47.6453 46.9875 47.6586 46.9613C47.6821 46.9091 47.7072 46.8568 47.7289 46.8077C48.0132 46.193 48.2953 45.5839 48.5752 44.9805C49.0335 43.9971 49.4885 43.0238 49.9401 42.0608L50.1776 41.5583L50.8583 40.1138L51.1192 39.5668L51.3149 39.1519C52.0274 37.6582 52.7327 36.1927 53.4307 34.7554C53.4317 34.7503 53.4317 34.7451 53.4307 34.74L64.5785 25.6367L65.7042 25.1449L67.1593 24.5103L68.0307 24.7408L68.1662 24.7761L68.8771 24.9651L69.0443 25.0081L69.2417 25.0604L69.7435 25.1941L69.9676 27.9478L70.0813 28.1015L70.0997 28.1261L70.1231 28.1584L70.4694 28.6194L70.6099 28.8068L71.1685 29.0066L71.8643 29.254L72.8812 29.6167L73.2291 30.6171L73.291 30.7953L73.3813 31.0535L73.4248 31.1795L73.4532 31.2579L74.5471 34.3635Z" fill="#E7EFFD"/>
<path opacity="0.1" d="M71.9463 30.5171C71.9463 30.5171 69.7485 30.6139 69.511 30.8491C69.2735 31.0842 68.7031 31.6374 68.7031 31.6374L67.8401 33.7089C67.8401 33.7089 66.2578 35.7911 65.8463 36.1414C65.4349 36.4918 62.5012 40.1583 62.5012 40.1583L57.7711 45.5875L51.5357 52.6655L48.7308 53.2448L48.6271 51.1903L59.912 38.7431L62.1148 36.2674C62.1148 36.2674 66.3197 32.0538 66.798 31.6574C67.2764 31.2609 68.7048 30.405 68.7048 30.405C68.7048 30.405 69.6448 29.1756 68.9389 27.9616C68.2331 26.7476 69.0694 27.9847 69.0694 27.9847L70.1231 28.126L70.3974 28.796C70.3974 28.796 72.2038 29.7626 71.9463 30.5171Z" fill="black"/>
<path d="M72.1721 30.5248C72.1721 30.5248 69.9743 30.6216 69.7368 30.8567C69.4993 31.0918 68.9289 31.645 68.9289 31.645L68.0759 33.7165C68.0759 33.7165 66.4853 35.7987 66.0688 36.146C65.6523 36.4933 62.7236 40.1645 62.7236 40.1645L57.9952 45.5921L51.7598 52.6716L48.9549 53.2494L48.8546 51.2056L60.1378 38.7584L62.3423 36.2812C62.3423 36.2812 66.5472 32.0676 67.0172 31.6712C67.4872 31.2747 68.9239 30.4188 68.9239 30.4188C68.9239 30.4188 69.8639 29.1894 69.1581 27.9769C68.4522 26.7645 69.2902 27.9985 69.2902 27.9985L70.3439 28.1398L70.6182 28.8098C70.6182 28.8098 72.4246 29.7703 72.1721 30.5248Z" fill="#00BFA6"/>
<path opacity="0.1" d="M74.8682 29.4046C74.8682 29.4046 74.895 29.649 74.1473 30.3528C73.3997 31.0566 72.1402 33.062 72.1402 33.062C72.1402 33.062 71.6635 29.9886 70.563 29.1833L74.8682 29.4046Z" fill="black"/>
<path d="M75.1008 29.2048C75.1008 29.2048 75.1292 29.4491 74.3816 30.1514C73.6339 30.8536 72.3745 32.8621 72.3745 32.8621C72.3745 32.8621 71.8978 29.7887 70.7955 28.9819L75.1008 29.2048Z" fill="#E7EFFD"/>
<path opacity="0.1" d="M70.3372 23.7527L70.4911 29.1111C70.4911 29.1111 66.3765 27.9924 65.6573 28.0016C64.9381 28.0109 68.8486 24.0831 68.8486 24.0831L70.3372 23.7527Z" fill="black"/>
<path d="M70.4643 23.4438L70.6182 28.8023C70.6182 28.8023 66.5037 27.6836 65.7844 27.6928C65.0652 27.702 68.9741 23.7742 68.9741 23.7742L70.4643 23.4438Z" fill="#E7EFFD"/>
<path opacity="0.1" d="M74.7662 29.2954C74.7662 29.2954 75.268 29.4706 75.0689 30.2174C74.8699 30.9643 75.2144 31.7341 75.2144 31.7341C75.2144 31.7341 77.9508 35.4975 77.6062 36.0246L79.0514 37.6397C79.0514 37.6397 79.518 38.2466 78.3372 39.3515C77.1563 40.4564 77.3336 40.8452 77.3336 40.8452C77.3336 40.8452 76.7532 42.511 76.0708 42.9966C75.3884 43.4822 75.6209 44.2843 75.6209 44.2843L66.9753 47.4545C66.9753 47.4545 64.2607 49.6059 63.7271 50.8368C63.1936 52.0677 59.7129 56.4657 59.7129 56.4657C59.7129 56.4657 59.4637 56.0738 59.2463 56.292C59.0288 56.5102 56.8411 59.075 56.8411 59.075C56.8411 59.075 55.9312 60.0508 55.7589 60.5302C55.5867 61.0097 53.7619 62.5986 53.7619 62.5986L52.7199 64.0201C52.7199 64.0201 50.3615 64.7546 49.5419 63.5083C48.7224 62.2621 51.258 56.584 51.258 56.584L54.8474 51.2886L58.6492 46.3143L61.5929 43.307L68.2833 36.8175L72.356 32.1829C72.356 32.1829 74.1708 29.3277 74.7662 29.2954Z" fill="black"/>
<path d="M75.1007 29.2048C75.1007 29.2048 75.6025 29.3785 75.4035 30.1192C75.2044 30.8599 75.5473 31.6359 75.5473 31.6359C75.5473 31.6359 78.2853 35.3992 77.9408 35.9263L79.3859 37.5414C79.3859 37.5414 79.8525 38.1484 78.6717 39.2533C77.4908 40.3582 77.6681 40.7469 77.6681 40.7469C77.6681 40.7469 77.0877 42.4127 76.4053 42.8983C75.7229 43.3839 75.9554 44.1861 75.9554 44.1861L67.3065 47.3501C67.3065 47.3501 64.6053 49.5153 64.0617 50.7447C63.5181 51.974 60.0475 56.372 60.0475 56.372C60.0475 56.372 59.7982 55.9802 59.5808 56.1984C59.3634 56.4166 57.1756 58.9813 57.1756 58.9813C57.1756 58.9813 56.2657 59.9571 56.0935 60.4381C55.9212 60.9191 54.0964 62.505 54.0964 62.505L53.0527 63.9279C53.0527 63.9279 50.696 64.661 49.8748 63.4147C49.0536 62.1684 51.6026 56.4904 51.6026 56.4904L55.197 51.1964L58.9987 46.2222L61.9375 43.2149L68.6278 36.7254L72.7006 32.0907C72.7006 32.0907 74.5153 29.231 75.1007 29.2048Z" fill="#65617D"/>
<path opacity="0.1" d="M71.5883 53.6873L71.8559 55.4007C71.8559 55.4007 73.4114 57.045 74.8666 57.9271L75.7347 58.2697L75.9019 58.3389L75.7347 58.2544C74.9335 57.8164 74.4618 57.3431 74.2293 56.8591C73.281 54.9198 76.1026 52.8206 76.7633 52.3673C76.8285 52.3212 76.8703 52.292 76.8887 52.2812H76.8971H76.872C76.8169 52.2918 76.761 52.2985 76.7048 52.3012C76.6574 52.3035 76.6099 52.3035 76.5626 52.3012V52.3012L74.8933 52.7423L74.8398 52.7776L71.5883 53.6873Z" fill="black"/>
<path d="M75.6025 43.5423L75.9554 44.18L74.91 45.2035C74.91 45.2035 75.6058 45.7137 75.0054 46.5266C74.4049 47.3395 74.3363 47.928 74.3363 47.928C74.3363 47.928 74.4333 49.6876 73.7225 50.3867L73.9299 51.3595C73.9299 51.3595 75.7179 52.4828 76.6713 52.2738C76.6713 52.2738 70.9577 55.9296 75.6794 58.3376C75.6794 58.3376 69.9324 56.0326 69.4909 56.0694C69.0493 56.1063 67.1091 55.55 66.6475 53.935C66.1858 52.3199 66.9101 51.2688 66.9101 51.2688C66.9101 51.2688 67.447 48.8716 67.646 48.6349C67.845 48.3983 67.3014 47.3549 67.3014 47.3549L69.8204 42.3345L75.6025 43.5423Z" fill="#65617D"/>
<path opacity="0.1" d="M70.4627 23.4454V23.4547L70.2185 23.7758L69.2467 25.059L69.0794 25.2772L68.8386 25.5984L68.4104 26.17L66.6057 27.8112L66.3046 28.0847L63.4294 30.6971L57.0836 36.472L52.4606 38.9307C52.4606 38.9307 51.8 39.238 51.1226 39.5607L51.3182 39.1458C52.0308 37.6522 52.736 36.1867 53.4341 34.7494C53.435 34.7443 53.435 34.7391 53.4341 34.734C56.0918 29.2649 58.6375 24.2292 60.9607 19.8188C60.9998 19.8348 61.0372 19.8538 61.0728 19.8757C61.5963 20.1969 62.2151 20.5196 62.451 20.6441L62.5497 20.6948C62.6511 20.8441 62.7628 20.9873 62.8842 21.1235C63.0765 21.3371 63.3157 21.5461 63.5131 21.5461C63.9111 21.5461 65.7945 22.651 66.0671 22.9291C66.1917 23.0347 66.332 23.1237 66.4836 23.1934C66.9235 23.4193 67.5122 23.6421 67.5122 23.6421L68.8871 23.8557L68.9406 23.865H68.9573C69.327 23.9095 70.1281 23.5884 70.374 23.4808L70.4443 23.4516L70.4627 23.4454Z" fill="black"/>
<path d="M70.466 23.4453L70.1616 23.7803L69.0577 24.9928L68.8787 25.191L68.8654 25.2018L68.1963 25.9378L66.2294 27.7265L65.9216 28.0062L63.7138 30.0147L56.8696 36.2414L52.2466 38.7001L51.3283 39.1319C52.0408 37.6382 52.7461 36.1727 53.4441 34.7354C53.4451 34.7303 53.4451 34.7251 53.4441 34.72C56.1019 29.2509 58.6475 24.2152 60.9708 19.8049C60.9841 19.7803 60.9958 19.7557 61.0092 19.7327C61.6398 20.1092 62.3473 20.4626 62.3473 20.4626C62.3473 20.4626 62.3925 20.5317 62.4661 20.6286C62.5945 20.8009 62.7407 20.9614 62.9026 21.108C63.0091 21.219 63.1548 21.2919 63.3141 21.3139C63.7121 21.3139 65.5955 22.4188 65.8681 22.6969C66.0685 22.8559 66.2941 22.986 66.5371 23.0827C66.9218 23.2609 67.3132 23.4084 67.3132 23.4084L68.7399 23.6328C69.1179 23.6912 70.1599 23.4945 70.4125 23.4438C70.4264 23.4451 70.4404 23.4451 70.4543 23.4438C70.4543 23.4438 70.4543 23.4438 70.4543 23.4438H70.4644L70.466 23.4453Z" fill="#65617D"/>
<path opacity="0.1" d="M43.1226 57.5491L42.9553 57.3831L42.9804 57.3293C43.0222 57.4056 43.0697 57.479 43.1226 57.5491Z" fill="black"/>
<path opacity="0.1" d="M42.7814 59.3501L41.3898 60.9851C41.6306 60.4288 41.8743 59.8684 42.1207 59.304L42.7814 59.3501Z" fill="black"/>
<path d="M49.5486 48.8515L49.4098 48.9252L49.3061 48.9806L47.1585 50.13L47.1368 50.107L46.5146 49.4677L46.446 49.3985L46.5731 49.3386L48.6906 48.3521L48.8261 48.2891L48.9733 48.2214C49.1656 48.4289 49.3563 48.6394 49.5486 48.8515Z" fill="#3F3D56"/>
<path opacity="0.1" d="M77.0058 39.768C77.0058 39.768 75.8149 39.307 75.084 39.5959C74.3531 39.8848 77.0058 39.768 77.0058 39.768Z" fill="black"/>
<path opacity="0.1" d="M73.5954 47.2241C73.5954 47.2241 73.2275 49.6828 72.1671 49.7105C71.1066 49.7381 73.5954 47.2241 73.5954 47.2241Z" fill="black"/>
<path opacity="0.1" d="M51.8518 46.0393C51.8602 45.8303 53.3571 39.9402 52.4205 39.6636L51.8518 46.0393Z" fill="black"/>
<path opacity="0.1" d="M73.1739 19.2639C72.4046 19.9175 71.8232 20.7357 71.4813 21.6457L71.5197 21.6734C71.8543 21.8916 72.3443 21.7395 72.7692 21.7641C73.0297 21.7795 73.2785 21.8694 73.4807 22.0212C73.6829 22.1731 73.8282 22.3792 73.8965 22.6108C73.9529 22.8558 73.9338 23.1105 73.8414 23.3462C73.7489 23.5818 73.5867 23.7891 73.373 23.9446C74.139 23.5466 74.7629 22.9366 75.5272 22.5355C76.2916 22.1344 77.3353 21.9946 77.904 22.5355C78.1482 22.7691 78.3272 23.1317 78.6951 23.1394C78.9159 23.1394 79.1233 23.0088 79.3441 22.9642C80.4363 22.7675 81.296 24.2689 81.4331 25.0633C81.5686 25.8317 81.577 26.9074 81.8847 27.7818C82.4937 27.2563 82.9841 26.6257 83.3278 25.9261C83.6715 25.2265 83.8619 24.4716 83.8881 23.7044C83.9143 22.9372 83.7757 22.1727 83.4803 21.4547C83.1849 20.7367 82.7385 20.0792 82.1666 19.5197C81.5946 18.9602 80.9083 18.5097 80.1468 18.1939C79.3854 17.8781 78.5637 17.7032 77.7286 17.6791C76.8936 17.6551 76.0615 17.7824 75.2801 18.0538C74.4986 18.3252 73.7829 18.7353 73.1739 19.2608V19.2639Z" fill="black"/>
<path d="M79.4612 22.8675C79.2404 22.9105 79.0347 23.0472 78.8122 23.0426C78.4459 23.0426 78.2653 22.6723 78.0211 22.4387C77.4541 21.8947 76.4104 22.033 75.646 22.4387C74.8816 22.8444 74.2578 23.4514 73.49 23.8494C73.7043 23.6943 73.867 23.4871 73.9596 23.2513C74.0521 23.0155 74.0708 22.7606 74.0136 22.5155C73.9453 22.284 73.7999 22.0778 73.5978 21.926C73.3956 21.7741 73.1468 21.6842 72.8862 21.6688C72.4614 21.6442 71.9747 21.7964 71.6385 21.5766C71.3023 21.3569 71.3224 20.8544 71.5348 20.4917C71.7472 20.1291 72.0968 19.8432 72.3543 19.5036C72.8427 18.8613 72.9749 18.0684 73.3579 17.3707C73.822 16.5275 74.608 15.871 75.5657 15.5267C76.0675 15.3484 76.6061 15.267 77.1112 15.0902C77.8789 14.8229 78.5647 14.3403 79.3524 14.1406C80.6704 13.8056 82.1239 14.4264 82.6157 15.5328C82.8515 16.0599 82.8833 16.6638 83.1442 17.1802C83.4954 17.8717 84.2096 18.3219 84.8486 18.8014C85.4875 19.2808 86.1097 19.877 86.1615 20.6623C86.2218 21.5597 85.5092 22.4249 85.4925 23.3285C85.4925 23.708 85.6046 24.0722 85.6246 24.4487C85.6447 24.8252 85.5427 25.2539 85.2031 25.4967C84.7649 25.8118 84.0323 25.7595 83.7881 26.2144C83.7277 26.3557 83.6982 26.5066 83.7012 26.6585C83.6486 27.4501 83.3966 28.2197 82.9652 28.9067C81.6656 28.2213 81.771 26.1913 81.5569 24.9727C81.4131 24.1721 80.555 22.6708 79.4612 22.8675Z" fill="#7C5C5C"/>
<path opacity="0.1" d="M71.9379 42.6909C71.9379 42.6909 67.4654 46.4958 67.3784 47.2226C67.2914 47.9495 71.9379 42.6909 71.9379 42.6909Z" fill="black"/>
<g opacity="0.1">
<path d="M84.1109 25.8288C84.3451 25.3847 85.0543 25.4231 85.4942 25.1311C85.43 25.272 85.3282 25.3956 85.1981 25.4907C84.877 25.7212 84.3969 25.7565 84.0674 25.9363C84.078 25.8992 84.0925 25.8632 84.1109 25.8288V25.8288Z" fill="black"/>
<path d="M73.858 23.4423C74.6057 23.0458 75.2229 22.4496 75.9738 22.0592C76.7248 21.6689 77.7819 21.5183 78.3489 22.0592C78.5931 22.2928 78.7738 22.6555 79.14 22.6632C79.3625 22.6632 79.5682 22.531 79.789 22.488C80.8829 22.2913 81.7409 23.7926 81.8797 24.5871C82.0888 25.778 81.9935 27.7388 83.1994 28.4688C83.1258 28.6224 83.0489 28.7592 82.9602 28.9006C81.6606 28.2152 81.766 26.1853 81.5519 24.9667C81.4131 24.1722 80.5484 22.6708 79.4612 22.8675C79.2404 22.9106 79.0347 23.0473 78.8122 23.0427C78.4459 23.0427 78.2653 22.6724 78.0211 22.4388C77.4541 21.8948 76.4104 22.0331 75.646 22.4388C74.8816 22.8445 74.2578 23.4515 73.4901 23.8495C73.6407 23.7374 73.7658 23.599 73.858 23.4423V23.4423Z" fill="black"/>
<path d="M71.8626 20.1075C71.6502 20.4701 71.6234 20.9696 71.9663 21.1924C72.3092 21.4152 72.7892 21.26 73.2141 21.2846C73.4748 21.3001 73.7237 21.3901 73.9261 21.5419C74.1285 21.6937 74.2743 21.8997 74.3431 22.1313C74.3964 22.3646 74.3811 22.6067 74.2988 22.8328C74.2165 23.0589 74.0701 23.2607 73.8747 23.4175C74.0409 23.1413 74.0904 22.8185 74.0136 22.5109C73.9453 22.2793 73.7999 22.0732 73.5978 21.9213C73.3956 21.7695 73.1468 21.6796 72.8862 21.6642C72.4614 21.6396 71.9747 21.7917 71.6385 21.572C71.3023 21.3522 71.3224 20.8497 71.5348 20.487C71.6664 20.2794 71.8217 20.0851 71.9981 19.9077C71.9488 19.9719 71.9036 20.0386 71.8626 20.1075V20.1075Z" fill="black"/>
<path d="M73.6807 16.9865C73.3027 17.6842 73.179 18.4771 72.6772 19.1195C72.5785 19.2501 72.4664 19.3715 72.3544 19.4929C72.8394 18.8521 72.9716 18.0607 73.3479 17.3661C73.5182 17.0533 73.7355 16.7642 73.9935 16.5071C73.8758 16.6591 73.7712 16.8194 73.6807 16.9865V16.9865Z" fill="black"/>
</g>
<path d="M85.7718 55.1304C85.8079 55.1304 85.8371 55.1035 85.8371 55.0704C85.8371 55.0373 85.8079 55.0105 85.7718 55.0105C85.7358 55.0105 85.7066 55.0373 85.7066 55.0704C85.7066 55.1035 85.7358 55.1304 85.7718 55.1304Z" fill="#E6E8EC"/>
<path d="M137.033 116.784C137.073 118.628 120.449 116.434 121.072 114.94L120.985 114.963C118.891 115.4 107.826 111.848 108.715 110.23C99.6392 102.774 95.5397 96.0772 103.667 81.0376C103.703 80.9383 103.725 80.8349 103.73 80.7302C103.73 80.6933 103.745 80.6565 103.752 80.6211C103.781 80.489 103.807 80.3568 103.836 80.2246C103.836 80.2031 103.844 80.1832 103.849 80.1632C103.854 80.1432 103.864 80.0986 103.871 80.0664C104.105 78.9569 104.365 77.8428 104.652 76.7241C106.068 71.0587 108.07 65.5307 110.631 60.2154C110.685 60.1093 110.735 60.0033 110.789 59.8988C110.819 59.8358 110.851 59.7728 110.882 59.7113L111.088 59.2995C111.096 59.2811 111.106 59.2642 111.115 59.2457C111.148 59.1842 111.178 59.1228 111.21 59.0628C113.321 54.9138 115.683 51.2718 118.166 48.2799C116.996 47.6652 113.211 42.9721 114.152 39.2718C115.156 35.344 120.644 33.8442 122.005 34.1346C123.366 34.425 123.661 37.8473 122.664 41.7751C122.434 42.6925 122.139 43.595 121.779 44.4766C126.128 40.5211 130.681 38.6279 134.842 39.5176C138.294 40.2568 141.062 42.8231 143.049 46.7109C143.09 46.5311 143.135 46.3498 143.18 46.1669C144.183 42.2391 146.085 39.2902 147.448 39.5807C148.812 39.8711 153.399 44.2138 152.403 48.1416C151.742 50.7539 146.381 52.0048 145.341 53.0882C147.388 61.5154 147.95 73.9411 149.39 86.3591C151.3 102.865 147.994 111.684 137.033 116.784Z" fill="#00BFA6"/>
<path opacity="0.2" d="M134.765 62.0824C134.009 65.0605 129.65 66.7155 124.718 66.0532C124.29 65.9958 123.859 65.9211 123.425 65.8289C123.068 65.752 122.72 65.6655 122.38 65.5692C117.511 64.1969 114.289 60.8868 115.057 57.8626C115.632 55.5883 118.315 54.0839 121.747 53.7965C122.493 53.7372 123.243 53.7326 123.99 53.7827C124.801 53.8384 125.605 53.953 126.396 54.1254C131.838 55.2825 135.585 58.8477 134.765 62.0824Z" fill="black"/>
<path d="M132.575 63.9217C133.09 61.8933 130.862 59.6826 127.599 58.9839C124.336 58.2852 121.274 59.363 120.759 61.3914C120.245 63.4197 122.473 65.6304 125.736 66.3291C128.998 67.0278 132.061 65.95 132.575 63.9217Z" fill="#3F3D56"/>
<path d="M123.413 55.6622C122.682 57.268 122.189 56.8592 121.573 56.6257C120.958 56.3921 120.465 56.4167 121.197 54.8108C121.356 54.4618 121.539 54.1225 121.746 53.7951C122.492 53.7357 123.242 53.7311 123.989 53.7812C123.888 54.4288 123.694 55.0612 123.413 55.6622V55.6622Z" fill="white"/>
<path d="M124.718 66.0532C124.29 65.9958 123.859 65.921 123.425 65.8288C123.068 65.752 122.72 65.6654 122.38 65.5691C122.773 63.9172 123.398 63.785 124.032 63.9049C124.666 64.0247 125.081 64.3736 124.718 66.0532Z" fill="white"/>
<path opacity="0.2" d="M128.147 50.6171C130.193 50.6171 131.852 49.0932 131.852 47.2133C131.852 45.3335 130.193 43.8096 128.147 43.8096C126.101 43.8096 124.442 45.3335 124.442 47.2133C124.442 49.0932 126.101 50.6171 128.147 50.6171Z" fill="black"/>
<path opacity="0.1" d="M120.265 41.3977C120.622 39.9917 120.241 38.7085 119.414 38.5314C118.587 38.3544 117.628 39.3506 117.271 40.7566C116.915 42.1625 117.296 43.4458 118.123 43.6228C118.949 43.7998 119.909 42.8036 120.265 41.3977Z" fill="black"/>
<path opacity="0.12" d="M148.408 47.2333C149.357 46.0827 149.578 44.7681 148.901 44.297C148.224 43.826 146.907 44.377 145.958 45.5276C145.009 46.6783 144.788 47.9929 145.465 48.4639C146.141 48.9349 147.459 48.384 148.408 47.2333Z" fill="black"/>
<path d="M128.289 45.5398C128.222 45.5254 128.154 45.5146 128.085 45.5076C128.175 45.6955 128.196 45.9054 128.145 46.1053C128.099 46.2873 127.996 46.4528 127.848 46.5813C127.701 46.7099 127.516 46.7959 127.315 46.8286C127.115 46.8613 126.909 46.8393 126.722 46.7654C126.536 46.6915 126.377 46.5688 126.265 46.4127C126.201 46.5295 126.152 46.6528 126.12 46.78C126.039 47.0994 126.063 47.4337 126.189 47.7406C126.315 48.0475 126.537 48.3133 126.827 48.5043C127.117 48.6953 127.463 48.803 127.82 48.8139C128.176 48.8247 128.529 48.7382 128.832 48.5652C129.135 48.3922 129.376 48.1405 129.524 47.8419C129.671 47.5433 129.72 47.2112 129.662 46.8875C129.604 46.5638 129.444 46.2631 129.2 46.0232C128.957 45.7833 128.641 45.6151 128.294 45.5398H128.289Z" fill="#3F3D56"/>
<path opacity="0.2" d="M122.994 51.6667C122.84 52.2737 122.646 52.0693 122.358 52.0078C122.07 51.9464 121.799 52.0509 121.953 51.4439C122.107 50.8369 122.917 49.8088 122.917 49.8088C122.917 49.8088 123.147 51.0597 122.994 51.6667Z" fill="black"/>
<path opacity="0.2" d="M130.077 42.2299C129.923 42.8446 129.729 42.6325 129.441 42.5711C129.154 42.5096 128.883 42.6141 129.037 42.0071C129.19 41.4001 130 40.3721 130 40.3721C130 40.3721 130.231 41.6214 130.077 42.2299Z" fill="black"/>
<path opacity="0.2" d="M136.652 46.2114C136.498 46.8184 136.304 46.614 136.016 46.5525C135.729 46.4911 135.458 46.5955 135.612 45.9886C135.765 45.3816 136.575 44.3535 136.575 44.3535C136.575 44.3535 136.804 45.6044 136.652 46.2114Z" fill="black"/>
<path opacity="0.2" d="M138.468 51.8005C138.314 52.4075 138.122 52.2031 137.834 52.1416C137.547 52.0802 137.276 52.1847 137.43 51.5777C137.583 50.9707 138.391 49.9426 138.391 49.9426C138.391 49.9426 138.624 51.192 138.468 51.8005Z" fill="black"/>
<path opacity="0.2" d="M121.072 114.617L120.985 114.957C118.891 115.393 107.827 111.842 108.715 110.224L121.072 114.617Z" fill="black"/>
<path opacity="0.2" d="M121.072 114.934L120.985 114.957L121.072 114.617C124.25 113.764 137.033 116.784 137.033 116.784C137.073 118.622 120.45 116.434 121.072 114.934Z" fill="black"/>
<g opacity="0.1">
<path d="M122.769 63.3134C121.923 66.8094 118.406 71.3979 113.185 75.3426C110.324 77.4941 107.152 79.271 103.76 80.6227C103.792 80.469 103.826 80.3153 103.857 80.1617C104.098 79.0215 104.366 77.8751 104.66 76.7226C106.077 71.0572 108.079 65.5292 110.64 60.2139C110.693 60.1078 110.743 60.0018 110.797 59.8973C110.827 59.8343 110.859 59.7713 110.891 59.7098C114.376 58.2039 117.564 57.5984 119.797 58.0686C120.555 58.2087 121.257 58.5378 121.824 59.0199C121.923 59.1063 122.016 59.1982 122.102 59.2949C122.598 59.8747 122.89 60.5796 122.938 61.3157C122.994 61.9856 122.937 62.6594 122.769 63.3134V63.3134Z" fill="black"/>
</g>
<g opacity="0.1">
<path d="M122.492 62.9138C121.645 66.4098 118.128 70.9984 112.906 74.9431C110.156 77.0117 107.119 78.7352 103.874 80.0679C104.108 78.9584 104.369 77.8443 104.655 76.7256C106.072 71.0603 108.074 65.5323 110.635 60.2169C110.688 60.1109 110.738 60.0049 110.792 59.9004C110.822 59.8374 110.854 59.7744 110.886 59.7129L111.091 59.3011L111.213 59.0644C114.465 57.7429 117.419 57.2296 119.521 57.6722C120.28 57.8123 120.981 58.142 121.548 58.6249C121.647 58.7108 121.74 58.8022 121.826 58.8985C122.325 59.4778 122.621 60.1832 122.672 60.9207C122.724 61.5897 122.663 62.2619 122.492 62.9138V62.9138Z" fill="black"/>
</g>
<path d="M122.45 63.0767C121.599 66.5726 118.086 71.1612 112.866 75.1059C110.116 77.1731 107.079 78.895 103.834 80.2262C103.834 80.2046 103.842 80.1847 103.847 80.1647C103.852 80.1447 103.862 80.1001 103.869 80.0679C104.103 78.9584 104.364 77.8443 104.65 76.7256C106.067 71.0603 108.069 65.5322 110.63 60.2169C110.683 60.1108 110.733 60.0048 110.787 59.9003C110.817 59.8373 110.849 59.7743 110.881 59.7128L111.086 59.301C111.095 59.2826 111.105 59.2657 111.113 59.2472C114.386 57.9088 117.36 57.3878 119.476 57.8335C120.234 57.9747 120.935 58.3042 121.503 58.7862C121.602 58.8723 121.695 58.9642 121.781 59.0613C122.277 59.6409 122.569 60.3459 122.617 61.082C122.673 61.7509 122.616 62.4236 122.45 63.0767V63.0767Z" fill="#00BFA6"/>
<path opacity="0.1" d="M136.659 97.6894C138.942 88.6901 133.137 79.7553 123.694 77.7331C114.25 75.7109 104.744 81.367 102.461 90.3664C100.178 99.3657 105.983 108.3 115.426 110.323C124.87 112.345 134.376 106.689 136.659 97.6894Z" fill="black"/>
<path d="M136.578 98.0131C138.861 89.0138 133.056 80.0791 123.613 78.0569C114.169 76.0347 104.663 81.6907 102.38 90.6901C100.097 99.6894 105.902 108.624 115.345 110.646C124.788 112.669 134.295 107.012 136.578 98.0131Z" fill="#00BFA6"/>
<path d="M120.93 89.8796C120.895 90.0139 120.833 90.1407 120.746 90.2528C120.658 90.3649 120.548 90.4601 120.42 90.533C120.163 90.6801 119.852 90.7273 119.557 90.6641C119.262 90.6009 119.006 90.4326 118.846 90.1961C118.686 89.9597 118.635 89.6745 118.703 89.4032C118.847 88.8377 119.272 89.2327 119.886 89.3633C120.5 89.4939 121.068 89.3156 120.93 89.8796Z" fill="#65617D"/>
<g opacity="0.1">
<path d="M133.139 39.6666C136.59 40.4057 139.36 42.972 141.347 46.8583C141.387 46.68 141.43 46.4987 141.477 46.3158C141.598 45.8395 141.733 45.3785 141.877 44.9328C139.999 42.0208 137.577 40.103 134.67 39.4806C133.317 39.1993 131.913 39.193 130.557 39.4622C131.424 39.4176 132.293 39.4864 133.139 39.6666V39.6666Z" fill="black"/>
<path d="M149.215 86.3238C147.775 73.9057 147.208 61.48 145.165 53.0528C146.206 51.9771 151.566 50.714 152.227 48.1062C153.23 44.1784 148.633 39.8372 147.273 39.5453C146.938 39.473 146.557 39.6021 146.172 39.8987C147.868 40.7838 151.605 44.707 150.702 48.286C150.033 50.8984 144.68 52.1492 143.64 53.2326C145.684 61.6644 146.244 74.0901 147.691 86.5081C149.604 103.012 146.298 111.83 135.337 116.935C135.337 117.159 135.096 117.323 134.668 117.437C136.006 117.382 136.883 117.173 136.873 116.75C147.821 111.647 151.128 102.828 149.215 86.3238Z" fill="black"/>
<path d="M120.297 34.2836C121.659 34.574 121.953 37.9947 120.958 41.924C120.727 42.8414 120.431 43.7439 120.072 44.6255C120.763 43.9986 121.458 43.4243 122.156 42.9029C122.274 42.5264 122.386 42.1345 122.49 41.7412C123.494 37.8118 123.191 34.3911 121.831 34.0992C121.473 34.0223 120.828 34.0715 120.056 34.2528C120.138 34.2566 120.218 34.2668 120.297 34.2836V34.2836Z" fill="black"/>
</g>
<g opacity="0.1">
<path d="M146.465 90.0994C142.526 91.736 134.615 84.6226 130.52 76.3106C127.735 70.6525 126.787 65.1081 127.71 61.6291C127.871 60.9748 128.141 60.3472 128.51 59.7681C128.911 59.1276 129.514 58.6146 130.241 58.2975C130.365 58.2455 130.492 58.2009 130.622 58.1638C131.364 57.9622 132.151 57.9516 132.899 58.1331C136.709 58.9629 141.517 63.7482 144.782 70.3821C148.875 78.6925 150.404 88.4613 146.465 90.0994Z" fill="black"/>
<g opacity="0.1">
<path d="M131.969 64.4688C131.527 64.8407 129.962 63.9325 128.456 62.4373C128.185 62.1668 127.936 61.8948 127.71 61.629C127.871 60.9748 128.141 60.3471 128.51 59.7681C129.062 60.169 129.578 60.611 130.052 61.0896C131.547 62.5771 132.402 64.0954 131.969 64.4688Z" fill="black"/>
<path d="M132.899 58.1331C133.286 58.4445 133.654 58.7749 134.002 59.1227C135.498 60.6164 136.344 62.1285 135.909 62.5034C135.474 62.8784 133.902 61.9686 132.407 60.4734C131.571 59.6452 130.943 58.8107 130.622 58.1684L132.899 58.1331Z" fill="black"/>
</g>
</g>
<g opacity="0.1">
<path d="M146.982 89.5277C143.043 91.1658 135.131 84.0509 131.037 75.7405C128.25 70.0809 127.302 64.5365 128.225 61.0574C128.387 60.4031 128.657 59.7755 129.027 59.1965C129.427 58.5556 130.031 58.0424 130.758 57.7259C130.881 57.675 131.008 57.6309 131.137 57.5937C131.879 57.3906 132.668 57.3799 133.415 57.563C137.224 58.3912 142.033 63.178 145.299 69.8104C149.392 78.1208 150.919 87.8896 146.982 89.5277Z" fill="black"/>
</g>
<path d="M146.722 89.8135C142.785 91.4516 134.872 84.3367 130.779 76.0247C127.993 70.3666 127.044 64.8223 127.968 61.3432C128.13 60.6889 128.4 60.0612 128.769 59.4822C129.169 58.8414 129.772 58.3283 130.498 58.0116C130.623 57.9603 130.75 57.9157 130.88 57.8779C131.621 57.6764 132.409 57.6657 133.156 57.8472C136.966 58.677 141.775 63.4638 145.041 70.0962C149.133 78.4051 150.661 88.1754 146.722 89.8135Z" fill="#00BFA6"/>
<path d="M174.171 94.3423C174.171 94.3423 175.115 95.4748 173.736 97.1867C172.358 98.8986 171.228 100.343 171.679 101.411C171.679 101.411 173.76 98.2317 175.454 98.184C177.148 98.1364 176.035 96.2539 174.171 94.3423Z" fill="#00BFA6"/>
<path opacity="0.1" d="M174.171 94.3423C174.254 94.4512 174.319 94.5708 174.364 94.6973C176.016 96.4814 176.898 98.1456 175.309 98.1871C173.828 98.2255 172.054 100.657 171.629 101.271C171.644 101.317 171.661 101.365 171.679 101.411C171.679 101.411 173.76 98.2317 175.454 98.184C177.148 98.1364 176.035 96.2539 174.171 94.3423Z" fill="black"/>
<path d="M175.926 95.7867C175.926 96.1862 175.877 96.5089 175.817 96.5089C175.757 96.5089 175.708 96.1862 175.708 95.7867C175.708 95.3872 175.769 95.5762 175.829 95.5762C175.889 95.5762 175.926 95.3872 175.926 95.7867Z" fill="#FFD037"/>
<path d="M176.528 96.263C176.147 96.4535 175.814 96.5703 175.785 96.5211C175.757 96.4719 176.041 96.2783 176.423 96.0878C176.804 95.8972 176.655 96.0355 176.683 96.0878C176.712 96.14 176.909 96.077 176.528 96.263Z" fill="#FFD037"/>
<path d="M169.187 94.3423C169.187 94.3423 168.244 95.4748 169.624 97.1867C171.003 98.8986 172.132 100.343 171.679 101.411C171.679 101.411 169.598 98.2317 167.906 98.184C166.213 98.1364 167.325 96.2539 169.187 94.3423Z" fill="#00BFA6"/>
<path opacity="0.1" d="M169.187 94.3423C169.105 94.4516 169.04 94.5711 168.995 94.6973C167.342 96.4814 166.462 98.1456 168.051 98.1871C169.53 98.2255 171.304 100.657 171.731 101.271C171.717 101.319 171.701 101.365 171.681 101.411C171.681 101.411 169.6 98.2317 167.907 98.184C166.215 98.1364 167.325 96.2539 169.187 94.3423Z" fill="black"/>
<path d="M167.427 95.7867C167.427 96.1862 167.476 96.5089 167.536 96.5089C167.596 96.5089 167.645 96.1862 167.645 95.7867C167.645 95.3872 167.585 95.5762 167.524 95.5762C167.464 95.5762 167.427 95.3872 167.427 95.7867Z" fill="#FFD037"/>
<path d="M166.832 96.263C167.213 96.4535 167.546 96.5703 167.575 96.5211C167.603 96.4719 167.317 96.2783 166.936 96.0878C166.554 95.8972 166.705 96.0355 166.676 96.0878C166.648 96.14 166.451 96.077 166.832 96.263Z" fill="#FFD037"/>
<path opacity="0.1" d="M171.681 110.082C177.129 110.082 181.546 109.46 181.546 108.692C181.546 107.924 177.129 107.301 171.681 107.301C166.233 107.301 161.816 107.924 161.816 108.692C161.816 109.46 166.233 110.082 171.681 110.082Z" fill="#00BFA6"/>
<path d="M176.757 99.8819L176.71 100.237L176.643 100.736L176.617 100.945L176.55 101.445L176.521 101.654L176.456 102.153L175.7 107.839C175.633 108.348 174.73 108.742 173.641 108.742H169.719C168.628 108.742 167.727 108.348 167.66 107.839L166.904 102.153L166.837 101.654L166.81 101.445L166.743 100.945L166.715 100.736L166.65 100.237L166.601 99.8819C166.564 99.5945 167.053 99.3533 167.668 99.3533H175.697C176.307 99.3533 176.794 99.5945 176.757 99.8819Z" fill="#65617D"/>
<path d="M176.71 100.237L176.645 100.736H166.717L166.65 100.237H176.71Z" fill="#9D9CB5"/>
<path d="M176.617 100.945L176.551 101.445H166.81L166.743 100.945H176.617Z" fill="#9D9CB5"/>
<path d="M176.521 101.654L176.456 102.153H166.904L166.839 101.654H176.521Z" fill="#9D9CB5"/>
<path d="M58.3749 104.951C58.3749 104.951 59.6962 106.539 57.7644 108.936C55.8326 111.333 54.2403 113.357 54.8842 114.852C54.8842 114.852 57.7995 110.396 60.1713 110.338C62.543 110.279 60.9758 107.628 58.3749 104.951Z" fill="#00BFA6"/>
<path opacity="0.1" d="M58.3749 104.951C58.4901 105.105 58.5813 105.273 58.6459 105.449C60.959 107.948 62.1934 110.279 59.9672 110.338C57.8949 110.393 55.4094 113.797 54.814 114.657C54.834 114.723 54.8575 114.788 54.8842 114.852C54.8842 114.852 57.7995 110.396 60.1713 110.338C62.543 110.279 60.9758 107.628 58.3749 104.951Z" fill="black"/>
<path d="M60.8236 106.975C60.8236 107.535 60.755 107.987 60.6714 107.987C60.5877 107.987 60.5192 107.535 60.5192 106.975C60.5192 106.416 60.6045 106.68 60.6864 106.68C60.7684 106.68 60.8236 106.416 60.8236 106.975Z" fill="#FFD037"/>
<path d="M61.6665 107.642C61.133 107.91 60.663 108.071 60.6262 108.003C60.5894 107.936 60.9875 107.664 61.521 107.389C62.0546 107.114 61.8438 107.316 61.884 107.389C61.9241 107.461 62.2001 107.375 61.6665 107.642Z" fill="#FFD037"/>
<path d="M51.3868 104.951C51.3868 104.951 50.0638 106.539 51.9956 108.936C53.9275 111.333 55.5198 113.357 54.8758 114.852C54.8758 114.852 51.9622 110.396 49.5905 110.338C47.2187 110.279 48.7776 107.628 51.3868 104.951Z" fill="#00BFA6"/>
<path opacity="0.1" d="M51.3868 104.951C51.2706 105.105 51.1793 105.273 51.1159 105.451C48.801 107.95 47.5683 110.281 49.7928 110.339C51.8652 110.394 54.3523 113.798 54.9477 114.659C54.9278 114.725 54.9038 114.79 54.8758 114.854C54.8758 114.854 51.9622 110.397 49.5905 110.339C47.2187 110.281 48.7776 107.628 51.3868 104.951Z" fill="black"/>
<path d="M48.9298 106.975C48.9298 107.535 48.9967 107.987 49.082 107.987C49.1673 107.987 49.2342 107.535 49.2342 106.975C49.2342 106.416 49.1489 106.68 49.067 106.68C48.985 106.68 48.9298 106.416 48.9298 106.975Z" fill="#FFD037"/>
<path d="M48.0868 107.642C48.6204 107.91 49.0904 108.071 49.1255 108.003C49.1606 107.936 48.7659 107.664 48.2323 107.389C47.6988 107.114 47.9095 107.316 47.8677 107.389C47.8259 107.461 47.5516 107.375 48.0868 107.642Z" fill="#FFD037"/>
<path opacity="0.1" d="M54.8775 127C62.5086 127 68.6947 126.128 68.6947 125.052C68.6947 123.975 62.5086 123.103 54.8775 123.103C47.2465 123.103 41.0603 123.975 41.0603 125.052C41.0603 126.128 47.2465 127 54.8775 127Z" fill="#00BFA6"/>
<path d="M61.9893 112.712L61.9224 113.208L61.8288 113.909L61.7903 114.201L61.6983 114.902L61.6582 115.194L61.5662 115.893L60.5074 123.858C60.4138 124.567 59.1493 125.122 57.6239 125.122H52.1294C50.6024 125.122 49.3413 124.567 49.2459 123.858L48.1872 115.901L48.0952 115.201L48.0567 114.909L47.9614 114.209L47.9229 113.917L47.8309 113.216L47.764 112.72C47.7122 112.317 48.3946 111.979 49.2593 111.979H60.4957C61.3571 111.971 62.0429 112.309 61.9893 112.712Z" fill="#65617D"/>
<path d="M61.9225 113.208L61.8305 113.909H47.9246L47.8309 113.208H61.9225Z" fill="#9D9CB5"/>
<path d="M61.7919 114.201L61.6983 114.902H48.0567L47.963 114.201H61.7919Z" fill="#9D9CB5"/>
<path d="M61.6581 115.194L61.5662 115.893H48.1871L48.0952 115.194H61.6581Z" fill="#9D9CB5"/>
<path d="M83.462 60.3919C81.5253 60.3919 79.9496 58.8409 79.9496 56.9343C79.9496 55.0278 81.5253 53.4768 83.462 53.4768C85.3988 53.4768 86.9744 55.0278 86.9744 56.9343C86.9744 58.8409 85.3988 60.3919 83.462 60.3919ZM83.462 54.3504C82.0451 54.3504 80.8924 55.5096 80.8924 56.9343C80.8924 58.3591 82.0451 59.5183 83.462 59.5183C84.8789 59.5183 86.0317 58.3591 86.0317 56.9343C86.0317 55.5096 84.8789 54.3504 83.462 54.3504Z" fill="#00BFA6"/>
<path d="M86.7766 66.2315H80.1474C79.5628 66.2309 79.0024 66.0176 78.589 65.6383C78.1756 65.2591 77.9431 64.7449 77.9424 64.2085V58.2427C77.9429 57.8755 78.1021 57.5234 78.3851 57.2638C78.6681 57.0041 79.0518 56.8581 79.452 56.8577H87.4719C87.8722 56.8581 88.2559 57.0041 88.5389 57.2638C88.8219 57.5234 88.9811 57.8755 88.9815 58.2427V64.2085C88.9808 64.7449 88.7483 65.2591 88.335 65.6383C87.9216 66.0176 87.3611 66.2309 86.7766 66.2315V66.2315Z" fill="#3F3D56"/>
</g>
<defs>
<linearGradient id="paint0_linear_407_323" x1="44.9865" y1="87.5038" x2="80.4546" y2="13.1868" gradientUnits="userSpaceOnUse">
<stop stop-color="#808080" stop-opacity="0.25"/>
<stop offset="0.54" stop-color="#808080" stop-opacity="0.12"/>
<stop offset="1" stop-color="#808080" stop-opacity="0.1"/>
</linearGradient>
<clipPath id="clip0_407_323">
<rect width="187" height="127" fill="white"/>
</clipPath>
</defs>
</svg>
